<?xml version="1.0" encoding="UTF-8" standalone="no"?>
<!DOCTYPE svg PUBLIC "-//W3C//DTD SVG 20010904//EN" "http://www.w3.org/TR/2001/REC-SVG-20010904/DTD/svg10.dtd"[]>
<svg version="1.1" id="Frosty Editor v1.0.6.3" xmlns="http://www.w3.org/2000/svg" d1p1:xlink="http://www.w3.org/1999/xlink" viewBox="0 0 512 512" xmlns:d1p1="xmlns">
  <path stroke="none" fill="#ffffffff" d="M 256.100,462.900 C 196.367,428.433 136.633,393.967 76.900,359.500 76.867,290.533 76.833,221.567 76.800,152.600 136.500,118.100 196.200,83.600 255.900,49.100 315.667,83.567 375.433,118.033 435.200,152.500 435.233,221.467 435.267,290.433 435.300,359.400 375.567,393.900 315.833,428.400 256.100,462.900 256.100,462.900 256.100,462.900 256.100,462.900 Z M 451.700,142.900 C 386.433,105.233 321.167,67.567 255.900,29.900 190.667,67.600 125.433,105.300 60.200,143.000 60.200,218.367 60.200,293.733 60.200,369.100 125.467,406.767 190.733,444.433 256.000,482.100 321.267,444.400 386.533,406.700 451.800,369.000 451.767,293.633 451.733,218.267 451.700,142.900 451.700,142.900 451.700,142.900 451.700,142.900 Z " />
  <path stroke="none" fill="#ffffffff" d="M 394.500,294.700 C 391.200,306.500 386.400,317.700 380.400,328.100 356.400,315.733 332.400,303.367 308.400,291.000 328.800,308.667 349.200,326.333 369.600,344.000 362.200,353.500 353.600,362.200 344.000,369.600 326.100,348.733 308.200,327.867 290.300,307.000 302.633,331.567 314.967,356.133 327.300,380.700 316.900,386.700 305.700,391.400 293.800,394.600 285.200,368.400 276.600,342.200 268.000,316.000 270.000,343.500 272.000,371.000 274.000,398.500 268.100,399.300 262.000,399.700 255.900,399.700 249.800,399.700 243.700,399.200 237.800,398.500 239.933,370.533 242.067,342.567 244.200,314.600 235.200,341.200 226.200,367.800 217.200,394.400 205.400,391.100 194.200,386.300 183.800,380.300 196.167,356.300 208.533,332.300 220.900,308.300 203.267,328.733 185.633,349.167 168.000,369.600 158.500,362.200 149.800,353.600 142.400,344.000 163.300,326.033 184.200,308.067 205.100,290.100 180.500,302.467 155.900,314.833 131.300,327.200 125.300,316.800 120.600,305.600 117.400,293.700 143.600,285.100 169.800,276.500 196.000,267.900 168.500,269.900 141.000,271.900 113.500,273.900 112.700,268.000 112.300,262.000 112.300,255.800 112.300,249.700 112.700,243.600 113.500,237.700 141.867,239.867 170.233,242.033 198.600,244.200 171.600,235.167 144.600,226.133 117.600,217.100 120.900,205.300 125.700,194.100 131.700,183.700 155.733,195.967 179.767,208.233 203.800,220.500 183.333,202.933 162.867,185.367 142.400,167.800 149.800,158.300 158.400,149.600 168.000,142.200 186.000,163.033 204.000,183.867 222.000,204.700 209.567,180.167 197.133,155.633 184.700,131.100 195.100,125.100 206.400,120.400 218.200,117.200 226.867,143.400 235.533,169.600 244.200,195.800 242.100,168.333 240.000,140.867 237.900,113.400 243.800,112.600 249.900,112.200 256.000,112.200 262.100,112.200 268.200,112.700 274.100,113.400 272.067,141.400 270.033,169.400 268.000,197.400 276.933,170.800 285.867,144.200 294.800,117.600 306.600,120.900 317.800,125.700 328.200,131.700 315.933,155.733 303.667,179.767 291.400,203.800 308.967,183.333 326.533,162.867 344.100,142.400 353.600,149.800 362.300,158.400 369.700,168.000 348.867,186.000 328.033,204.000 307.200,222.000 331.733,209.533 356.267,197.067 380.800,184.600 386.800,195.000 391.500,206.300 394.700,218.100 368.533,226.833 342.367,235.567 316.200,244.300 343.667,242.200 371.133,240.100 398.600,238.000 399.400,243.900 399.800,250.000 399.800,256.100 399.800,262.200 399.400,268.300 398.600,274.200 371.000,272.167 343.400,270.133 315.800,268.100 342.033,276.967 368.267,285.833 394.500,294.700 394.500,294.700 394.500,294.700 394.500,294.700 Z M 256.000,97.000 C 168.200,97.000 97.000,168.200 97.000,256.000 97.000,343.800 168.200,415.000 256.000,415.000 343.800,415.000 415.000,343.800 415.000,256.000 415.000,168.200 343.800,97.000 256.000,97.000 256.000,97.000 256.000,97.000 256.000,97.000 Z " />
</svg>