<?xml version="1.0" encoding="UTF-8" standalone="no"?>
<!DOCTYPE svg PUBLIC "-//W3C//DTD SVG 20010904//EN" "http://www.w3.org/TR/2001/REC-SVG-20010904/DTD/svg10.dtd"[]>
<svg version="1.1" id="Frosty Editor v1.0.6.3" xmlns="http://www.w3.org/2000/svg" d1p1:xlink="http://www.w3.org/1999/xlink" viewBox="0 0 512 512" xmlns:d1p1="xmlns">
  <path stroke="none" fill="#ffffffff" d="M 369.700,432.600 C 347.633,391.933 325.567,351.267 303.500,310.600 310.667,298.167 317.833,285.733 325.000,273.300 367.200,273.300 409.400,273.300 451.600,273.300 424.300,326.400 397.000,379.500 369.700,432.600 369.700,432.600 369.700,432.600 369.700,432.600 Z M 166.700,455.600 C 190.267,412.133 213.833,368.667 237.400,325.200 249.600,325.200 261.800,325.200 274.000,325.200 297.567,368.667 321.133,412.133 344.700,455.600 285.367,455.600 226.033,455.600 166.700,455.600 166.700,455.600 166.700,455.600 166.700,455.600 Z M 59.800,273.300 C 101.967,273.300 144.133,273.300 186.300,273.300 193.467,285.733 200.633,298.167 207.800,310.600 185.900,351.000 164.000,391.400 142.100,431.800 114.667,378.967 87.233,326.133 59.800,273.300 59.800,273.300 59.800,273.300 59.800,273.300 Z M 142.100,82.000 C 164.000,122.400 185.900,162.800 207.800,203.200 200.633,215.633 193.467,228.067 186.300,240.500 144.133,240.500 101.967,240.500 59.800,240.500 87.233,187.667 114.667,134.833 142.100,82.000 142.100,82.000 142.100,82.000 142.100,82.000 Z M 344.700,58.200 C 321.133,101.667 297.567,145.133 274.000,188.600 261.800,188.600 249.600,188.600 237.400,188.600 213.833,145.133 190.267,101.667 166.700,58.200 226.033,58.200 285.367,58.200 344.700,58.200 344.700,58.200 344.700,58.200 344.700,58.200 Z M 451.600,240.400 C 409.433,240.400 367.267,240.400 325.100,240.400 317.933,227.967 310.767,215.533 303.600,203.100 325.667,162.433 347.733,121.767 369.800,81.100 397.067,134.200 424.333,187.300 451.600,240.400 451.600,240.400 451.600,240.400 451.600,240.400 Z M 383.800,7.700 C 298.767,7.700 213.733,7.700 128.700,7.700 85.600,90.767 42.500,173.833 -0.600,256.900 42.500,339.933 85.600,422.967 128.700,506.000 213.733,506.000 298.767,506.000 383.800,506.000 426.533,422.967 469.267,339.933 512.000,256.900 469.267,173.833 426.533,90.767 383.800,7.700 383.800,7.700 383.800,7.700 383.800,7.700 Z " />
</svg>