<?xml version="1.0" encoding="UTF-8" standalone="no"?>
<!DOCTYPE svg PUBLIC "-//W3C//DTD SVG 20010904//EN" "http://www.w3.org/TR/2001/REC-SVG-20010904/DTD/svg10.dtd"[]>
<svg version="1.1" id="Frosty Editor v1.0.6.3" xmlns="http://www.w3.org/2000/svg" d1p1:xlink="http://www.w3.org/1999/xlink" viewBox="0 0 512 512" xmlns:d1p1="xmlns">
  <path stroke="none" fill="#ffffffff" d="M 423.200,384.400 C 417.433,378.667 411.667,372.933 405.900,367.200 423.700,343.200 435.900,315.000 440.400,284.000 448.600,284.000 456.800,284.000 465.000,284.000 460.000,321.000 445.200,355.800 423.200,384.400 423.200,384.400 423.200,384.400 423.200,384.400 Z M 283.000,465.000 C 283.000,456.833 283.000,448.667 283.000,440.500 312.000,435.900 342.800,425.000 366.800,407.000 366.833,407.000 366.867,407.000 366.900,407.000 372.567,412.600 378.233,418.200 383.900,423.800 355.200,445.800 322.000,460.000 283.000,465.000 283.000,465.000 283.000,465.000 283.000,465.000 Z M 269.000,417.000 C 259.333,417.000 249.667,417.000 240.000,417.000 240.000,388.767 240.000,360.533 240.000,332.300 228.000,330.300 220.900,326.300 212.700,320.900 193.267,340.367 173.833,359.833 154.400,379.300 147.133,372.000 139.867,364.700 132.600,357.400 152.100,338.000 171.600,318.600 191.100,299.200 185.700,291.000 181.700,280.000 179.700,272.000 152.133,272.000 124.567,272.000 97.000,272.000 97.000,261.667 97.000,251.333 97.000,241.000 124.567,241.000 152.133,241.000 179.700,241.000 181.700,231.000 185.700,221.500 191.100,213.300 171.600,193.767 152.100,174.233 132.600,154.700 139.900,147.400 147.200,140.100 154.500,132.800 173.867,152.267 193.233,171.733 212.600,191.200 220.800,185.700 227.900,181.800 239.900,179.800 239.900,152.200 239.900,124.600 239.900,97.000 249.567,97.000 259.233,97.000 268.900,97.000 268.900,124.567 268.900,152.133 268.900,179.700 280.900,181.700 289.400,185.700 297.600,191.200 317.300,171.700 337.000,152.200 356.700,132.700 364.100,140.000 371.500,147.300 378.900,154.600 359.467,174.167 340.033,193.733 320.600,213.300 326.000,221.500 330.200,231.000 332.200,241.000 359.467,241.000 386.733,241.000 414.000,241.000 414.000,251.333 414.000,261.667 414.000,272.000 386.767,272.000 359.533,272.000 332.300,272.000 330.300,280.000 326.300,291.000 320.800,299.200 340.300,318.667 359.800,338.133 379.300,357.600 372.000,364.867 364.700,372.133 357.400,379.400 337.500,359.900 317.600,340.400 297.700,320.900 289.500,326.400 281.000,330.400 269.000,332.400 269.000,360.600 269.000,388.800 269.000,417.000 269.000,417.000 269.000,417.000 269.000,417.000 269.000,417.000 269.000,417.000 269.000,417.000 Z M 226.000,465.000 C 191.000,460.100 155.200,445.200 126.600,423.200 132.167,417.433 137.733,411.667 143.300,405.900 167.300,423.700 197.000,435.800 226.000,440.400 226.000,448.600 226.000,456.800 226.000,465.000 226.000,465.000 226.000,465.000 226.000,465.000 Z M 88.700,384.400 C 66.700,355.700 52.000,321.000 47.000,284.000 55.200,284.000 63.400,284.000 71.600,284.000 76.200,315.000 88.200,343.100 106.000,367.100 100.233,372.867 94.467,378.633 88.700,384.400 88.700,384.400 88.700,384.400 88.700,384.400 Z M 88.800,128.700 C 94.567,134.600 100.333,140.500 106.100,146.400 88.300,170.400 76.200,198.000 71.600,230.000 63.400,230.000 55.200,230.000 47.000,230.000 52.000,190.000 66.800,157.300 88.800,128.700 88.800,128.700 88.800,128.700 88.800,128.700 Z M 226.000,47.100 C 226.000,55.267 226.000,63.433 226.000,71.600 197.000,76.200 169.100,89.000 145.100,105.000 145.067,105.000 145.033,105.000 145.000,105.000 138.867,99.433 132.733,93.867 126.600,88.300 155.300,66.300 191.000,52.100 226.000,47.100 226.000,47.100 226.000,47.100 226.000,47.100 Z M 283.000,47.000 C 322.000,51.900 355.200,66.700 383.900,88.700 378.067,94.467 372.233,100.233 366.400,106.000 342.400,88.200 312.000,76.100 283.000,71.600 283.000,63.400 283.000,55.200 283.000,47.000 283.000,47.000 283.000,47.000 283.000,47.000 Z M 423.200,128.500 C 445.200,157.200 460.000,190.000 465.000,230.000 456.833,230.000 448.667,230.000 440.500,230.000 435.900,198.000 423.800,170.200 406.000,146.200 411.733,140.300 417.467,134.400 423.200,128.500 423.200,128.500 423.200,128.500 423.200,128.500 Z M 256.000,17.100 C 124.100,17.100 17.100,124.100 17.100,256.000 17.100,387.900 124.100,494.900 256.000,494.900 387.900,494.900 494.900,387.900 494.900,256.000 494.900,124.100 387.900,17.100 256.000,17.100 256.000,17.100 256.000,17.100 256.000,17.100 Z " />
</svg>