<?xml version="1.0" encoding="UTF-8" standalone="no"?>
<!DOCTYPE svg PUBLIC "-//W3C//DTD SVG 20010904//EN" "http://www.w3.org/TR/2001/REC-SVG-20010904/DTD/svg10.dtd"[]>
<svg version="1.1" id="Frosty Editor v1.0.6.3" xmlns="http://www.w3.org/2000/svg" d1p1:xlink="http://www.w3.org/1999/xlink" viewBox="0 0 512 512" xmlns:d1p1="xmlns">
  <path stroke="none" fill="#ffffffff" d="M 309.700,13.000 C 390.900,59.200 413.900,124.500 421.000,169.500 430.200,227.400 405.700,289.400 358.800,297.200 310.900,305.200 286.100,257.300 282.700,231.000 278.900,201.700 291.300,170.900 308.100,149.400 317.100,137.900 330.200,122.400 348.800,108.600 339.433,98.400 330.067,88.200 320.700,78.000 307.500,86.500 297.300,101.200 292.200,112.000 292.200,112.000 291.800,101.000 294.100,92.400 297.100,81.100 301.300,72.700 303.400,68.800 304.700,66.500 305.900,64.600 307.000,63.100 290.000,44.467 273.000,25.833 256.000,7.200 238.933,25.867 221.867,44.533 204.800,63.200 205.900,64.800 207.100,66.600 208.400,68.900 210.600,72.800 214.700,81.200 217.800,92.500 220.100,101.000 219.700,112.100 219.700,112.100 214.600,101.200 204.400,86.600 191.300,78.100 181.933,88.333 172.567,98.567 163.200,108.800 181.800,122.600 194.800,138.100 203.900,149.600 220.700,171.000 233.100,201.800 229.300,231.100 225.900,257.400 201.100,305.300 153.200,297.300 106.300,289.500 81.800,227.500 91.000,169.600 98.100,124.600 121.100,59.300 202.400,13.000 91.100,37.600 7.800,137.000 7.800,256.000 7.800,393.400 118.900,504.800 256.000,504.800 393.100,504.800 504.200,393.400 504.200,256.000 504.200,137.100 421.000,37.600 309.700,13.000 309.700,13.000 309.700,13.000 309.700,13.000 309.700,13.000 309.700,13.000 309.700,13.000 Z " />
</svg>