<?xml version="1.0" encoding="UTF-8" standalone="no"?>
<!DOCTYPE svg PUBLIC "-//W3C//DTD SVG 20010904//EN" "http://www.w3.org/TR/2001/REC-SVG-20010904/DTD/svg10.dtd"[]>
<svg version="1.1" id="Frosty Editor v1.0.6.3" xmlns="http://www.w3.org/2000/svg" d1p1:xlink="http://www.w3.org/1999/xlink" viewBox="0 0 512 512" xmlns:d1p1="xmlns">
  <path stroke="none" fill="#ffffffff" d="M 433.900,370.500 C 438.600,373.633 443.300,376.767 448.000,379.900 409.200,439.900 343.100,480.500 267.300,484.200 266.933,478.567 266.567,472.933 266.200,467.300 280.600,466.600 294.500,464.500 308.000,461.100 306.600,455.600 305.200,450.100 303.800,444.600 339.200,435.600 370.700,417.000 395.400,391.700 399.433,395.633 403.467,399.567 407.500,403.500 417.400,393.500 426.200,382.400 433.900,370.500 433.900,370.500 433.900,370.500 433.900,370.500 Z M 78.100,370.500 C 85.800,382.400 94.600,393.500 104.500,403.600 108.533,399.667 112.567,395.733 116.600,391.800 141.300,417.100 172.800,435.800 208.100,444.700 206.700,450.200 205.300,455.700 203.900,461.200 217.400,464.600 231.300,466.700 245.700,467.400 245.333,473.033 244.967,478.667 244.600,484.300 168.800,480.600 102.700,440.000 63.900,380.000 68.633,376.833 73.367,373.667 78.100,370.500 78.100,370.500 78.100,370.500 78.100,370.500 Z M 459.400,151.700 C 475.500,183.000 484.600,218.500 484.600,256.000 484.600,293.500 475.500,329.000 459.400,360.300 454.333,357.800 449.267,355.300 444.200,352.800 450.600,340.400 455.900,327.200 459.700,313.500 454.267,311.967 448.833,310.433 443.400,308.900 448.100,292.100 450.700,274.300 450.700,256.000 450.700,237.700 448.100,219.900 443.400,203.100 448.833,201.567 454.267,200.033 459.700,198.500 455.800,184.700 450.600,171.600 444.200,159.100 449.267,156.633 454.333,154.167 459.400,151.700 459.400,151.700 459.400,151.700 459.400,151.700 Z M 52.600,151.700 C 57.667,154.200 62.733,156.700 67.800,159.200 61.400,171.600 56.100,184.800 52.200,198.600 57.633,200.133 63.067,201.667 68.500,203.200 63.800,220.000 61.200,237.700 61.200,256.100 61.200,274.400 63.800,292.200 68.500,309.000 63.067,310.533 57.633,312.067 52.200,313.600 56.100,327.300 61.300,340.500 67.800,352.900 62.733,355.400 57.667,357.900 52.600,360.400 36.600,329.000 27.500,293.600 27.500,256.000 27.500,218.400 36.600,183.000 52.600,151.700 52.600,151.700 52.600,151.700 52.600,151.700 Z M 256.000,102.400 C 263.200,102.400 270.400,102.800 276.300,103.700 273.200,129.367 270.100,155.033 267.000,180.700 286.500,183.500 303.500,193.700 315.300,208.400 335.900,192.967 356.500,177.533 377.100,162.100 384.600,171.400 393.100,186.100 397.600,197.200 373.933,207.333 350.267,217.467 326.600,227.600 330.200,236.400 332.200,246.000 332.200,256.100 332.200,265.800 330.400,275.100 327.100,283.700 350.567,293.733 374.033,303.767 397.500,313.800 393.100,325.000 384.700,339.600 377.300,349.000 356.833,333.667 336.367,318.333 315.900,303.000 304.100,318.000 286.900,328.400 267.200,331.400 270.233,356.667 273.267,381.933 276.300,407.200 264.400,409.000 247.500,409.000 235.700,407.300 238.733,382.000 241.767,356.700 244.800,331.400 225.100,328.500 207.900,318.000 196.100,303.000 175.700,318.300 155.300,333.600 134.900,348.900 127.400,339.500 118.900,324.900 114.400,313.800 137.933,303.733 161.467,293.667 185.000,283.600 181.700,275.100 179.900,265.800 179.900,256.100 179.900,246.000 181.900,236.400 185.500,227.500 161.900,217.400 138.300,207.300 114.700,197.200 119.000,186.000 127.500,171.400 134.900,162.000 155.533,177.467 176.167,192.933 196.800,208.400 208.600,193.700 225.600,183.600 245.100,180.700 242.000,155.067 238.900,129.433 235.800,103.800 241.600,102.800 248.800,102.400 256.000,102.400 256.000,102.400 256.000,102.400 256.000,102.400 Z M 267.300,27.800 C 343.100,31.500 409.200,72.100 448.000,132.100 443.267,135.200 438.533,138.300 433.800,141.400 426.100,129.500 417.300,118.400 407.500,108.300 403.467,112.233 399.433,116.167 395.400,120.100 370.700,94.800 339.200,76.100 303.800,67.200 305.200,61.733 306.600,56.267 308.000,50.800 294.500,47.400 280.600,45.300 266.200,44.600 266.567,39.000 266.933,33.400 267.300,27.800 267.300,27.800 267.300,27.800 267.300,27.800 Z M 244.300,27.800 C 244.400,27.800 244.600,27.800 244.700,27.800 245.067,33.433 245.433,39.067 245.800,44.700 231.400,45.400 217.500,47.500 204.000,50.900 205.400,56.367 206.800,61.833 208.200,67.300 172.800,76.300 141.400,94.900 116.700,120.200 112.667,116.233 108.633,112.267 104.600,108.300 94.700,118.400 85.900,129.500 78.200,141.400 73.467,138.300 68.733,135.200 64.000,132.100 102.700,72.200 168.600,31.600 244.300,27.800 244.300,27.800 244.300,27.800 244.300,27.800 Z M 256.000,7.100 C 118.600,7.100 7.100,118.600 7.100,256.000 7.100,393.400 118.600,504.900 256.000,504.900 393.400,504.900 504.900,393.400 504.900,256.000 504.900,118.600 393.400,7.100 256.000,7.100 256.000,7.100 256.000,7.100 256.000,7.100 Z " />
</svg>