<?xml version="1.0" encoding="UTF-8"?>
<svg id="Layer_2" data-name="Layer 2" xmlns="http://www.w3.org/2000/svg" viewBox="0 0 401.26079 144.00464">
  <g id="Layer_2-2" data-name="Layer 2">
    <g>
      <g>
        <path d="M260.37065,71.94995c0,10.54004-7.87988,18.53003-18.19971,18.53003s-18.2002-7.98999-18.2002-18.53003c0-10.55005,7.87988-18.53979,18.2002-18.53979s18.19971,7.98975,18.19971,18.53979Z" style="fill: #d9d9d9; stroke-width: 0px;"/>
        <path d="M140.94096,0l41.96973,72-41.96973,72h260.31982V0H140.94096ZM242.17094,112.57007c-23.41992,0-41.72998-17.87012-41.72998-40.62012,0-22.76001,18.31006-40.62988,41.72998-40.62988s41.72998,17.86987,41.72998,40.62988c0,22.75-18.31006,40.62012-41.72998,40.62012ZM341.07085,112.57007c-23.75,0-42.06006-17.87012-42.06006-40.62012,0-22.76001,18.64014-40.62988,42.72998-40.62988,6.87988,0,13.54004,1.44995,18.75,3.66992l-3.20996,22.53003c-4.43994-2.33008-9.87988-3.89014-15.1001-3.89014-11.31982,0-19.41992,7.66016-19.41992,18.32007,0,10.54004,8.1001,18.19995,19.53027,18.19995,4.76953,0,10.31982-1.32983,16.09961-4.5498l3.20996,22.52979c-6.54004,3-13.75977,4.44019-20.52979,4.44019Z" style="fill: #d9d9d9; stroke-width: 0px;"/>
      </g>
      <g>
        <polygon points="83.9487 95.57553 54.47083 144.00464 113.42657 144.00464 83.9487 95.57553" style="fill: #d9d9d9; stroke-width: 0px;"/>
        <path d="M125.92304.00464H41.97435L0,72.70415l41.1723,71.30048,11.04377-18.15165-30.66915-53.14883,31.19155-54.04425h62.42045l31.19155,54.04425-30.66915,53.14883,11.04377,18.15165,41.1723-71.30048L125.92304.00464Z" style="fill: #d9d9d9; stroke-width: 0px;"/>
        <path d="M107.97669,31.10293h-48.05598l-24.00932,41.60122,23.6921,41.04158,11.044-18.17021-13.18917-22.87137,13.24519-22.94595h26.49039l13.24519,22.94595-13.18917,22.87137,11.044,18.17021,23.6921-41.04158-24.00932-41.60122Z" style="fill: #1a98ff; stroke-width: 0px;"/>
        <polygon points="77.71342 61.90433 71.47814 72.70415 77.71341 83.50397 90.18397 83.50398 96.41925 72.70416 90.18398 61.90434 77.71342 61.90433" style="fill: #d9d9d9; stroke-width: 0px;"/>
      </g>
    </g>
  </g>
</svg>