<?xml version="1.0" encoding="UTF-8"?>
<svg id="Layer_2" data-name="Layer 2" xmlns="http://www.w3.org/2000/svg" viewBox="0 0 401.26079 144.00488">
  <g id="Layer_2-2" data-name="Layer 2">
    <g>
      <path d="M309.99077,55.08008l-6.43994,23.30005h12.77002l-6.33008-23.30005ZM309.99077,55.08008l-6.43994,23.30005h12.77002l-6.33008-23.30005ZM309.99077,55.08008l-6.43994,23.30005h12.77002l-6.33008-23.30005ZM309.99077,55.08008l-6.43994,23.30005h12.77002l-6.33008-23.30005ZM309.99077,55.08008l-6.43994,23.30005h12.77002l-6.33008-23.30005ZM309.99077,55.08008l-6.43994,23.30005h12.77002l-6.33008-23.30005ZM140.94096,0l41.96973,72-41.96973,72h260.31982V0H140.94096ZM228.74077,112.57007c-10.43018,0-19.41992-3.33008-26.97021-7.55005l2.89014-20.75c9.20996,6.20996,17.31006,8.65015,23.64014,8.65015,5.20996,0,6.66016-2.33008,6.66016-4.32007,0-2.34009-1.22021-4.21997-7.88037-6.44019l-4.43994-1.43994c-13.31982-4.33008-19.20996-13.42993-19.20996-24.41992,0-14.20996,10.99023-24.97998,28.08984-24.97998,7.1001,0,14.54004,1.66992,23.08008,5.21997l-2.87988,20.41992c-8.33008-3.98999-15.42969-6.20996-20.75977-6.20996-4.22021,0-5.77002,2-5.77002,4.21997,0,2.33008,1.65967,4.20996,7.31982,5.98999l4.43994,1.44019c15.20996,5,20.43018,14.75977,20.43018,24.52979,0,12.43018-8.22021,25.64014-28.64014,25.64014ZM325.09087,110.79004l-3.5498-12.86987h-23.2002l-3.5498,12.86987h-24.64014l26.07959-77.68994h27.41016l26.08984,77.68994h-24.63965ZM303.55083,78.38013h12.77002l-6.33008-23.30005-6.43994,23.30005ZM309.99077,55.08008l-6.43994,23.30005h12.77002l-6.33008-23.30005ZM309.99077,55.08008l-6.43994,23.30005h12.77002l-6.33008-23.30005ZM309.99077,55.08008l-6.43994,23.30005h12.77002l-6.33008-23.30005ZM309.99077,55.08008l-6.43994,23.30005h12.77002l-6.33008-23.30005ZM309.99077,55.08008l-6.43994,23.30005h12.77002l-6.33008-23.30005ZM309.99077,55.08008l-6.43994,23.30005h12.77002l-6.33008-23.30005Z" style="fill: #d9d9d9; stroke-width: 0px;"/>
      <g>
        <polygon points="83.9487 95.57577 54.47083 144.00488 113.42657 144.00488 83.9487 95.57577" style="fill: #d9d9d9; stroke-width: 0px;"/>
        <path d="M125.92304.00488H41.97435L0,72.7044l41.1723,71.30048,11.04377-18.15165-30.66915-53.14883,31.19155-54.04425h62.42045l31.19155,54.04425-30.66915,53.14883,11.04377,18.15165,41.1723-71.30048L125.92304.00488Z" style="fill: #d9d9d9; stroke-width: 0px;"/>
        <path d="M107.97669,31.10318h-48.05598l-24.00932,41.60122,23.6921,41.04158,11.044-18.17021-13.18917-22.87137,13.24519-22.94595h26.49039l13.24519,22.94595-13.18917,22.87137,11.044,18.17021,23.6921-41.04158-24.00932-41.60122Z" style="fill: #59e852; stroke-width: 0px;"/>
        <polygon points="77.71342 61.90458 71.47814 72.70439 77.71341 83.50422 90.18397 83.50422 96.41925 72.7044 90.18398 61.90458 77.71342 61.90458" style="fill: #d9d9d9; stroke-width: 0px;"/>
      </g>
    </g>
  </g>
</svg>