<?xml version="1.0" encoding="UTF-8"?>
<svg id="Layer_2" data-name="Layer 2" xmlns="http://www.w3.org/2000/svg" viewBox="0 0 401.26079 144.00439">
  <g id="Layer_2-2" data-name="Layer 2">
    <g>
      <g>
        <polygon points="238.84087 55.07983 245.17094 78.37988 232.40093 78.37988 238.84087 55.07983" style="fill: #d9d9d9; stroke-width: 0px;"/>
        <path d="M140.94096,0l41.96973,72-41.96973,72h260.31982V0H140.94096ZM253.94096,110.78979l-3.56006-12.86987h-23.18994l-3.55029,12.86987h-24.6499l26.08984-77.68994h27.41016l26.08984,77.68994h-24.63965ZM319.43071,112.56982c-10.43994,0-19.42969-3.33008-26.96973-7.5498l2.87988-20.75c9.20996,6.20996,17.31982,8.6499,23.63965,8.6499,5.22021,0,6.66016-2.33008,6.66016-4.32007,0-2.34009-1.21973-4.21997-7.87988-6.43994l-4.43994-1.44995c-13.31982-4.32007-19.2002-13.42017-19.2002-24.41016,0-14.20996,10.99023-24.97998,28.08008-24.97998,7.10986,0,14.54004,1.66992,23.09033,5.21997l-2.89014,20.42017c-8.32031-3.99023-15.43018-6.20996-20.75-6.20996-4.22021,0-5.77002,2-5.77002,4.20996,0,2.33984,1.66016,4.21997,7.31982,6l4.43994,1.43994c15.20996,5,20.41992,14.76001,20.41992,24.53003,0,12.42993-8.20996,25.63989-28.62988,25.63989Z" style="fill: #d9d9d9; stroke-width: 0px;"/>
      </g>
      <g>
        <polygon points="83.9487 95.57528 54.47083 144.00439 113.42657 144.00439 83.9487 95.57528" style="fill: #d9d9d9; stroke-width: 0px;"/>
        <path d="M125.92304.00439H41.97435L0,72.70391l41.1723,71.30048,11.04377-18.15165-30.66915-53.14883,31.19155-54.04425h62.42045l31.19155,54.04425-30.66915,53.14883,11.04377,18.15165,41.1723-71.30048L125.92304.00439Z" style="fill: #d9d9d9; stroke-width: 0px;"/>
        <path d="M107.97669,31.10269h-48.05598l-24.00932,41.60122,23.6921,41.04158,11.044-18.17021-13.18917-22.87137,13.24519-22.94595h26.49039l13.24519,22.94595-13.18917,22.87137,11.044,18.17021,23.6921-41.04158-24.00932-41.60122Z" style="fill: #e93f5c; stroke-width: 0px;"/>
        <polygon points="77.71342 61.90409 71.47814 72.70391 77.71341 83.50373 90.18397 83.50373 96.41925 72.70391 90.18398 61.90409 77.71342 61.90409" style="fill: #d9d9d9; stroke-width: 0px;"/>
      </g>
    </g>
  </g>
</svg>