<?xml version="1.0" encoding="UTF-8"?>
<svg id="Layer_2" data-name="Layer 2" xmlns="http://www.w3.org/2000/svg" viewBox="0 0 401.26079 144.00488">
  <g id="Layer_2-2" data-name="Layer 2">
    <g>
      <path d="M332.86089,55.07495l-6.43994,23.30005h12.75977l-6.31982-23.30005ZM332.86089,55.07495l-6.43994,23.30005h12.75977l-6.31982-23.30005ZM332.86089,55.07495l-6.43994,23.30005h12.75977l-6.31982-23.30005ZM332.86089,55.07495l-6.43994,23.30005h12.75977l-6.31982-23.30005ZM332.86089,55.07495l-6.43994,23.30005h12.75977l-6.31982-23.30005ZM332.86089,55.07495l-6.43994,23.30005h12.75977l-6.31982-23.30005ZM332.86089,55.07495l-6.43994,23.30005h12.75977l-6.31982-23.30005ZM332.86089,55.07495l-6.43994,23.30005h12.75977l-6.31982-23.30005ZM332.86089,55.07495l-6.43994,23.30005h12.75977l-6.31982-23.30005ZM332.86089,55.07495l-6.43994,23.30005h12.75977l-6.31982-23.30005ZM140.94096.00488l41.96973,72-41.96973,72h260.31982V.00488H140.94096ZM276.02055,110.78491h-21.41992l-28.08008-38.29004v38.29004h-22.75V33.09497h21.64014l27.85986,37.8501v-37.8501h22.75v77.68994ZM347.95073,110.78491l-3.5498-12.87012h-23.2002l-3.5498,12.87012h-24.64014l26.08008-77.68994h27.41992l26.08008,77.68994h-24.64014ZM326.42094,78.375h12.75977l-6.31982-23.30005-6.43994,23.30005ZM332.86089,55.07495l-6.43994,23.30005h12.75977l-6.31982-23.30005ZM332.86089,55.07495l-6.43994,23.30005h12.75977l-6.31982-23.30005ZM332.86089,55.07495l-6.43994,23.30005h12.75977l-6.31982-23.30005ZM332.86089,55.07495l-6.43994,23.30005h12.75977l-6.31982-23.30005ZM332.86089,55.07495l-6.43994,23.30005h12.75977l-6.31982-23.30005ZM332.86089,55.07495l-6.43994,23.30005h12.75977l-6.31982-23.30005ZM332.86089,55.07495l-6.43994,23.30005h12.75977l-6.31982-23.30005ZM332.86089,55.07495l-6.43994,23.30005h12.75977l-6.31982-23.30005ZM332.86089,55.07495l-6.43994,23.30005h12.75977l-6.31982-23.30005ZM332.86089,55.07495l-6.43994,23.30005h12.75977l-6.31982-23.30005Z" style="fill: #d9d9d9; stroke-width: 0px;"/>
      <g>
        <polygon points="83.9487 95.57089 54.47083 144 113.42657 144 83.9487 95.57089" style="fill: #d9d9d9; stroke-width: 0px;"/>
        <path d="M125.92304,0H41.97435L0,72.69952l41.1723,71.30048,11.04377-18.15165-30.66915-53.14883,31.19155-54.04425h62.42045l31.19155,54.04425-30.66915,53.14883,11.04377,18.15165,41.1723-71.30048L125.92304,0Z" style="fill: #d9d9d9; stroke-width: 0px;"/>
        <path d="M107.97669,31.0983h-48.05598l-24.00932,41.60122,23.6921,41.04158,11.044-18.17021-13.18917-22.87137,13.24519-22.94595h26.49039l13.24519,22.94595-13.18917,22.87137,11.044,18.17021,23.6921-41.04158-24.00932-41.60122Z" style="fill: #f9582d; stroke-width: 0px;"/>
        <polygon points="77.71342 61.89969 71.47814 72.69951 77.71341 83.49933 90.18397 83.49934 96.41925 72.69952 90.18398 61.8997 77.71342 61.89969" style="fill: #d9d9d9; stroke-width: 0px;"/>
      </g>
    </g>
  </g>
</svg>