<?xml version="1.0" encoding="UTF-8"?>
<svg id="Layer_2" data-name="Layer 2" xmlns="http://www.w3.org/2000/svg" viewBox="0 0 401.26079 144.00488">
  <g id="Layer_2-2" data-name="Layer 2">
    <g>
      <path d="M140.94096,0l41.96973,72-41.96973,72h260.31982V0H140.94096ZM251.83061,110.79004h-48.06006V33.09985h47.06006l2.77002,20.09009h-27.08008v8.32007h21.76025v20.08984h-21.76025v9.1001h28.08008l-2.77002,20.09009ZM340.29106,80.59985c0,18.87012-13.09033,31.64014-33.52051,31.64014-20.41992,0-33.51953-12.88013-33.51953-31.96997v-47.17017h23.08984v46.28003c0,6.77002,4.10986,11.1001,10.42969,11.1001,6.33008,0,10.44043-4.33008,10.44043-11.1001v-46.28003h23.08008v47.5Z" style="fill: #d9d9d9; stroke-width: 0px;"/>
      <g>
        <polygon points="83.9487 95.57577 54.47083 144.00488 113.42657 144.00488 83.9487 95.57577" style="fill: #d9d9d9; stroke-width: 0px;"/>
        <path d="M125.92304.00488H41.97435L0,72.7044l41.1723,71.30048,11.04377-18.15165-30.66915-53.14883,31.19155-54.04425h62.42045l31.19155,54.04425-30.66915,53.14883,11.04377,18.15165,41.1723-71.30048L125.92304.00488Z" style="fill: #d9d9d9; stroke-width: 0px;"/>
        <path d="M107.97669,31.10318h-48.05598l-24.00932,41.60122,23.6921,41.04158,11.044-18.17021-13.18917-22.87137,13.24519-22.94595h26.49039l13.24519,22.94595-13.18917,22.87137,11.044,18.17021,23.6921-41.04158-24.00932-41.60122Z" style="fill: #fc0; stroke-width: 0px;"/>
        <polygon points="77.71342 61.90458 71.47814 72.70439 77.71341 83.50422 90.18397 83.50422 96.41925 72.7044 90.18398 61.90458 77.71342 61.90458" style="fill: #d9d9d9; stroke-width: 0px;"/>
      </g>
    </g>
  </g>
</svg>