<?xml version="1.0" encoding="UTF-8"?>
<svg id="Layer_2" data-name="Layer 2" xmlns="http://www.w3.org/2000/svg" viewBox="0 0 401.26079 144.00488">
  <g id="Layer_2-2" data-name="Layer 2">
    <g>
      <g>
        <polygon points="238.84087 55.08008 245.17094 78.38013 232.40093 78.38013 238.84087 55.08008" style="fill: #d9d9d9; stroke-width: 0px;"/>
        <path d="M140.94096,0l41.96973,72-41.96973,72h260.31982V0H140.94096ZM253.94096,110.79004l-3.56006-12.86987h-23.18994l-3.55029,12.86987h-24.6499l26.08984-77.68994h27.41016l26.08984,77.68994h-24.63965ZM339.29106,62.96021v20.75h-20.64014v27.07983h-23.09033V33.1001h45.84033l2.89014,20.75h-25.64014v9.11011h20.64014Z" style="fill: #d9d9d9; stroke-width: 0px;"/>
      </g>
      <g>
        <polygon points="83.9487 95.57577 54.47083 144.00488 113.42657 144.00488 83.9487 95.57577" style="fill: #d9d9d9; stroke-width: 0px;"/>
        <path d="M125.92304.00488H41.97435L0,72.7044l41.1723,71.30048,11.04377-18.15165-30.66915-53.14883,31.19155-54.04425h62.42045l31.19155,54.04425-30.66915,53.14883,11.04377,18.15165,41.1723-71.30048L125.92304.00488Z" style="fill: #d9d9d9; stroke-width: 0px;"/>
        <path d="M107.97669,31.10318h-48.05598l-24.00932,41.60122,23.6921,41.04158,11.044-18.17021-13.18917-22.87137,13.24519-22.94595h26.49039l13.24519,22.94595-13.18917,22.87137,11.044,18.17021,23.6921-41.04158-24.00932-41.60122Z" style="fill: #dcfd56; stroke-width: 0px;"/>
        <polygon points="77.71342 61.90458 71.47814 72.70439 77.71341 83.50422 90.18397 83.50422 96.41925 72.7044 90.18398 61.90458 77.71342 61.90458" style="fill: #d9d9d9; stroke-width: 0px;"/>
      </g>
    </g>
  </g>
</svg>