<svg width="23" height="48" viewBox="0 0 23 48" fill="none" xmlns="http://www.w3.org/2000/svg">
    <mask id="path-1-inside-1_109_203" fill="white">
        <path d="M0.407959 25.5116C-0.136925 24.5775 -0.136925 23.4224 0.407961 22.4884L12.658 1.48835C13.1956 0.566699 14.1823 -3.12706e-05 15.2493 -3.11773e-05L19.7914 -3.07802e-05C22.1067 -3.05778e-05 23.5493 2.51161 22.3827 4.51158L11.8962 22.4884C11.3514 23.4224 11.3514 24.5775 11.8962 25.5116L22.3827 43.4884C23.5493 45.4883 22.1067 48 19.7914 48L15.2493 48C14.1823 48 13.1956 47.4332 12.658 46.5116L0.407959 25.5116Z"/>
    </mask>
    <path d="M0.407959 25.5116C-0.136925 24.5775 -0.136925 23.4224 0.407961 22.4884L12.658 1.48835C13.1956 0.566699 14.1823 -3.12706e-05 15.2493 -3.11773e-05L19.7914 -3.07802e-05C22.1067 -3.05778e-05 23.5493 2.51161 22.3827 4.51158L11.8962 22.4884C11.3514 23.4224 11.3514 24.5775 11.8962 25.5116L22.3827 43.4884C23.5493 45.4883 22.1067 48 19.7914 48L15.2493 48C14.1823 48 13.1956 47.4332 12.658 46.5116L0.407959 25.5116Z" fill="black" fill-opacity="0.5"/>
    <path d="M11.8962 22.4884L13.6238 23.4961L11.8962 22.4884ZM11.8962 25.5116L13.6238 24.5038L11.8962 25.5116ZM12.658 1.48835L14.3855 2.4961L12.658 1.48835ZM0.407961 22.4884L2.13552 23.4961L0.407961 22.4884ZM0.407959 25.5116L-1.3196 26.5193L0.407959 25.5116ZM0.407961 22.4884L2.13552 23.4961L14.3855 2.4961L12.658 1.48835L10.9304 0.480609L-1.3196 21.4806L0.407961 22.4884ZM15.2493 -3.11773e-05L15.2493 1.99997L19.7914 1.99997L19.7914 -3.07802e-05L19.7914 -2.00003L15.2493 -2.00003L15.2493 -3.11773e-05ZM22.3827 4.51158L20.6551 3.50384L10.1687 21.4806L11.8962 22.4884L13.6238 23.4961L24.1103 5.51933L22.3827 4.51158ZM11.8962 25.5116L10.1687 26.5193L20.6551 44.4961L22.3827 43.4884L24.1103 42.4806L13.6238 24.5038L11.8962 25.5116ZM19.7914 48L19.7914 46L15.2493 46L15.2493 48L15.2493 50L19.7914 50L19.7914 48ZM12.658 46.5116L14.3855 45.5038L2.13552 24.5038L0.407959 25.5116L-1.3196 26.5193L10.9304 47.5193L12.658 46.5116ZM15.2493 48L15.2493 46C14.8936 46 14.5647 45.8111 14.3855 45.5038L12.658 46.5116L10.9304 47.5193C11.8265 49.0554 13.471 50 15.2493 50L15.2493 48ZM22.3827 43.4884L20.6551 44.4961C21.044 45.1628 20.5631 46 19.7914 46L19.7914 48L19.7914 50C23.6503 50 26.0547 45.8139 24.1103 42.4806L22.3827 43.4884ZM11.8962 22.4884L10.1687 21.4806C9.26054 23.0374 9.26054 24.9625 10.1687 26.5193L11.8962 25.5116L13.6238 24.5038C13.4422 24.1925 13.4422 23.8075 13.6238 23.4961L11.8962 22.4884ZM19.7914 -3.07802e-05L19.7914 1.99997C20.5631 1.99997 21.044 2.83718 20.6551 3.50384L22.3827 4.51158L24.1103 5.51933C26.0547 2.18604 23.6503 -2.00003 19.7914 -2.00003L19.7914 -3.07802e-05ZM12.658 1.48835L14.3855 2.4961C14.5647 2.18888 14.8936 1.99997 15.2493 1.99997L15.2493 -3.11773e-05L15.2493 -2.00003C13.471 -2.00003 11.8265 -1.05548 10.9304 0.480609L12.658 1.48835ZM0.407961 22.4884L-1.3196 21.4806C-2.22774 23.0374 -2.22774 24.9625 -1.3196 26.5193L0.407959 25.5116L2.13552 24.5038C1.95389 24.1925 1.95389 23.8075 2.13552 23.4961L0.407961 22.4884Z" fill="currentColor" mask="url(#path-1-inside-1_109_203)"/>
</svg>
