<svg width="33" height="48" viewBox="0 0 33 48" fill="none" xmlns="http://www.w3.org/2000/svg">
    <mask id="path-1-inside-1_109_192" fill="white">
        <path d="M0.408815 25.5116C-0.136072 24.5775 -0.136068 23.4224 0.408816 22.4884L12.6588 1.48835C13.1964 0.566698 14.1832 -3.21448e-05 15.2502 -3.20515e-05L29.7922 -3.07802e-05C32.1076 -3.05778e-05 33.5502 2.51161 32.3835 4.51158L21.8971 22.4884C21.3522 23.4224 21.3522 24.5775 21.8971 25.5116L32.3835 43.4884C33.5502 45.4883 32.1076 48 29.7922 48L15.2501 48C14.1831 48 13.1964 47.4332 12.6588 46.5116L0.408815 25.5116Z"/>
    </mask>
    <path d="M0.408815 25.5116C-0.136072 24.5775 -0.136068 23.4224 0.408816 22.4884L12.6588 1.48835C13.1964 0.566698 14.1832 -3.21448e-05 15.2502 -3.20515e-05L29.7922 -3.07802e-05C32.1076 -3.05778e-05 33.5502 2.51161 32.3835 4.51158L21.8971 22.4884C21.3522 23.4224 21.3522 24.5775 21.8971 25.5116L32.3835 43.4884C33.5502 45.4883 32.1076 48 29.7922 48L15.2501 48C14.1831 48 13.1964 47.4332 12.6588 46.5116L0.408815 25.5116Z" fill="black" fill-opacity="0.5"/>
    <path d="M21.8971 22.4884L23.6247 23.4961L21.8971 22.4884ZM21.8971 25.5116L23.6247 24.5038L21.8971 25.5116ZM29.7922 -3.07802e-05L29.7922 -2.00003L29.7922 -3.07802e-05ZM15.2502 -3.20515e-05L15.2502 -2.00003L15.2502 -3.20515e-05ZM0.408816 22.4884L2.13637 23.4961L0.408816 22.4884ZM0.408815 25.5116L2.13637 24.5038L0.408815 25.5116ZM0.408816 22.4884L2.13637 23.4961L14.3864 2.4961L12.6588 1.48835L10.9313 0.480608L-1.31874 21.4806L0.408816 22.4884ZM15.2502 -3.20515e-05L15.2502 1.99997L29.7922 1.99997L29.7922 -3.07802e-05L29.7922 -2.00003L15.2502 -2.00003L15.2502 -3.20515e-05ZM32.3835 4.51158L30.656 3.50384L20.1695 21.4806L21.8971 22.4884L23.6247 23.4961L34.1111 5.51933L32.3835 4.51158ZM21.8971 25.5116L20.1695 26.5193L30.656 44.4961L32.3835 43.4884L34.1111 42.4806L23.6247 24.5038L21.8971 25.5116ZM29.7922 48L29.7922 46L15.2501 46L15.2501 48L15.2501 50L29.7922 50L29.7922 48ZM12.6588 46.5116L14.3864 45.5038L2.13637 24.5038L0.408815 25.5116L-1.31874 26.5193L10.9313 47.5193L12.6588 46.5116ZM15.2501 48L15.2501 46C14.8945 46 14.5656 45.8111 14.3864 45.5038L12.6588 46.5116L10.9313 47.5193C11.8273 49.0554 13.4718 50 15.2501 50L15.2501 48ZM32.3835 43.4884L30.656 44.4961C31.0449 45.1628 30.564 46 29.7922 46L29.7922 48L29.7922 50C33.6512 50 36.0555 45.8139 34.1111 42.4806L32.3835 43.4884ZM21.8971 22.4884L20.1695 21.4806C19.2614 23.0374 19.2614 24.9625 20.1695 26.5193L21.8971 25.5116L23.6247 24.5038C23.443 24.1925 23.443 23.8075 23.6247 23.4961L21.8971 22.4884ZM29.7922 -3.07802e-05L29.7922 1.99997C30.564 1.99997 31.0449 2.83718 30.656 3.50384L32.3835 4.51158L34.1111 5.51933C36.0555 2.18604 33.6512 -2.00003 29.7922 -2.00003L29.7922 -3.07802e-05ZM12.6588 1.48835L14.3864 2.4961C14.5656 2.18888 14.8945 1.99997 15.2502 1.99997L15.2502 -3.20515e-05L15.2502 -2.00003C13.4718 -2.00003 11.8273 -1.05548 10.9313 0.480608L12.6588 1.48835ZM0.408816 22.4884L-1.31874 21.4806C-2.22688 23.0374 -2.22688 24.9625 -1.31874 26.5193L0.408815 25.5116L2.13637 24.5038C1.95474 24.1925 1.95474 23.8075 2.13637 23.4961L0.408816 22.4884Z" fill="currentColor" mask="url(#path-1-inside-1_109_192)"/>
</svg>
