<svg width="22" height="23" viewBox="0 0 22 23" fill="none" xmlns="http://www.w3.org/2000/svg">
    <path fill-rule="evenodd" clip-rule="evenodd" d="M15.0784 2.89769L12.6377 4.30685V7.50379L14.0221 8.30303L16.7907 6.70459V3.88627H19.5593V6.70457L22 8.11374L20.6157 10.5114L18.175 9.10228L15.4064 10.7007V12.2992L18.175 13.8977L20.6157 12.4885L22 14.8861L19.5593 16.2954V19.1137H16.7907V16.2954L14.022 14.6969L12.6377 15.4961V18.693L15.0784 20.1022L13.6941 22.4999L11.2534 21.0908L8.81267 22.5L7.42836 20.1022L9.86909 18.6931V15.4961L8.48481 14.6969L5.71616 16.2954V19.1137H2.94753V16.2954L0.506775 14.8863L1.89109 12.4885L4.33182 13.8977L7.10047 12.2992V10.7007L4.33187 9.10228L1.89113 10.5114L0.506818 8.11374L2.94753 6.70459V3.88626H5.71616V6.70457L8.48478 8.30303L9.86909 7.5038V4.30688L7.42837 2.89772L8.81268 0.500025L11.2534 1.90917L13.6941 0.5L15.0784 2.89769ZM12.6377 11.5C12.6377 12.2645 12.0179 12.8843 11.2534 12.8843C10.4889 12.8843 9.86909 12.2645 9.86909 11.5C9.86909 10.7354 10.4889 10.1157 11.2534 10.1157C12.0179 10.1157 12.6377 10.7354 12.6377 11.5Z" fill="#D9D9D9"/>
</svg>
