<svg width="18" height="16" viewBox="0 0 18 16" fill="none" xmlns="http://www.w3.org/2000/svg">
    <path d="M8.58215 2.68191C8.58215 4.16309 7.38141 5.36382 5.90023 5.36382C4.41906 5.36382 3.21832 4.16309 3.21832 2.68191C3.21832 1.20073 4.41906 0 5.90023 0C7.38141 0 8.58215 1.20073 8.58215 2.68191Z" fill="#D9D9D9"/>
    <path d="M3.21836 7.50934C1.44095 7.50934 6.10352e-05 8.95022 6.10352e-05 10.7276V15.0187H8.58218V7.50934H3.21836Z" fill="#D9D9D9"/>
    <path d="M13.946 7.50934H10.7277V15.0187H17.1643V10.7276C17.1643 8.95022 15.7235 7.50934 13.946 7.50934Z" fill="#D9D9D9"/>
    <path d="M12.8733 5.36378C14.0582 5.36378 15.0188 4.4032 15.0188 3.21825C15.0188 2.03331 14.0582 1.07272 12.8733 1.07272C11.6883 1.07272 10.7277 2.03331 10.7277 3.21825C10.7277 4.4032 11.6883 5.36378 12.8733 5.36378Z" fill="#D9D9D9"/>
</svg>
