<svg width="21" height="21" viewBox="0 0 21 21" fill="none" xmlns="http://www.w3.org/2000/svg">
    <path d="M10.5 11.8125C11.2249 11.8125 11.8125 11.2249 11.8125 10.5C11.8125 9.77513 11.2249 9.1875 10.5 9.1875C9.77513 9.1875 9.1875 9.77513 9.1875 10.5C9.1875 11.2249 9.77513 11.8125 10.5 11.8125Z" fill="#D9D9D9"/>
    <path fill-rule="evenodd" clip-rule="evenodd" d="M21 10.5C21 16.299 16.299 21 10.5 21C4.70101 21 0 16.299 0 10.5C0 4.70101 4.70101 0 10.5 0C16.299 0 21 4.70101 21 10.5ZM7.875 7.875L5.25 14.4375L6.5625 15.75L13.125 13.125L15.75 6.5625L14.4375 5.25L7.875 7.875Z" fill="#D9D9D9"/>
</svg>
