<svg width="14" height="14" viewBox="0 0 14 14" fill="none" xmlns="http://www.w3.org/2000/svg">
    <path d="M7 7.875C8.20812 7.875 9.1875 6.89562 9.1875 5.6875C9.1875 4.47938 8.20812 3.5 7 3.5C5.79188 3.5 4.8125 4.47938 4.8125 5.6875C4.8125 6.89562 5.79188 7.875 7 7.875Z" fill="#D9D9D9"/>
    <path fill-rule="evenodd" clip-rule="evenodd" d="M7 14C10.866 14 14 10.866 14 7C14 3.134 10.866 0 7 0C3.134 0 0 3.134 0 7C0 10.866 3.134 14 7 14ZM5.25 8.75C3.88598 8.75 1.91713 8.89978 1.77773 7.5429C1.7594 7.36443 1.75 7.18331 1.75 7C1.75 4.1005 4.1005 1.75 7 1.75C9.89949 1.75 12.25 4.1005 12.25 7C12.25 7.18332 12.2406 7.36445 12.2223 7.54293C12.0829 8.89982 10.114 8.75 8.75 8.75H5.25Z" fill="#D9D9D9"/>
</svg>
