<svg xmlns="http://www.w3.org/2000/svg" viewBox="0 0 90 77.19"><defs><style>.cls-1{fill:#fff;}</style></defs><g id="Layer_2" data-name="Layer 2"><g id="Layer_1-2" data-name="Layer 1"><polygon class="cls-1" points="45 51.23 35.12 67.46 54.88 67.46 45 51.23"/><path class="cls-1" d="M67.5,0h-45L0,39,22.07,77.19,28,67.46,11.55,39,28.27,10H61.73L78.45,39,62,67.46l5.92,9.73L90,39Z"/><path class="cls-1" d="M57.88,16.67H32.12L19.25,39,32,61l5.92-9.74L30.8,39l7.1-12.3H52.1L59.2,39,52.13,51.23,58.05,61l12.7-22Z"/><polygon class="cls-1" points="41.66 33.18 38.31 38.97 41.66 44.76 48.34 44.76 51.69 38.97 48.34 33.18 41.66 33.18"/></g></g></svg>