<?xml version="1.0" encoding="UTF-8"?>
<svg id="Layer_2" data-name="Layer 2" xmlns="http://www.w3.org/2000/svg" viewBox="0 0 1203.44 177.05">
    <g id="Layer_1-2" data-name="Layer 1">
        <g>
            <g>
                <polygon points="55.72 169.06 9.23 88.52 55.72 7.99 568.4 7.99 614.9 88.52 568.4 169.06 55.72 169.06"/>
                <path d="M563.79,15.98l41.88,72.54-41.88,72.54H60.34L18.46,88.52,60.34,15.98h503.45M573.02,0H51.11L0,88.52l51.11,88.52h521.91l51.11-88.52L573.02,0h0Z" fill="#f2ae09"/>
            </g>
            <g>
                <polygon points="610.96 169.06 657.46 88.52 610.96 7.99 1147.72 7.99 1194.21 88.52 1147.72 169.06 610.96 169.06" fill="#001615"/>
                <path d="M1143.1,15.98l41.88,72.54-41.88,72.54h-518.3l37.27-64.55,4.61-7.99-4.61-7.99-37.27-64.55h518.3M1152.33,0h-555.21l51.11,88.52-51.11,88.52h555.21l51.11-88.52L1152.33,0h0Z" fill="#00cecb"/>
            </g>
            <g>
                <path d="M753.23,89.26c0,5.17-.21,9.78-.62,13.82-.42,4.04-1.41,7.48-2.99,10.3-1.58,2.82-3.89,4.96-6.96,6.42-3.06,1.46-7.21,2.18-12.44,2.18s-9.07-.73-12.04-2.18c-2.97-1.46-5.22-3.58-6.73-6.38-1.52-2.79-2.48-6.23-2.9-10.3-.42-4.07-.62-8.69-.62-13.87s.19-10.15.58-14.4c.39-4.25,1.34-7.86,2.85-10.83,1.52-2.97,3.77-5.25,6.78-6.82,3-1.58,7.12-2.36,12.35-2.36s9.54.77,12.57,2.32c3.03,1.55,5.31,3.79,6.82,6.73s2.45,6.55,2.81,10.83.54,9.13.54,14.53ZM739.41,87.93c0-3.68-.04-6.98-.13-9.9-.09-2.91-.4-5.39-.94-7.45-.54-2.05-1.41-3.61-2.63-4.68-1.22-1.07-2.96-1.6-5.22-1.6s-4,.57-5.22,1.69c-1.22,1.13-2.1,2.75-2.63,4.86-.54,2.11-.85,4.64-.94,7.58-.09,2.94-.13,6.23-.13,9.85,0,3.98.04,7.48.13,10.48.09,3,.42,5.53.98,7.58.56,2.05,1.44,3.6,2.63,4.64,1.19,1.04,2.91,1.56,5.17,1.56s3.91-.54,5.13-1.61c1.22-1.07,2.11-2.64,2.67-4.73.56-2.08.89-4.65.98-7.71.09-3.06.13-6.58.13-10.57Z" fill="#00cecb"/>
                <path d="M804.06,75.09c0,4.16-.49,7.51-1.47,10.03-.98,2.53-2.4,4.49-4.27,5.89-1.87,1.4-4.15,2.32-6.84,2.76-2.7.45-5.73.67-9.11.67h-6.49v26.22h-13.46V56.18h20.91c3.56,0,6.64.31,9.25.94,2.61.62,4.76,1.68,6.45,3.17,1.69,1.49,2.95,3.43,3.78,5.84.83,2.41,1.25,5.4,1.25,8.96ZM790.6,75.09c0-3.62-.85-6.11-2.54-7.45-1.69-1.34-4.21-2.01-7.54-2.01h-4.73v19.35h4.46c3.39,0,5.96-.7,7.71-2.09,1.75-1.4,2.63-4,2.63-7.8Z" fill="#00cecb"/>
                <path d="M811.55,120.65V56.18h35.22v9.45h-21.76v17.03h19.88v9.27h-19.88v19.26h22.29v9.45h-35.76Z" fill="#00cecb"/>
                <path d="M881.01,120.65l-14.27-53.32v53.32h-11.5V56.18h19.88l14.27,53.41v-53.41h11.5v64.47h-19.88Z" fill="#00cecb"/>
                <path d="M975.62,102.91c0,3.87-.55,6.96-1.65,9.27-1.1,2.32-2.65,4.1-4.64,5.35-1.99,1.25-4.36,2.08-7.09,2.5-2.74.42-5.74.62-9.01.62h-19.35V56.18h22.2c2.68,0,5.16.22,7.45.67,2.29.45,4.25,1.26,5.88,2.45,1.63,1.19,2.93,2.82,3.88,4.9.95,2.08,1.43,4.73,1.43,7.94,0,4.16-.88,7.43-2.63,9.81-1.75,2.38-4.59,3.98-8.52,4.81,4.52.77,7.65,2.47,9.41,5.08,1.75,2.62,2.63,6.3,2.63,11.06ZM961.71,73.97c0-1.71-.24-3.12-.71-4.21s-1.14-1.95-2.01-2.57c-.86-.62-1.87-1.04-3.03-1.24-1.16-.21-2.45-.31-3.88-.31h-4.99v17.12h4.73c1.66,0,3.12-.13,4.37-.4,1.25-.27,2.29-.72,3.12-1.38.83-.65,1.44-1.55,1.83-2.71.39-1.15.58-2.59.58-4.3ZM962.24,101.35c0-3.55-.82-6.02-2.45-7.41-1.64-1.39-4.3-2.09-7.98-2.09h-4.73v19.35h4.73c1.49,0,2.85-.12,4.1-.36,1.25-.24,2.35-.7,3.3-1.38.95-.68,1.69-1.67,2.23-2.97.54-1.3.8-3.02.8-5.15Z" fill="#00cecb"/>
                <path d="M984.45,120.65V56.18h35.22v9.45h-21.76v17.03h19.88v9.27h-19.88v19.26h22.29v9.45h-35.76Z" fill="#00cecb"/>
                <path d="M1054.89,65.81v54.84h-13.46v-54.84h-14.62v-9.63h42.62v9.63h-14.53Z" fill="#00cecb"/>
                <path d="M1104.2,120.65l-3.57-14.27h-18.64l-3.57,14.27h-13.55l17.66-64.47h18.01l17.66,64.47h-14ZM1091.09,66.35l-6.87,30.58h14l-7.13-30.58Z" fill="#00cecb"/>
            </g>
            <polygon points="62.1 47.57 79.6 143.74 70.34 143.74 38.46 88.52 62.1 47.57" fill="#fff"/>
            <polygon points="137.72 39.57 83.48 75.71 75.77 33.31 134.1 33.31 137.72 39.57" fill="#fff"/>
            <polygon points="88.13 101.26 144.65 125.48 134.1 143.74 95.85 143.74 88.13 101.26" fill="#fff"/>
            <polygon points="165.98 88.52 152.69 111.55 95.4 87 145.73 53.45 165.98 88.52" fill="#fff"/>
            <g>
                <path d="M199.66,37.51h15.93v102.82h-15.93V37.51ZM216.15,84.73l27.87-47.21h18.06l-29.86,46.5,31.14,56.31h-18.34l-28.87-55.6Z" fill="#fff"/>
                <path d="M306.59,140.33h-15.93v-39.25l-27.02-63.57h17.63l18.49,49.06,18.91-49.06h16.35l-28.44,63.57v39.25Z" fill="#fff"/>
                <path d="M397.03,134.92c-5.21,3.6-13.37,5.4-24.46,5.4h-26.59V37.51h30.29c9.39,0,16.31,1.85,20.76,5.55,4.74,4.17,7.11,10.85,7.11,20.05,0,6.64-1.19,11.71-3.56,15.22-2.56,3.79-6.78,6.49-12.66,8.11,6.73,1.42,11.52,4.31,14.36,8.67,2.47,3.89,3.7,9.53,3.7,16.92,0,10.81-2.99,18.44-8.96,22.9ZM383.95,52.44c-2.56-1.99-6.59-2.99-12.09-2.99h-10.1v31.71h10.1c5.97,0,10.26-1.21,12.87-3.63,2.61-2.42,3.91-6.61,3.91-12.59s-1.56-10.05-4.69-12.51ZM385.8,97.03c-2.84-2.8-7.44-4.2-13.79-4.2h-10.24v35.55h9.39c6.35,0,10.86-1.04,13.51-3.13,3.6-2.75,5.4-7.58,5.4-14.5,0-6.35-1.42-10.93-4.27-13.72Z" fill="#fff"/>
                <path d="M423.2,37.51h50.91v12.23h-35.12v31.29h32.85v11.95h-32.85v35.12h36.12v12.23h-51.91V37.51Z" fill="#fff"/>
                <path d="M532.91,133.79c-.14-2.28-.26-4.69-.36-7.25-.09-2.65-.17-5.05-.21-7.18-.05-2.13-.12-4.1-.21-5.9-.38-7.68-1.37-12.61-2.99-14.79-1.9-2.75-6.26-4.12-13.08-4.12h-9.53v45.79h-15.93V37.51h30.01c9.77,0,16.88,1.66,21.33,4.98,5.31,3.98,7.96,11,7.96,21.05,0,13.84-5.64,22.14-16.92,24.89,5.78.47,9.77,2.46,11.95,5.97,1.71,2.65,2.8,7.82,3.27,15.5.09,2.94.24,7.68.43,14.22.28,5.59.85,11,1.71,16.21h-16.64c-.38-2.09-.64-4.27-.78-6.54ZM529.71,53.08c-2.56-2.32-6.59-3.48-12.09-3.48h-11.09v32.85h8.53c6.92,0,11.71-1.19,14.36-3.56,2.75-2.47,4.12-7.16,4.12-14.08,0-5.5-1.28-9.41-3.84-11.73Z" fill="#fff"/>
            </g>
        </g>
    </g>
</svg>