<svg width="626" height="41" viewBox="0 0 626 41" fill="none" xmlns="http://www.w3.org/2000/svg">
    <g clip-path="url(#clip0_814_1739)">
        <path d="M227.657 11.4668H234.659C237.316 11.4668 239.034 11.861 239.815 12.6511C240.602 13.4461 240.75 14.9458 240.25 17.1717L240.349 16.7289C239.837 19.0101 238.955 20.5651 237.703 21.377C236.95 21.8651 235.862 22.2023 234.443 22.3868C235.863 22.583 236.871 22.937 237.467 23.4519C238.403 24.2756 238.614 25.8406 238.094 28.1672L238.203 27.6774C237.604 30.3579 236.648 32.1879 235.333 33.1407C234.013 34.0985 231.76 34.5799 228.583 34.5799H221.523L227.657 11.4668ZM230.076 20.6943H231.052C232.49 20.6943 233.503 20.4661 234.09 20.0082C234.676 19.5519 235.129 18.6461 235.451 17.2975L235.345 17.742C235.622 16.5796 235.58 15.7912 235.221 15.3735C234.864 14.9558 234.055 14.7478 232.797 14.7478H231.572L230.078 20.6943H230.076ZM227.51 30.9047H229.088C230.44 30.9047 231.405 30.6481 231.978 30.1348C232.55 29.6232 233.018 28.5983 233.381 27.0701L233.265 27.5583C233.599 26.1509 233.592 25.235 233.245 24.8039C232.899 24.3745 231.99 24.1598 230.516 24.1598H229.206L227.51 30.9064V30.9047Z" fill="#D9D9D9"/>
        <path d="M247.406 11.4668H252.965L254.154 34.5782H249.266L249.296 29.3179H243.987L241.884 34.5782H236.996L247.404 11.4668H247.406ZM245.376 25.7835H249.336L249.413 15.5614H249.408L245.376 25.7835Z" fill="#D9D9D9"/>
        <path d="M259.409 14.716H256.071L256.366 13.0838L256.66 11.4668H268.009L267.771 13.0838L267.53 14.716H264.192L261.067 34.5782H256.002L259.406 14.716H259.409Z" fill="#D9D9D9"/>
        <path d="M272.589 14.716H269.251L269.485 13.0838L269.719 11.4668H281.068L280.89 13.0838L280.711 14.716H277.373L274.989 34.5782H269.925L272.587 14.716H272.589Z" fill="#D9D9D9"/>
        <path d="M373.678 14.716H370.34L370.099 13.0838L369.86 11.4668H381.21L381.503 13.0838L381.8 14.716H378.462L381.872 34.5782H376.808L373.678 14.716Z" fill="#D9D9D9"/>
        <path d="M280.063 34.5782L282.521 11.4668H287.259L285.463 30.9399H291.829L291.694 32.7499L291.559 34.5782H280.063Z" fill="#D9D9D9"/>
        <path d="M293.409 34.5782L295.031 11.4668H306.59L306.531 13.0838L306.473 14.716H299.585L299.253 20.6456H306.025L305.963 22.3516L305.901 24.0759H299.062L298.678 30.9399H306.031L305.968 32.7499L305.902 34.5782H293.409Z" fill="#D9D9D9"/>
        <path d="M307.878 34.5783L308.591 11.4668H319.675L319.679 13.0838L319.682 14.716H313.276L313.174 20.8234H319.342V22.5327L319.345 24.2588H313.115L312.942 34.5799H307.878V34.5783Z" fill="#D9D9D9"/>
        <path d="M321.593 11.4668H328.546C331.026 11.4668 332.815 11.8962 333.913 12.7584C335.017 13.6256 335.621 15.0917 335.72 17.17C335.832 19.5536 335.359 21.179 334.292 22.0245C333.757 22.4488 332.919 22.781 331.775 23.0225H332.046C333.38 23.0225 334.408 23.4469 335.131 24.2974C335.857 25.1528 336.22 26.3824 336.216 27.9944C336.226 28.9186 336.26 29.8882 336.32 30.903C336.394 31.9581 336.466 32.7616 336.538 33.3118C336.611 33.8637 336.701 34.2797 336.809 34.5581H331.761C331.671 34.2897 331.598 33.8821 331.545 33.337C331.491 32.7935 331.448 31.9799 331.411 30.903L331.313 27.9944C331.297 26.8068 331.04 25.9731 330.547 25.49C330.054 25.0069 329.217 24.7687 328.036 24.7687H326.603L326.803 34.5766H321.739L321.593 11.4651V11.4668ZM326.529 21.2294H327.88C329.139 21.2294 329.973 21.0046 330.381 20.5567C330.787 20.1105 330.968 19.2232 330.924 17.9014C330.884 16.6752 330.637 15.8449 330.186 15.4037C329.737 14.9642 328.915 14.7461 327.724 14.7461H326.399L326.531 21.2277L326.529 21.2294Z" fill="#D9D9D9"/>
        <path d="M340.007 33.0619C338.79 31.8172 338.105 29.697 337.951 26.7363L337.458 17.2673C337.35 15.1974 337.872 13.6625 339.019 12.6511C340.16 11.6463 341.928 11.1447 344.33 11.1447C346.732 11.1447 348.577 11.6446 349.871 12.6511C351.171 13.6625 351.922 15.1957 352.118 17.2673L353.017 26.7363C353.299 29.6986 352.925 31.8172 351.89 33.0619C350.847 34.3166 348.908 34.9456 346.078 34.9456C343.248 34.9456 341.234 34.3149 340.007 33.0619ZM347.781 30.3059C348.111 29.6685 348.21 28.5429 348.079 26.9376L347.313 17.4569C347.232 16.4538 346.957 15.6989 346.491 15.1856C346.026 14.674 345.385 14.4191 344.57 14.4191C343.755 14.4191 343.154 14.674 342.77 15.1856C342.384 15.6989 342.223 16.4538 342.29 17.4569L342.918 26.9376C343.023 28.5446 343.288 29.6701 343.711 30.3059C344.136 30.945 344.835 31.2654 345.808 31.2654C346.781 31.2654 347.45 30.945 347.781 30.3059Z" fill="#D9D9D9"/>
        <path d="M359.809 34.5782H355.656L353.351 11.4668H360.319L366.875 30.7688L364.322 11.4668H368.208L371.533 34.5782H364.12L357.6 14.716L359.809 34.5782Z" fill="#D9D9D9"/>
        <path d="M394.478 11.4668L399.769 34.5782H393.579L388.686 11.4668H394.478Z" fill="#D9D9D9"/>
        <path d="M404.148 11.4668L410.103 34.5782H403.914L398.356 11.4668H404.148Z" fill="#D9D9D9"/>
        <path d="M407.919 12.6947H385.491L385.241 11.4668H407.594L407.919 12.6947Z" fill="#D9D9D9"/>
        <path d="M413.728 34.5782H389.954L389.671 33.1877H413.359L413.728 34.5782Z" fill="#D9D9D9"/>
        <path d="M294.365 7.98283L296.99 0H300.954L303.624 7.98283H300.607L300.103 6.54528H297.732L297.228 7.98283H294.365ZM298.98 1.76968L297.836 4.93161H300.036L298.981 1.76968H298.98Z" fill="#D9D9D9"/>
        <path d="M304.185 7.98283V0H309.381C310.022 0.0587096 310.549 0.228129 310.961 0.508257C311.374 0.788386 311.676 1.16413 311.867 1.63548C312.015 2.34335 312.021 2.88851 311.889 3.27096C311.756 3.65509 311.525 3.97548 311.193 4.23212C310.861 4.49045 310.386 4.69341 309.767 4.84103L310.364 5.60425H314.631V7.98115H309.601L307.07 5.34425V7.98115H304.185V7.98283ZM307.07 1.99109V3.46219H309.083C309.19 3.46219 309.306 3.42193 309.431 3.34309C309.557 3.26425 309.623 3.06464 309.631 2.74258C309.613 2.43729 309.537 2.23432 309.408 2.13703C309.277 2.03974 309.168 1.99109 309.079 1.99109H307.073H307.07Z" fill="#D9D9D9"/>
        <path d="M348.896 2.3769H351.406V0H346.486C345.467 0 344.864 0.494838 344.672 1.48116C344.481 2.46916 345.026 3.55277 346.308 4.73199C347.026 5.29728 346.969 5.58748 346.137 5.60593C346.066 5.60761 345.991 5.60761 345.91 5.60593H342.173L341.576 4.8427C342.197 4.69509 342.671 4.49212 343.003 4.23548C343.334 3.97716 343.567 3.65677 343.699 3.27264C343.832 2.89019 343.825 2.34503 343.678 1.63716C343.486 1.1658 343.183 0.788386 342.77 0.508257C342.358 0.228129 341.831 0.0587096 341.19 0H335.993V7.98283H338.879V5.34593L341.411 7.98283H348.475C349.626 7.7916 350.211 7.20115 350.233 6.21315C350.255 5.22683 349.669 4.20864 348.475 3.16193C347.809 2.61006 347.948 2.34838 348.896 2.3769ZM341.239 3.34141C341.115 3.42193 340.997 3.46051 340.891 3.46051H338.879V1.99109H340.885C340.974 1.99109 341.084 2.03974 341.215 2.13703C341.346 2.23432 341.42 2.43561 341.438 2.74258C341.432 3.06296 341.364 3.26258 341.239 3.34141Z" fill="#D9D9D9"/>
        <path d="M295.68 0V2.3769H293.147V7.98283H290.549V2.3769H287.283C286.335 2.34838 286.194 2.61006 286.862 3.16193C288.056 4.20864 288.642 5.22683 288.62 6.21315C288.598 7.20115 288.013 7.7916 286.862 7.98283H228.58L229.211 5.60593H284.297C285.34 5.63444 285.473 5.34425 284.695 4.73199C283.413 3.55277 282.868 2.46916 283.059 1.48116C283.25 0.494838 283.854 0 284.872 0L295.68 0Z" fill="#D9D9D9"/>
        <path d="M350.303 7.98283C350.877 7.42928 351.008 6.71973 351.02 6.22992C351.025 6.02192 351.008 5.81225 350.971 5.60425H406.037L406.67 7.98283H350.303Z" fill="#D9D9D9"/>
        <path d="M415.248 40.31H220L220.631 37.9331H414.617L415.248 40.31Z" fill="#D9D9D9"/>
        <path fill-rule="evenodd" clip-rule="evenodd" d="M316.161 0H319.102L319.847 2.66206L320.538 0H323.624L324.423 2.66206L325.221 0H327.776L325.434 7.98283H323.092L322.066 4.20361L320.91 7.98283H318.516L316.161 0Z" fill="#D9D9D9"/>
        <path fill-rule="evenodd" clip-rule="evenodd" d="M333.086 0H328.881L326.524 7.98283H329.148L329.574 6.86567H332.342L332.753 7.98283H335.324L333.086 0ZM330.159 4.94838L331.063 2.01961L331.916 4.94838H330.159Z" fill="#D9D9D9"/>
    </g>
    <path d="M8.30912 29L7.48112 25.886H3.28712L2.44112 29H0.443119L4.16912 15.986H6.72512L10.3791 29H8.30912ZM5.37512 17.696L3.71912 24.356H7.04912L5.37512 17.696ZM32.5353 19.676V19.46C32.5353 19.148 32.5053 18.86 32.4453 18.596C32.3973 18.32 32.3013 18.086 32.1573 17.894C32.0133 17.69 31.8213 17.534 31.5813 17.426C31.3533 17.306 31.0593 17.246 30.6993 17.246C30.1593 17.246 29.7393 17.378 29.4393 17.642C29.1393 17.906 28.9173 18.266 28.7733 18.722C28.6293 19.166 28.5393 19.694 28.5033 20.306C28.4793 20.906 28.4673 21.548 28.4673 22.232C28.4673 23.156 28.4853 23.96 28.5213 24.644C28.5573 25.328 28.6533 25.898 28.8093 26.354C28.9653 26.81 29.1933 27.152 29.4933 27.38C29.8053 27.608 30.2253 27.722 30.7533 27.722C31.0413 27.722 31.3353 27.698 31.6353 27.65C31.9473 27.602 32.2413 27.518 32.5173 27.398V23.672H30.5733V22.142H34.4973V28.658C33.9213 28.838 33.3093 28.982 32.6613 29.09C32.0253 29.198 31.4013 29.252 30.7893 29.252C29.7333 29.252 28.9113 29.09 28.3233 28.766C27.7353 28.43 27.2973 27.968 27.0093 27.38C26.7333 26.78 26.5653 26.066 26.5053 25.238C26.4453 24.398 26.4153 23.474 26.4153 22.466C26.4153 21.53 26.4453 20.654 26.5053 19.838C26.5653 19.01 26.7333 18.296 27.0093 17.696C27.2973 17.084 27.7233 16.604 28.2873 16.256C28.8633 15.908 29.6613 15.734 30.6813 15.734C32.0133 15.734 32.9913 16.04 33.6153 16.652C34.2513 17.252 34.5693 18.194 34.5693 19.478V19.676H32.5353ZM48.8021 29L47.9741 25.886H43.7801L42.9341 29H40.9361L44.6621 15.986H47.2181L50.8721 29H48.8021ZM45.8681 17.696L44.2121 24.356H47.5421L45.8681 17.696ZM57.5106 29V15.986H59.5266V27.452H63.5946V29H57.5106ZM77.2857 29L76.4577 25.886H72.2637L71.4177 29H69.4197L73.1457 15.986H75.7017L79.3557 29H77.2857ZM74.3517 17.696L72.6957 24.356H76.0257L74.3517 17.696ZM91.8391 29L89.4631 23.654L87.0151 29H84.9451L88.3291 22.25L85.1971 15.986H87.4471L89.6251 20.918L91.8571 15.986H93.9451L90.7231 22.304L94.1071 29H91.8391ZM105.078 24.032V29H103.062V24.032L99.6418 15.986H101.874L104.214 22.196L106.608 15.986H108.678L105.078 24.032ZM132.983 22.61C132.983 23.786 132.941 24.752 132.857 25.508C132.773 26.264 132.611 26.888 132.371 27.38C132.095 27.956 131.675 28.412 131.111 28.748C130.559 29.084 129.773 29.252 128.753 29.252C127.769 29.252 127.007 29.096 126.467 28.784C125.939 28.46 125.537 28.016 125.261 27.452C125.129 27.176 125.021 26.882 124.937 26.57C124.853 26.246 124.787 25.892 124.739 25.508C124.703 25.112 124.679 24.68 124.667 24.212C124.655 23.732 124.649 23.204 124.649 22.628C124.649 21.728 124.667 20.972 124.703 20.36C124.739 19.748 124.799 19.226 124.883 18.794C124.979 18.362 125.093 18.002 125.225 17.714C125.357 17.414 125.525 17.144 125.729 16.904C126.041 16.532 126.449 16.244 126.953 16.04C127.457 15.836 128.075 15.734 128.807 15.734C129.587 15.734 130.217 15.83 130.697 16.022C131.177 16.202 131.573 16.46 131.885 16.796C132.101 17.024 132.275 17.288 132.407 17.588C132.551 17.888 132.665 18.266 132.749 18.722C132.833 19.166 132.893 19.706 132.929 20.342C132.965 20.966 132.983 21.722 132.983 22.61ZM130.895 22.376C130.895 21.56 130.883 20.888 130.859 20.36C130.835 19.832 130.793 19.418 130.733 19.118C130.673 18.866 130.595 18.626 130.499 18.398C130.415 18.17 130.295 17.972 130.139 17.804C129.995 17.624 129.809 17.486 129.581 17.39C129.365 17.294 129.107 17.246 128.807 17.246C128.207 17.246 127.751 17.444 127.439 17.84C127.127 18.236 126.923 18.758 126.827 19.406C126.803 19.562 126.779 19.73 126.755 19.91C126.743 20.09 126.731 20.3 126.719 20.54C126.719 20.768 126.713 21.038 126.701 21.35C126.701 21.65 126.701 22.01 126.701 22.43C126.701 22.886 126.701 23.276 126.701 23.6C126.701 23.924 126.707 24.206 126.719 24.446C126.731 24.686 126.743 24.902 126.755 25.094C126.779 25.274 126.803 25.454 126.827 25.634C126.923 26.282 127.109 26.798 127.385 27.182C127.673 27.554 128.147 27.74 128.807 27.74C129.431 27.74 129.881 27.56 130.157 27.2C130.445 26.84 130.643 26.348 130.751 25.724C130.775 25.568 130.793 25.394 130.805 25.202C130.829 25.01 130.847 24.782 130.859 24.518C130.871 24.254 130.877 23.948 130.877 23.6C130.889 23.252 130.895 22.844 130.895 22.376ZM142.692 17.534V21.53H146.544V23.042H142.692V29H140.694V15.986H146.76V17.534H142.692ZM169.007 29L165.335 17.75V29H163.535V15.986H166.595L170.267 27.236V15.986H172.067V29H169.007ZM180.202 29V15.986H186.646V17.534H182.2V21.494H186.358V23.006H182.2V27.452H186.772V29H180.202ZM204.82 29H202.462L200.428 18.074L198.178 29H195.82L193.048 15.986H195.19L197.116 26.876L199.348 15.986H201.706L203.758 26.876L205.828 15.986H207.718L204.82 29Z" fill="#D9D9D9"/>
    <path d="M435.892 25.238C435.892 26.594 435.574 27.602 434.938 28.262C434.314 28.922 433.336 29.252 432.004 29.252C431.044 29.252 430.288 29.096 429.736 28.784C429.196 28.46 428.788 28.004 428.512 27.416C428.248 26.828 428.086 26.12 428.026 25.292C427.966 24.464 427.936 23.534 427.936 22.502C427.936 21.566 427.96 20.69 428.008 19.874C428.068 19.046 428.23 18.326 428.494 17.714C428.77 17.102 429.19 16.622 429.754 16.274C430.318 15.914 431.104 15.734 432.112 15.734C433.432 15.734 434.374 16.052 434.938 16.688C435.502 17.324 435.784 18.26 435.784 19.496V19.784H433.786V19.55C433.786 19.274 433.762 19.004 433.714 18.74C433.678 18.464 433.6 18.218 433.48 18.002C433.36 17.786 433.186 17.612 432.958 17.48C432.73 17.336 432.43 17.264 432.058 17.264C431.566 17.264 431.182 17.384 430.906 17.624C430.63 17.864 430.42 18.212 430.276 18.668C430.144 19.112 430.06 19.652 430.024 20.288C430 20.912 429.988 21.608 429.988 22.376C429.988 23.312 430.006 24.116 430.042 24.788C430.078 25.46 430.162 26.018 430.294 26.462C430.426 26.894 430.624 27.218 430.888 27.434C431.152 27.638 431.518 27.74 431.986 27.74C432.394 27.74 432.724 27.668 432.976 27.524C433.228 27.38 433.42 27.188 433.552 26.948C433.684 26.708 433.768 26.438 433.804 26.138C433.852 25.826 433.876 25.508 433.876 25.184V24.896H435.892V25.238ZM451.145 22.61C451.145 23.786 451.103 24.752 451.019 25.508C450.935 26.264 450.773 26.888 450.533 27.38C450.257 27.956 449.837 28.412 449.273 28.748C448.721 29.084 447.935 29.252 446.915 29.252C445.931 29.252 445.169 29.096 444.629 28.784C444.101 28.46 443.699 28.016 443.423 27.452C443.291 27.176 443.183 26.882 443.099 26.57C443.015 26.246 442.949 25.892 442.901 25.508C442.865 25.112 442.841 24.68 442.829 24.212C442.817 23.732 442.811 23.204 442.811 22.628C442.811 21.728 442.829 20.972 442.865 20.36C442.901 19.748 442.961 19.226 443.045 18.794C443.141 18.362 443.255 18.002 443.387 17.714C443.519 17.414 443.687 17.144 443.891 16.904C444.203 16.532 444.611 16.244 445.115 16.04C445.619 15.836 446.237 15.734 446.969 15.734C447.749 15.734 448.379 15.83 448.859 16.022C449.339 16.202 449.735 16.46 450.047 16.796C450.263 17.024 450.437 17.288 450.569 17.588C450.713 17.888 450.827 18.266 450.911 18.722C450.995 19.166 451.055 19.706 451.091 20.342C451.127 20.966 451.145 21.722 451.145 22.61ZM449.057 22.376C449.057 21.56 449.045 20.888 449.021 20.36C448.997 19.832 448.955 19.418 448.895 19.118C448.835 18.866 448.757 18.626 448.661 18.398C448.577 18.17 448.457 17.972 448.301 17.804C448.157 17.624 447.971 17.486 447.743 17.39C447.527 17.294 447.269 17.246 446.969 17.246C446.369 17.246 445.913 17.444 445.601 17.84C445.289 18.236 445.085 18.758 444.989 19.406C444.965 19.562 444.941 19.73 444.917 19.91C444.905 20.09 444.893 20.3 444.881 20.54C444.881 20.768 444.875 21.038 444.863 21.35C444.863 21.65 444.863 22.01 444.863 22.43C444.863 22.886 444.863 23.276 444.863 23.6C444.863 23.924 444.869 24.206 444.881 24.446C444.893 24.686 444.905 24.902 444.917 25.094C444.941 25.274 444.965 25.454 444.989 25.634C445.085 26.282 445.271 26.798 445.547 27.182C445.835 27.554 446.309 27.74 446.969 27.74C447.593 27.74 448.043 27.56 448.319 27.2C448.607 26.84 448.805 26.348 448.913 25.724C448.937 25.568 448.955 25.394 448.967 25.202C448.991 25.01 449.009 24.782 449.021 24.518C449.033 24.254 449.039 23.948 449.039 23.6C449.051 23.252 449.057 22.844 449.057 22.376ZM464.327 29L460.655 17.75V29H458.855V15.986H461.915L465.587 27.236V15.986H467.387V29H464.327ZM479.303 17.534V29H477.287V17.534H474.281V15.986H482.309V17.534H479.303ZM489.202 29V15.986H495.646V17.534H491.2V21.494H495.358V23.006H491.2V27.452H495.772V29H489.202ZM508.6 29L504.928 17.75V29H503.128V15.986H506.188L509.86 27.236V15.986H511.66V29H508.6ZM523.575 17.534V29H521.559V17.534H518.553V15.986H526.581V17.534H523.575ZM549.681 29L548.853 25.886H544.659L543.813 29H541.815L545.541 15.986H548.097L551.751 29H549.681ZM546.747 17.696L545.091 24.356H548.421L546.747 17.696ZM568.818 29H566.46L564.426 18.074L562.176 29H559.818L557.046 15.986H559.188L561.114 26.876L563.346 15.986H565.704L567.756 26.876L569.826 15.986H571.716L568.818 29ZM584.88 29L584.052 25.886H579.858L579.012 29H577.014L580.74 15.986H583.296L586.95 29H584.88ZM581.946 17.696L580.29 24.356H583.62L581.946 17.696ZM593.799 29V15.986H595.815V29H593.799ZM607.725 17.534V29H605.709V17.534H602.703V15.986H610.731V17.534H607.725ZM624.609 25.724C624.609 26.348 624.513 26.882 624.321 27.326C624.141 27.77 623.883 28.136 623.547 28.424C623.211 28.712 622.809 28.922 622.341 29.054C621.873 29.186 621.351 29.252 620.775 29.252C620.067 29.252 619.467 29.174 618.975 29.018C618.495 28.874 618.099 28.646 617.787 28.334C617.487 28.022 617.265 27.62 617.121 27.128C616.989 26.624 616.923 26.03 616.923 25.346V25.202H618.993V25.346C618.993 25.67 619.011 25.976 619.047 26.264C619.095 26.552 619.179 26.804 619.299 27.02C619.431 27.236 619.611 27.41 619.839 27.542C620.079 27.674 620.391 27.74 620.775 27.74C621.387 27.74 621.837 27.578 622.125 27.254C622.413 26.918 622.557 26.462 622.557 25.886C622.557 25.406 622.443 25.016 622.215 24.716C621.987 24.404 621.687 24.128 621.315 23.888L619.083 22.484C618.483 22.112 618.003 21.662 617.643 21.134C617.283 20.606 617.103 19.934 617.103 19.118C617.103 18.53 617.199 18.02 617.391 17.588C617.583 17.156 617.847 16.808 618.183 16.544C618.519 16.268 618.921 16.064 619.389 15.932C619.857 15.8 620.367 15.734 620.919 15.734C622.047 15.734 622.923 15.986 623.547 16.49C624.171 16.982 624.483 17.816 624.483 18.992V19.46H622.467V19.136C622.467 18.872 622.443 18.626 622.395 18.398C622.359 18.158 622.281 17.954 622.161 17.786C622.041 17.618 621.873 17.486 621.657 17.39C621.441 17.294 621.165 17.246 620.829 17.246C620.289 17.246 619.875 17.402 619.587 17.714C619.299 18.026 619.155 18.446 619.155 18.974C619.155 19.454 619.281 19.856 619.533 20.18C619.797 20.504 620.157 20.804 620.613 21.08L622.341 22.142C622.713 22.37 623.037 22.598 623.313 22.826C623.601 23.054 623.841 23.306 624.033 23.582C624.225 23.846 624.369 24.152 624.465 24.5C624.561 24.848 624.609 25.256 624.609 25.724Z" fill="#D9D9D9"/>
    <defs>
        <clipPath id="clip0_814_1739">
            <rect width="195.248" height="40.31" fill="white" transform="translate(220)"/>
        </clipPath>
    </defs>
</svg>