<svg width="718" height="46" viewBox="0 0 718 46" fill="none" xmlns="http://www.w3.org/2000/svg">
    <rect x="1" y="7.76245" width="716" height="25.6597" rx="2" stroke="#5C5C5C" stroke-width="2"/>
    <path d="M515.056 2.43991C515.056 1.88763 514.608 1.43991 514.056 1.43991C513.503 1.43991 513.056 1.88763 513.056 2.43991H515.056ZM515.056 34.1184V2.43991H513.056V34.1184H515.056Z"
          fill="#5C5C5C"/>
    <path d="M170.912 1C170.912 0.447715 170.464 0 169.912 0C169.359 0 168.912 0.447715 168.912 1H170.912ZM170.912 34.1184V1H168.912V34.1184H170.912Z" fill="#5C5C5C"/>
    <path d="M336.504 2.43991C336.504 1.88763 336.056 1.43991 335.504 1.43991C334.952 1.43991 334.504 1.88763 334.504 2.43991H336.504ZM336.504 34.1184V2.43991H334.504V34.1184H336.504Z"
          fill="#5C5C5C"/>
    <path d="M26.9189 1C26.9189 0.447715 26.4712 -2.41411e-08 25.9189 0C25.3667 2.41412e-08 24.9189 0.447715 24.9189 1L26.9189 1ZM26.9189 34.1184L26.9189 1L24.9189 1L24.9189 34.1184L26.9189 34.1184Z"
          fill="#5C5C5C"/>
    <path d="M116.635 34.1184L116.635 6.75974" stroke="#5C5C5C" stroke-width="2"/>
    <path d="M192.951 34.1184L192.951 6.75974" stroke="#5C5C5C" stroke-width="2"/>
    <path d="M282.227 34.1184L282.227 6.75974" stroke="#5C5C5C" stroke-width="2"/>
    <path d="M312.466 34.1184L312.466 6.75974" stroke="#5C5C5C" stroke-width="2"/>
    <path d="M416.14 34.1184L416.14 6.75974" stroke="#5C5C5C" stroke-width="2"/>
    <path d="M456.458 34.1184L456.458 6.75974" stroke="#5C5C5C" stroke-width="2"/>
    <path d="M478.057 34.1184L478.057 6.75974" stroke="#5C5C5C" stroke-width="2"/>
    <path d="M82.0762 42.758L82.0762 1" stroke="#5C5C5C" stroke-width="2" stroke-linecap="round"/>
    <path d="M156.953 42.758V1" stroke="#5C5C5C" stroke-width="2" stroke-linecap="round"/>
    <path d="M246.191 43.672L246.191 2.43991" stroke="#5C5C5C" stroke-width="2" stroke-linecap="round"/>
    <path d="M380.142 44.1979V2.43991" stroke="#5C5C5C" stroke-width="2" stroke-linecap="round"/>
</svg>
