<?xml version="1.0" encoding="UTF-8"?>
<svg id="Layer_2" data-name="Layer 2" xmlns="http://www.w3.org/2000/svg" viewBox="0 0 1088.14111 144">
    <g id="Layer_2-2" data-name="Layer 2">
        <g>
            <g>
                <path d="M236.65137,50.25h-4.12988v13.13989h4.12988c4.33984,0,7.3501-2.66992,7.3501-6.56982s-3.01025-6.57007-7.3501-6.57007ZM237.65137,80.32007h-5.12988v13.58984h5.12988c4.4502,0,7.56982-2.77979,7.56982-6.79004,0-4.00977-3.11963-6.7998-7.56982-6.7998ZM237.65137,80.32007h-5.12988v13.58984h5.12988c4.4502,0,7.56982-2.77979,7.56982-6.79004,0-4.00977-3.11963-6.7998-7.56982-6.7998ZM236.65137,50.25h-4.12988v13.13989h4.12988c4.33984,0,7.3501-2.66992,7.3501-6.56982s-3.01025-6.57007-7.3501-6.57007ZM236.65137,50.25h-4.12988v13.13989h4.12988c4.33984,0,7.3501-2.66992,7.3501-6.56982s-3.01025-6.57007-7.3501-6.57007ZM237.65137,80.32007h-5.12988v13.58984h5.12988c4.4502,0,7.56982-2.77979,7.56982-6.79004,0-4.00977-3.11963-6.7998-7.56982-6.7998ZM309.95117,55.15015l-6.45996,23.38989h12.81006l-6.3501-23.38989ZM309.95117,55.15015l-6.45996,23.38989h12.81006l-6.3501-23.38989ZM237.65137,80.32007h-5.12988v13.58984h5.12988c4.4502,0,7.56982-2.77979,7.56982-6.79004,0-4.00977-3.11963-6.7998-7.56982-6.7998ZM236.65137,50.25h-4.12988v13.13989h4.12988c4.33984,0,7.3501-2.66992,7.3501-6.56982s-3.01025-6.57007-7.3501-6.57007ZM236.65137,50.25h-4.12988v13.13989h4.12988c4.33984,0,7.3501-2.66992,7.3501-6.56982s-3.01025-6.57007-7.3501-6.57007ZM237.65137,80.32007h-5.12988v13.58984h5.12988c4.4502,0,7.56982-2.77979,7.56982-6.79004,0-4.00977-3.11963-6.7998-7.56982-6.7998ZM309.95117,55.15015l-6.45996,23.38989h12.81006l-6.3501-23.38989ZM309.95117,55.15015l-6.45996,23.38989h12.81006l-6.3501-23.38989ZM237.65137,80.32007h-5.12988v13.58984h5.12988c4.4502,0,7.56982-2.77979,7.56982-6.79004,0-4.00977-3.11963-6.7998-7.56982-6.7998ZM236.65137,50.25h-4.12988v13.13989h4.12988c4.33984,0,7.3501-2.66992,7.3501-6.56982s-3.01025-6.57007-7.3501-6.57007ZM236.65137,50.25h-4.12988v13.13989h4.12988c4.33984,0,7.3501-2.66992,7.3501-6.56982s-3.01025-6.57007-7.3501-6.57007ZM237.65137,80.32007h-5.12988v13.58984h5.12988c4.4502,0,7.56982-2.77979,7.56982-6.79004,0-4.00977-3.11963-6.7998-7.56982-6.7998ZM309.95117,55.15015l-6.45996,23.38989h12.81006l-6.3501-23.38989ZM656.96143,51.36011h-2.68018v16.92993h2.68018c6.67969,0,10.25-3.44995,10.25-8.45996,0-5.02002-3.57031-8.46997-10.25-8.46997ZM656.96143,51.36011h-2.68018v16.92993h2.68018c6.67969,0,10.25-3.44995,10.25-8.45996,0-5.02002-3.57031-8.46997-10.25-8.46997ZM309.95117,55.15015l-6.45996,23.38989h12.81006l-6.3501-23.38989ZM237.65137,80.32007h-5.12988v13.58984h5.12988c4.4502,0,7.56982-2.77979,7.56982-6.79004,0-4.00977-3.11963-6.7998-7.56982-6.7998ZM236.65137,50.25h-4.12988v13.13989h4.12988c4.33984,0,7.3501-2.66992,7.3501-6.56982s-3.01025-6.57007-7.3501-6.57007ZM236.65137,50.25h-4.12988v13.13989h4.12988c4.33984,0,7.3501-2.66992,7.3501-6.56982s-3.01025-6.57007-7.3501-6.57007ZM237.65137,80.32007h-5.12988v13.58984h5.12988c4.4502,0,7.56982-2.77979,7.56982-6.79004,0-4.00977-3.11963-6.7998-7.56982-6.7998ZM309.95117,55.15015l-6.45996,23.38989h12.81006l-6.3501-23.38989ZM656.96143,51.36011h-2.68018v16.92993h2.68018c6.67969,0,10.25-3.44995,10.25-8.45996,0-5.02002-3.57031-8.46997-10.25-8.46997ZM737.50146,53.47998c-10.36035,0-18.27002,8.02002-18.27002,18.6001s7.90967,18.59985,18.27002,18.59985,18.27002-8.02002,18.27002-18.59985-7.91016-18.6001-18.27002-18.6001ZM737.50146,53.47998c-10.36035,0-18.27002,8.02002-18.27002,18.6001s7.90967,18.59985,18.27002,18.59985,18.27002-8.02002,18.27002-18.59985-7.91016-18.6001-18.27002-18.6001ZM656.96143,51.36011h-2.68018v16.92993h2.68018c6.67969,0,10.25-3.44995,10.25-8.45996,0-5.02002-3.57031-8.46997-10.25-8.46997ZM309.95117,55.15015l-6.45996,23.38989h12.81006l-6.3501-23.38989ZM237.65137,80.32007h-5.12988v13.58984h5.12988c4.4502,0,7.56982-2.77979,7.56982-6.79004,0-4.00977-3.11963-6.7998-7.56982-6.7998ZM244.00146,56.82007c0-3.8999-3.01025-6.57007-7.3501-6.57007h-4.12988v13.13989h4.12988c4.33984,0,7.3501-2.66992,7.3501-6.56982ZM139.72119,0l41.56982,72-41.56982,72h926.16992c12.28027,0,22.25-9.94995,22.25-22.23999V0H139.72119ZM241.44141,111.07007h-31.86035V33.09009h31.74023c15.1499,0,24.95996,8.35986,24.95996,20.5,0,7.34985-4.12012,13.25-11.02979,16.81982,8.46973,3.56006,13.69971,10.36011,13.69971,18.82007,0,12.92993-10.7998,21.84009-27.50977,21.84009ZM325.10156,111.07007l-3.57031-12.91992h-23.27979l-3.56006,12.91992h-24.72998l26.16992-77.97998h27.52002l26.17969,77.97998h-24.72949ZM436.05127,54.69995v56.37012h-23.16992v-56.37012h-29.18994v56.37012h-23.16992v-56.37012h-18.38037l3.01025-21.60986h106.27002l3.00977,21.60986h-18.37988ZM506.01123,111.07007h-45.56006V33.09009h23.16992v55.69995h25.51025l-3.12012,22.28003ZM563.60156,111.07007h-48.23047V33.09009h47.23047l2.78955,20.15991h-27.17969v8.36011h21.82959v20.15991h-21.82959v9.13989h28.17969l-2.78955,20.16016ZM618.75146,63.06006v20.82983h-20.72021v27.18018h-23.16992V33.09009h46l2.8999,20.83008h-25.72998v9.13989h20.72021ZM667.87109,111.07007l-13.58984-29.18994v29.18994h-22.93994V33.09009h29.3999c19.5,0,29.64014,10.58008,29.64014,24.72998,0,9.68994-5.02002,17.48999-13.59033,21.5l17.93018,31.75h-26.8501ZM737.50146,112.8501c-23.51025,0-41.89014-17.92993-41.89014-40.77002s18.37988-40.77002,41.89014-40.77002c23.5,0,41.87988,17.92993,41.87988,40.77002s-18.37988,40.77002-41.87988,40.77002ZM859.26123,111.07007h-21.5l-28.18018-38.43018v38.43018h-22.83984V33.09009h21.72021l27.95996,37.98999v-37.98999h22.83984v77.97998ZM906.83105,54.69995v56.37012h-23.16992v-56.37012h-18.37988l3-21.60986h53.91992l3.01025,21.60986h-18.38037ZM1071.45117,121.76001c0,3.06006-2.48975,5.56006-5.56006,5.56006h-105.06982V16.67993h110.62988v105.08008ZM737.50146,53.47998c-10.36035,0-18.27002,8.02002-18.27002,18.6001s7.90967,18.59985,18.27002,18.59985,18.27002-8.02002,18.27002-18.59985-7.91016-18.6001-18.27002-18.6001ZM656.96143,51.36011h-2.68018v16.92993h2.68018c6.67969,0,10.25-3.44995,10.25-8.45996,0-5.02002-3.57031-8.46997-10.25-8.46997ZM303.49121,78.54004h12.81006l-6.3501-23.38989-6.45996,23.38989ZM237.65137,80.32007h-5.12988v13.58984h5.12988c4.4502,0,7.56982-2.77979,7.56982-6.79004,0-4.00977-3.11963-6.7998-7.56982-6.7998ZM244.00146,56.82007c0-3.8999-3.01025-6.57007-7.3501-6.57007h-4.12988v13.13989h4.12988c4.33984,0,7.3501-2.66992,7.3501-6.56982ZM236.65137,50.25h-4.12988v13.13989h4.12988c4.33984,0,7.3501-2.66992,7.3501-6.56982s-3.01025-6.57007-7.3501-6.57007ZM237.65137,80.32007h-5.12988v13.58984h5.12988c4.4502,0,7.56982-2.77979,7.56982-6.79004,0-4.00977-3.11963-6.7998-7.56982-6.7998ZM309.95117,55.15015l-6.45996,23.38989h12.81006l-6.3501-23.38989ZM656.96143,51.36011h-2.68018v16.92993h2.68018c6.67969,0,10.25-3.44995,10.25-8.45996,0-5.02002-3.57031-8.46997-10.25-8.46997ZM737.50146,53.47998c-10.36035,0-18.27002,8.02002-18.27002,18.6001s7.90967,18.59985,18.27002,18.59985,18.27002-8.02002,18.27002-18.59985-7.91016-18.6001-18.27002-18.6001ZM737.50146,53.47998c-10.36035,0-18.27002,8.02002-18.27002,18.6001s7.90967,18.59985,18.27002,18.59985,18.27002-8.02002,18.27002-18.59985-7.91016-18.6001-18.27002-18.6001ZM656.96143,51.36011h-2.68018v16.92993h2.68018c6.67969,0,10.25-3.44995,10.25-8.45996,0-5.02002-3.57031-8.46997-10.25-8.46997ZM309.95117,55.15015l-6.45996,23.38989h12.81006l-6.3501-23.38989ZM237.65137,80.32007h-5.12988v13.58984h5.12988c4.4502,0,7.56982-2.77979,7.56982-6.79004,0-4.00977-3.11963-6.7998-7.56982-6.7998ZM236.65137,50.25h-4.12988v13.13989h4.12988c4.33984,0,7.3501-2.66992,7.3501-6.56982s-3.01025-6.57007-7.3501-6.57007ZM236.65137,50.25h-4.12988v13.13989h4.12988c4.33984,0,7.3501-2.66992,7.3501-6.56982s-3.01025-6.57007-7.3501-6.57007ZM237.65137,80.32007h-5.12988v13.58984h5.12988c4.4502,0,7.56982-2.77979,7.56982-6.79004,0-4.00977-3.11963-6.7998-7.56982-6.7998ZM309.95117,55.15015l-6.45996,23.38989h12.81006l-6.3501-23.38989ZM309.95117,55.15015l-6.45996,23.38989h12.81006l-6.3501-23.38989ZM237.65137,80.32007h-5.12988v13.58984h5.12988c4.4502,0,7.56982-2.77979,7.56982-6.79004,0-4.00977-3.11963-6.7998-7.56982-6.7998ZM236.65137,50.25h-4.12988v13.13989h4.12988c4.33984,0,7.3501-2.66992,7.3501-6.56982s-3.01025-6.57007-7.3501-6.57007ZM236.65137,50.25h-4.12988v13.13989h4.12988c4.33984,0,7.3501-2.66992,7.3501-6.56982s-3.01025-6.57007-7.3501-6.57007ZM237.65137,80.32007h-5.12988v13.58984h5.12988c4.4502,0,7.56982-2.77979,7.56982-6.79004,0-4.00977-3.11963-6.7998-7.56982-6.7998ZM309.95117,55.15015l-6.45996,23.38989h12.81006l-6.3501-23.38989ZM309.95117,55.15015l-6.45996,23.38989h12.81006l-6.3501-23.38989ZM237.65137,80.32007h-5.12988v13.58984h5.12988c4.4502,0,7.56982-2.77979,7.56982-6.79004,0-4.00977-3.11963-6.7998-7.56982-6.7998ZM236.65137,50.25h-4.12988v13.13989h4.12988c4.33984,0,7.3501-2.66992,7.3501-6.56982s-3.01025-6.57007-7.3501-6.57007ZM236.65137,50.25h-4.12988v13.13989h4.12988c4.33984,0,7.3501-2.66992,7.3501-6.56982s-3.01025-6.57007-7.3501-6.57007ZM237.65137,80.32007h-5.12988v13.58984h5.12988c4.4502,0,7.56982-2.77979,7.56982-6.79004,0-4.00977-3.11963-6.7998-7.56982-6.7998ZM309.95117,55.15015l-6.45996,23.38989h12.81006l-6.3501-23.38989ZM309.95117,55.15015l-6.45996,23.38989h12.81006l-6.3501-23.38989ZM237.65137,80.32007h-5.12988v13.58984h5.12988c4.4502,0,7.56982-2.77979,7.56982-6.79004,0-4.00977-3.11963-6.7998-7.56982-6.7998ZM236.65137,50.25h-4.12988v13.13989h4.12988c4.33984,0,7.3501-2.66992,7.3501-6.56982s-3.01025-6.57007-7.3501-6.57007Z"
                      style="fill: #d9d9d9; stroke-width: 0px;"/>
                <path d="M1028.96143,59.61011v-26.53003h-26.24023v26.53003h-24.77979v24.79004h24.77979v26.52979h26.24023v-26.52979h25.36963v-24.79004h-25.36963Z" style="fill: #d9d9d9; stroke-width: 0px;"/>
            </g>
            <g>
                <g>
                    <polygon points="45.32227 137.49976 7.50586 71.99976 45.32227 6.49976 120.95508 6.49976 158.77148 71.99976 120.95508 137.49976 45.32227 137.49976" style="stroke-width: 0px;"/>
                    <path d="M117.20264,13l34.06348,59-34.06348,59H49.07471L15.01123,72,49.07471,13h68.12793M124.70801,0H41.56934L0,72l41.56934,72h83.13867l41.56934-72L124.70801,0h0Z"
                          style="fill: #f2ae09; stroke-width: 0px;"/>
                </g>
                <polygon points="50.51123 38.68994 64.74121 116.90991 57.21143 116.90991 31.28125 72 50.51123 38.68994" style="fill: #fff; stroke-width: 0px;"/>
                <polygon points="112.01123 32.17993 67.89111 61.59009 61.62109 27.09009 109.07129 27.09009 112.01123 32.17993" style="fill: #fff; stroke-width: 0px;"/>
                <polygon points="71.66113 82.3501 117.65137 102.06006 109.07129 116.90991 77.95117 116.90991 71.66113 82.3501" style="fill: #fff; stroke-width: 0px;"/>
                <polygon points="135.00146 72 124.19141 90.72998 77.58105 70.75 118.52148 43.45996 135.00146 72" style="fill: #fff; stroke-width: 0px;"/>
            </g>
        </g>
    </g>
</svg>