<svg width="18" height="18" viewBox="0 0 18 18" fill="none" xmlns="http://www.w3.org/2000/svg">
    <g clip-path="url(#clip0_2845_1579)">
        <path d="M5.6892 14.7536C5.6892 10.6821 5.6892 6.61084 5.6892 2.53931C3.50349 3.60002 1.96063 5.72145 1.6392 8.22859C1.60706 8.55002 1.57492 8.83931 1.57492 9.19288C1.57492 12.6965 3.98563 15.6214 7.2642 16.425C7.2642 16.9608 7.2642 17.4963 7.2642 18.0322C3.08563 17.2286 -0.0322266 13.5322 -0.0322266 9.16074C-0.0322266 8.83931 -8.34577e-05 8.51788 0.0320594 8.19645C0.449917 4.24288 3.40706 1.06074 7.2642 0.289307C7.2642 5.3142 7.2642 10.3394 7.2642 15.3643C6.71777 15.2357 6.17135 15.0107 5.6892 14.7536Z"
              fill="black"/>
        <path d="M18.0001 9.1607C18.0001 13.5321 14.8823 17.1643 10.7358 18C10.7358 17.4642 10.7358 16.9287 10.7358 16.3928C14.0144 15.5893 16.4251 12.6643 16.4251 9.1607C16.4251 8.83927 16.393 8.51784 16.3608 8.19641C16.0394 5.72141 14.4644 3.59998 12.3108 2.50713C12.3108 6.56773 12.3108 10.6287 12.3108 14.6893C11.8287 14.9786 11.2823 15.2036 10.7358 15.3643C10.7358 10.35 10.7358 5.3357 10.7358 0.321411C14.5608 1.09284 17.5501 4.27498 17.968 8.22855C18.0001 8.54998 18.0001 8.83927 18.0001 9.1607Z"
              fill="black"/>
        <path d="M9.80343 -0.160706C9.80343 5.93583 9.80343 12.032 9.80343 18.1286C9.54629 18.1607 9.257 18.1607 8.99986 18.1607C8.74272 18.1607 8.45343 18.1607 8.19629 18.1286C8.19629 12.032 8.19629 5.93583 8.19629 -0.160706C8.73211 -0.160706 9.26761 -0.160706 9.80343 -0.160706Z"
              fill="black"/>
    </g>
    <defs>
        <clipPath id="clip0_2845_1579">
            <rect width="18" height="18" fill="white"/>
        </clipPath>
    </defs>
</svg>
