<?xml version="1.0" encoding="UTF-8"?>
<svg id="Layer_2" data-name="Layer 2" xmlns="http://www.w3.org/2000/svg" viewBox="0 0 55.42 68">
  <defs>
    <style>
      .cls-1 {
        stroke-width: 0px;
      }
    </style>
  </defs>
  <g id="Layer_1-2" data-name="Layer 1">
    <g>
      <path class="cls-1" d="M13.85,68L0,44l14.28-24.73v-5.84c0-3.49,1.33-6.79,3.76-9.31C20.59,1.46,24.02,0,27.71,0s7.13,1.46,9.68,4.12c2.43,2.5,3.76,5.81,3.76,9.31v5.84l.74,1.28,13.53,23.45-13.85,24H13.85ZM9.24,44l9.23,16h18.49l9.23-16-9.23-16h-18.47l-9.24,16ZM27.71,5c-4.65,0-8.43,3.78-8.43,8.43v6.57h16.87v-6.57c0-4.65-3.79-8.43-8.44-8.43Z"/>
      <path class="cls-1" d="M23.6,54.38v-19.89h6.25c2.21,0,3.99,1.8,3.99,3.99s-1.78,3.98-3.97,3.99h-1v11.91h-5.27Z"/>
    </g>
  </g>
</svg>