<svg width="29" height="32" viewBox="0 0 29 32" fill="none" xmlns="http://www.w3.org/2000/svg">
    <path d="M27.6322 22.2491V9.47387C27.6288 8.8237 27.2816 8.22362 26.7197 7.8968C23.0285 5.76776 19.3368 3.63822 15.6455 1.50918C15.0842 1.18485 14.3918 1.18485 13.8304 1.50918C10.1422 3.63822 6.45444 5.76776 2.76619 7.8968C2.20033 8.22114 1.8492 8.82171 1.84375 9.47387V22.2491C1.84722 22.8993 2.19437 23.4993 2.75627 23.8262C6.44749 25.9552 10.1392 28.0847 13.8304 30.2138C14.3928 30.5361 15.0837 30.5361 15.6455 30.2138C19.3338 28.0847 23.0215 25.9552 26.7098 23.8262C27.2757 23.5018 27.6268 22.9012 27.6322 22.2491Z"
          fill="black"/>
    <path d="M13.8319 30.2141C10.1436 28.085 6.45588 25.9555 2.76763 23.8265C2.20177 23.5021 1.85064 22.9016 1.84519 22.2494V9.4742C1.84866 8.82403 2.19581 8.22396 2.75771 7.89713C6.44893 5.76809 10.1407 3.63856 13.8319 1.50952C14.3933 1.18518 15.0856 1.18518 15.647 1.50952C19.3352 3.63856 23.023 5.76809 26.7112 7.89713C27.2771 8.22147 27.6282 8.82204 27.6337 9.4742V22.2494C27.6302 22.8996 27.283 23.4997 26.7212 23.8265C23.0299 25.9555 19.3382 28.0851 15.647 30.2141C15.0851 30.5364 14.3943 30.5364 13.8319 30.2141ZM27.351 6.7912C23.6627 4.66216 19.975 2.53263 16.2867 0.403593C15.3286 -0.147389 14.1503 -0.147389 13.1921 0.403593C9.50388 2.53264 5.81613 4.66217 2.12788 6.7912C1.17072 7.34616 0.581555 8.36827 0.580566 9.4742V22.2494C0.581555 23.3553 1.17072 24.3775 2.12788 24.9324C5.81613 27.0614 9.50388 29.191 13.1921 31.32C14.1508 31.8685 15.3281 31.8685 16.2867 31.32C19.975 29.191 23.6627 27.0614 27.351 24.9324C28.3081 24.3775 28.8973 23.3553 28.8983 22.2494V9.4742C28.8973 8.36827 28.3081 7.34616 27.351 6.7912Z"
          fill="white"/>
    <path d="M11.6501 17.8319V21.5L8.3273 23.3319L5 21.5V17.8319L8.3273 15.9957L11.6501 17.8319Z" fill="white"/>
    <path d="M25 17.8319V21.5L21.6727 23.3319L18.3455 21.5V17.8319L21.6727 15.9957L25 17.8319Z" fill="white"/>
    <path d="M25 10.4956V14.1638L21.6727 15.9957L18.3455 14.1638V10.4956L21.6727 8.66377L25 10.4956Z" fill="white"/>
    <path d="M18.3364 17.8406L15.0182 19.6681L18.3364 21.4957V25.1638L15.0091 27L11.6863 25.1638V21.4957L15.0046 19.6681L11.6863 17.8406V14.1725L15.0091 12.3362L18.3364 14.1725V17.8406Z" fill="white"/>
    <path d="M18.3364 6.83187V10.5L15.0091 12.3319L11.6863 10.5V6.83187L15.0091 5L18.3364 6.83187Z" fill="white"/>
    <path d="M11.6501 10.4956V14.1638L8.3273 15.9957L5 14.1638V10.4956L8.3273 8.66377L11.6501 10.4956Z" fill="white"/>
</svg>
