<svg width="208" height="48" viewBox="0 0 208 48" fill="none" xmlns="http://www.w3.org/2000/svg">
    <mask id="path-1-inside-1_637_55" fill="white">
        <path d="M191.92 0C192.987 0 193.974 0.566734 194.511 1.48839L206.761 22.4884C207.306 23.4225 207.306 24.5775 206.761 25.5116L194.511 46.5116C193.974 47.4333 192.987 48 191.92 48H15.0313C13.9559 48 12.9628 47.4244 12.4282 46.4913L0.396952 25.4913C-0.132303 24.5675 -0.132302 23.4325 0.396953 22.5087L12.4282 1.50866C12.9628 0.575579 13.9559 0 15.0313 0H191.92Z"/>
    </mask>
    <path d="M0.396952 25.4913L-1.33842 26.4856L0.396952 25.4913ZM194.511 46.5116L196.239 47.5194L194.511 46.5116ZM206.761 22.4884L205.034 23.4961L206.761 22.4884ZM206.761 25.5116L205.034 24.5039L206.761 25.5116ZM194.511 1.48839L196.239 0.480645L194.511 1.48839ZM194.511 1.48839L192.784 2.49613L205.034 23.4961L206.761 22.4884L208.489 21.4806L196.239 0.480645L194.511 1.48839ZM206.761 25.5116L205.034 24.5039L192.784 45.5039L194.511 46.5116L196.239 47.5194L208.489 26.5194L206.761 25.5116ZM191.92 48V46H15.0313V48V50H191.92V48ZM12.4282 46.4913L14.1636 45.4971L2.13232 24.4971L0.396952 25.4913L-1.33842 26.4856L10.6928 47.4856L12.4282 46.4913ZM0.396953 22.5087L2.13233 23.5029L14.1636 2.50289L12.4282 1.50866L10.6928 0.514438L-1.33842 21.5144L0.396953 22.5087ZM15.0313 0V2H191.92V0V-2H15.0313V0ZM12.4282 1.50866L14.1636 2.50289C14.3418 2.19186 14.6728 2 15.0313 2V0V-2C13.239 -2 11.5838 -1.0407 10.6928 0.514438L12.4282 1.50866ZM0.396952 25.4913L2.13232 24.4971C1.95591 24.1892 1.95591 23.8108 2.13233 23.5029L0.396953 22.5087L-1.33842 21.5144C-2.22051 23.0541 -2.22051 24.9459 -1.33842 26.4856L0.396952 25.4913ZM15.0313 48V46C14.6728 46 14.3418 45.8081 14.1636 45.4971L12.4282 46.4913L10.6928 47.4856C11.5838 49.0407 13.239 50 15.0313 50V48ZM194.511 46.5116L192.784 45.5039C192.605 45.8111 192.276 46 191.92 46V48V50C193.698 50 195.343 49.0554 196.239 47.5194L194.511 46.5116ZM206.761 22.4884L205.034 23.4961C205.215 23.8075 205.215 24.1925 205.034 24.5039L206.761 25.5116L208.489 26.5194C209.397 24.9625 209.397 23.0375 208.489 21.4806L206.761 22.4884ZM194.511 1.48839L196.239 0.480645C195.343 -1.05545 193.698 -2 191.92 -2V0V2C192.276 2 192.605 2.18892 192.784 2.49613L194.511 1.48839Z" fill="currentColor" mask="url(#path-1-inside-1_637_55)"/>
</svg>

