<svg width="62" height="62" viewBox="0 0 62 62" fill="none" xmlns="http://www.w3.org/2000/svg">
    <path fill-rule="evenodd" clip-rule="evenodd"
          d="M61.0092 31.9458C61.5481 31.9625 62 31.5391 62 31C62 30.4609 61.5481 30.0375 61.0092 30.0542L56.572 30.1914C56.1389 30.2048 55.8 30.5667 55.8 31C55.8 31.4333 56.1389 31.7952 56.572 31.8086L61.0092 31.9458ZM60.4899 40.5845C60.6561 40.073 60.3578 39.5307 59.8414 39.3809L55.5685 38.1415C55.1562 38.0219 54.7258 38.2609 54.5932 38.6693C54.4605 39.0776 54.6693 39.5214 55.0732 39.6669L59.2591 41.1741C59.765 41.3563 60.3238 41.0959 60.4899 40.5845ZM56.0813 49.2227C56.3978 48.7877 56.2818 48.1804 55.8371 47.8776L52.1621 45.3754C51.8061 45.1329 51.3218 45.226 51.0683 45.5743C50.8149 45.9226 50.8755 46.4116 51.2157 46.6758L54.7268 49.4032C55.1517 49.7333 55.7647 49.6576 56.0813 49.2227ZM49.2227 56.0813C49.6576 55.7647 49.7333 55.1517 49.4032 54.7268L46.6758 51.2157C46.4116 50.8755 45.9226 50.8149 45.5743 51.0683C45.226 51.3218 45.1329 51.8061 45.3754 52.1621L47.8776 55.8371C48.1804 56.2818 48.7877 56.3978 49.2227 56.0813ZM40.5845 60.4899C41.0959 60.3238 41.3563 59.765 41.1741 59.2591L39.6669 55.0732C39.5214 54.6693 39.0776 54.4605 38.6693 54.5932C38.2609 54.7258 38.0219 55.1562 38.1415 55.5685L39.3809 59.8414C39.5307 60.3578 40.073 60.6561 40.5845 60.4899ZM31 62C31.5391 62 31.9625 61.5481 31.9458 61.0092L31.8086 56.572C31.7952 56.1389 31.4333 55.8 31 55.8C30.5667 55.8 30.2048 56.1389 30.1914 56.572L30.0542 61.0092C30.0375 61.5481 30.4609 62 31 62ZM21.4155 60.4899C21.927 60.6561 22.4693 60.3578 22.6191 59.8414L23.8585 55.5685C23.9781 55.1562 23.739 54.7258 23.3307 54.5932C22.9224 54.4605 22.4786 54.6693 22.3331 55.0732L20.8259 59.2591C20.6437 59.765 20.9041 60.3238 21.4155 60.4899ZM12.7773 56.0813C13.2123 56.3978 13.8196 56.2818 14.1224 55.8371L16.6246 52.1621C16.8671 51.8061 16.774 51.3218 16.4257 51.0683C16.0774 50.8149 15.5884 50.8755 15.3242 51.2157L12.5968 54.7268C12.2667 55.1517 12.3424 55.7647 12.7773 56.0813ZM5.91874 49.2227C6.23531 49.6576 6.8483 49.7333 7.27315 49.4032L10.7843 46.6758C11.1245 46.4116 11.1851 45.9226 10.9316 45.5743C10.6782 45.226 10.1939 45.1329 9.83787 45.3754L6.16287 47.8776C5.7182 48.1804 5.60217 48.7877 5.91874 49.2227ZM1.51005 40.5845C1.67616 41.0959 2.235 41.3563 2.74094 41.1741L6.92676 39.6669C7.33072 39.5214 7.53947 39.0776 7.40684 38.6693C7.27422 38.2609 6.8438 38.0219 6.43145 38.1415L2.15865 39.3809C1.64219 39.5307 1.34394 40.073 1.51005 40.5845ZM0.990766 31.9458C0.451905 31.9625 0 31.5391 0 31C0 30.4609 0.451907 30.0375 0.990768 30.0542L5.42801 30.1914C5.86106 30.2048 6.2 30.5667 6.2 31C6.2 31.4333 5.86106 31.7952 5.42801 31.8086L0.990766 31.9458ZM1.51006 21.4155C1.34395 21.927 1.64219 22.4693 2.15865 22.6191L6.43145 23.8585C6.8438 23.9781 7.27422 23.739 7.40684 23.3307C7.53947 22.9224 7.33072 22.4786 6.92676 22.3331L2.74094 20.8259C2.235 20.6437 1.67616 20.9041 1.51006 21.4155ZM5.91874 12.7773C5.60217 13.2123 5.71819 13.8196 6.16287 14.1224L9.83787 16.6246C10.1939 16.8671 10.6782 16.774 10.9316 16.4257C11.1851 16.0775 11.1245 15.5884 10.7843 15.3242L7.27315 12.5968C6.8483 12.2667 6.2353 12.3424 5.91874 12.7773ZM12.7773 5.91874C12.3424 6.2353 12.2667 6.8483 12.5968 7.27315L15.3242 10.7843C15.5884 11.1245 16.0775 11.1851 16.4257 10.9316C16.774 10.6782 16.8671 10.1939 16.6246 9.83787L14.1224 6.16287C13.8196 5.71819 13.2123 5.60217 12.7773 5.91874ZM21.4155 1.51005C20.9041 1.67616 20.6437 2.235 20.8259 2.74094L22.3331 6.92676C22.4786 7.33072 22.9224 7.53947 23.3307 7.40684C23.7391 7.27422 23.9781 6.8438 23.8585 6.43145L22.6191 2.15865C22.4693 1.64219 21.927 1.34395 21.4155 1.51005ZM31 0C30.4609 0 30.0375 0.451905 30.0542 0.990766L30.1914 5.42801C30.2048 5.86106 30.5667 6.2 31 6.2C31.4333 6.2 31.7952 5.86106 31.8086 5.42801L31.9458 0.990768C31.9625 0.451907 31.5391 0 31 0ZM40.5845 1.51006C40.073 1.34395 39.5307 1.64219 39.3809 2.15865L38.1415 6.43145C38.0219 6.8438 38.2609 7.27422 38.6693 7.40684C39.0776 7.53947 39.5214 7.33072 39.6669 6.92676L41.1741 2.74094C41.3563 2.235 41.0959 1.67616 40.5845 1.51006ZM49.2227 5.91874C48.7877 5.60217 48.1804 5.71819 47.8776 6.16287L45.3754 9.83787C45.1329 10.1939 45.226 10.6782 45.5743 10.9316C45.9226 11.1851 46.4116 11.1245 46.6758 10.7843L49.4032 7.27315C49.7333 6.8483 49.6576 6.23531 49.2227 5.91874ZM56.0813 12.7773C55.7647 12.3424 55.1517 12.2667 54.7268 12.5968L51.2157 15.3242C50.8755 15.5884 50.8149 16.0774 51.0683 16.4257C51.3218 16.774 51.8061 16.8671 52.1621 16.6246L55.8371 14.1224C56.2818 13.8196 56.3978 13.2123 56.0813 12.7773ZM60.4899 21.4155C60.3238 20.9041 59.765 20.6437 59.2591 20.8259L55.0732 22.3331C54.6693 22.4786 54.4605 22.9224 54.5932 23.3307C54.7258 23.739 55.1562 23.9781 55.5685 23.8585L59.8414 22.6191C60.3578 22.4693 60.6561 21.927 60.4899 21.4155Z"
          fill="#F2AE09"/>
</svg>
