<svg width="22" height="9" viewBox="0 0 22 9" fill="none" xmlns="http://www.w3.org/2000/svg">
    <g clip-path="url(#clip0_2661_2976)">
        <path d="M12.6787 4.5V0.488203C12.6787 0.127228 13.0648 -0.108593 13.3952 0.0505795L17.6545 2.1027L21.7219 4.06238C22.0925 4.24094 22.0925 4.75906 21.7219 4.93763L17.6545 6.89731L13.3952 8.94943C13.0648 9.10861 12.6787 8.87279 12.6787 8.51181V4.5Z"
              fill="#D9D9D9"/>
        <path d="M9.69538 1.99438H8.78383C8.50923 1.99438 8.28662 2.21268 8.28662 2.48197V6.51811C8.28662 6.7874 8.50923 7.0057 8.78383 7.0057H9.69538C9.96998 7.0057 10.1926 6.7874 10.1926 6.51811V2.48197C10.1926 2.21268 9.96998 1.99438 9.69538 1.99438Z"
              fill="#D9D9D9"/>
        <path d="M5.30377 1.99438H4.39223C4.11763 1.99438 3.89502 2.21268 3.89502 2.48197V6.51811C3.89502 6.7874 4.11763 7.0057 4.39223 7.0057H5.30377C5.57838 7.0057 5.80098 6.7874 5.80098 6.51811V2.48197C5.80098 2.21268 5.57838 1.99438 5.30377 1.99438Z"
              fill="#D9D9D9"/>
        <path d="M1.40876 1.99438H0.497208C0.222608 1.99438 0 2.21268 0 2.48197V6.51811C0 6.7874 0.222608 7.0057 0.497208 7.0057H1.40876C1.68336 7.0057 1.90596 6.7874 1.90596 6.51811V2.48197C1.90596 2.21268 1.68336 1.99438 1.40876 1.99438Z"
              fill="#D9D9D9"/>
    </g>
    <defs>
        <clipPath id="clip0_2661_2976">
            <rect width="22" height="9" fill="white"/>
        </clipPath>
    </defs>
</svg>
