<?xml version="1.0" encoding="UTF-8"?>
<svg id="Layer_2" data-name="Layer 2" xmlns="http://www.w3.org/2000/svg" viewBox="0 0 895.73796 144.00008">
    <g id="Layer_2-2" data-name="Layer 2">
        <g>
            <g>
                <path d="M330.24821,55.10018l-6.4502,23.35986h12.78027l-6.33008-23.35986ZM330.24821,55.10018l-6.4502,23.35986h12.78027l-6.33008-23.35986ZM330.24821,55.10018l-6.4502,23.35986h12.78027l-6.33008-23.35986ZM330.24821,55.10018l-6.4502,23.35986h12.78027l-6.33008-23.35986ZM330.24821,55.10018l-6.4502,23.35986h12.78027l-6.33008-23.35986ZM330.24821,55.10018l-6.4502,23.35986h12.78027l-6.33008-23.35986ZM330.24821,55.10018l-6.4502,23.35986h12.78027l-6.33008-23.35986ZM694.36833,55.10018l-6.4502,23.35986h12.79004l-6.33984-23.35986ZM330.24821,55.10018l-6.4502,23.35986h12.78027l-6.33008-23.35986ZM694.36833,55.10018l-6.4502,23.35986h12.79004l-6.33984-23.35986ZM694.36833,55.10018l-6.4502,23.35986h12.79004l-6.33984-23.35986ZM330.24821,55.10018l-6.4502,23.35986h12.78027l-6.33008-23.35986ZM330.24821,55.10018l-6.4502,23.35986h12.78027l-6.33008-23.35986ZM330.24821,55.10018l-6.4502,23.35986h12.78027l-6.33008-23.35986ZM330.24821,55.10018l-6.4502,23.35986h12.78027l-6.33008-23.35986ZM330.24821,55.10018l-6.4502,23.35986h12.78027l-6.33008-23.35986Z"
                      style="fill: #d9d9d9; stroke-width: 0px;"/>
                <path d="M139.72119.00008l41.56982,72-41.56982,72h733.76676c12.28027,0,22.25-9.94995,22.25-22.23999V.00008H139.72119ZM263.06803,110.93001h-27.3501l-26.13965-77.84985h25.01953l14.79004,49.05005,14.79004-49.05005h25.03027l-26.14014,77.84985ZM345.36833,110.93001l-3.56006-12.8999h-23.22998l-3.56006,12.8999h-24.68994l26.12988-77.84985h27.46973l26.13037,77.84985h-24.68994ZM459.47819,110.93001h-21.45996l-28.14014-38.36987v38.36987h-22.79004V33.08016h21.68018l27.90967,37.91992v-37.91992h22.80029v77.84985ZM504.96794,110.93001h-23.12988V33.08016h23.12988v77.84985ZM572.80827,110.93001h-45.47998V33.08016h23.12988v55.60986h25.46973l-3.11963,22.23999ZM638.76823,110.93001h-45.49023V33.08016h23.13037v55.60986h25.46973l-3.10986,22.23999ZM709.49821,110.93001l-3.56006-12.8999h-23.24023l-3.56006,12.8999h-24.68994l26.13037-77.84985h27.47998l26.12988,77.84985h-24.68994ZM879.04801,121.76009c0,3.06006-2.48975,5.56006-5.56006,5.56006h-105.06982V16.68001h110.62988v105.08008Z"
                      style="fill: #d9d9d9; stroke-width: 0px;"/>
                <path d="M836.55827,59.61019v-26.53003h-26.24023v26.53003h-24.77979v24.79004h24.77979v26.52979h26.24023v-26.52979h25.36963v-24.79004h-25.36963Z" style="fill: #d9d9d9; stroke-width: 0px;"/>
            </g>
            <g>
                <g>
                    <polygon points="45.32227 137.49976 7.50586 71.99976 45.32227 6.49976 120.95508 6.49976 158.77148 71.99976 120.95508 137.49976 45.32227 137.49976" style="stroke-width: 0px;"/>
                    <path d="M117.20264,13l34.06348,59-34.06348,59H49.07471L15.01123,72,49.07471,13h68.12793M124.70801,0H41.56934L0,72l41.56934,72h83.13867l41.56934-72L124.70801,0h0Z"
                          style="fill: #f2ae09; stroke-width: 0px;"/>
                </g>
                <polygon points="50.51123 38.68677 64.74121 116.91675 57.21143 116.91675 31.28125 71.99683 50.51123 38.68677" style="fill: #fff; stroke-width: 0px;"/>
                <polygon points="112.01123 32.17676 67.89111 61.58667 61.62109 27.08667 109.07129 27.08667 112.01123 32.17676" style="fill: #fff; stroke-width: 0px;"/>
                <polygon points="71.67139 82.35669 117.64111 102.06665 109.07129 116.91675 77.95117 116.91675 71.67139 82.35669" style="fill: #fff; stroke-width: 0px;"/>
                <polygon points="135.00146 71.99683 124.19141 90.72681 77.58105 70.74683 118.52148 43.45679 135.00146 71.99683" style="fill: #fff; stroke-width: 0px;"/>
            </g>
        </g>
    </g>
</svg>