<?xml version="1.0" encoding="UTF-8" ?>
<!DOCTYPE svg PUBLIC "-//W3C//DTD SVG 1.1//EN" "http://www.w3.org/Graphics/SVG/1.1/DTD/svg11.dtd">
<svg width="512pt" height="512pt" viewBox="0 0 512 512" version="1.1" xmlns="http://www.w3.org/2000/svg">
<g id="#ffffffff">
<path fill="#ffffff" opacity="1.00" d=" M 478.48 0.00 L 485.47 0.00 C 491.59 1.15 497.62 3.51 502.20 7.84 C 507.79 12.80 511.05 19.94 512.00 27.29 L 512.00 32.67 C 511.13 41.42 506.21 49.08 499.70 54.75 C 419.87 134.56 340.06 214.39 260.24 294.20 C 246.16 308.14 232.36 322.38 218.10 336.13 C 204.18 321.77 189.61 308.03 175.89 293.50 C 191.55 278.29 206.81 262.65 222.31 247.28 C 301.66 167.93 381.01 88.57 460.36 9.22 C 465.15 4.17 471.69 1.20 478.48 0.00 Z" />
<path fill="#ffffff" opacity="1.00" d=" M 134.23 314.22 C 139.79 309.28 149.03 309.47 154.31 314.72 C 168.68 329.01 183.00 343.33 197.29 357.69 C 202.50 363.01 202.72 372.19 197.78 377.77 C 192.99 382.94 187.68 387.64 182.97 392.87 C 186.84 396.69 190.79 400.45 194.47 404.46 C 199.45 410.32 198.77 419.88 193.04 424.99 C 187.62 430.11 178.41 430.22 172.92 425.15 C 169.15 421.50 165.46 417.76 161.79 414.01 C 154.45 420.84 147.72 428.34 140.31 435.10 C 119.24 413.92 98.16 392.74 76.91 371.73 C 83.63 364.30 91.14 357.56 98.01 350.25 C 94.29 346.57 90.56 342.90 86.91 339.15 C 81.60 333.50 81.89 323.80 87.49 318.44 C 92.85 312.98 102.40 312.73 108.02 317.95 C 111.79 321.57 115.47 325.29 119.13 329.03 C 124.39 324.35 129.07 319.02 134.23 314.22 Z" />
<path fill="#ffffff" opacity="1.00" d=" M 55.32 392.86 C 57.11 393.95 58.41 395.64 59.91 397.07 C 79.66 416.75 99.27 436.55 119.09 456.15 C 112.41 463.58 104.99 470.40 97.99 477.55 C 76.78 456.34 55.57 435.14 34.37 413.92 C 41.34 406.89 48.45 400.00 55.32 392.86 Z" />
<path fill="#ffffff" opacity="1.00" d=" M 0.00 465.10 C 0.53 453.94 5.28 443.09 13.18 435.18 C 34.41 456.38 55.64 477.59 76.83 498.84 C 69.31 506.35 59.19 510.82 48.67 512.00 L 40.65 512.00 C 28.10 510.30 16.07 503.91 8.66 493.48 C 3.69 486.87 1.04 478.83 0.00 470.69 L 0.00 465.10 Z" />
</g>
</svg>
