<svg width="23" height="48" viewBox="0 0 23 48" fill="none" xmlns="http://www.w3.org/2000/svg">
    <mask id="path-1-inside-1_109_221" fill="white">
        <path d="M22.388 22.4884C22.9329 23.4225 22.9329 24.5775 22.388 25.5116L10.138 46.5116C9.60036 47.4333 8.61366 48 7.54666 48L3.0046 48C0.689224 48 -0.753389 45.4884 0.413261 43.4884L10.8997 25.5116C11.4446 24.5775 11.4446 23.4225 10.8997 22.4884L0.413266 4.51161C-0.753383 2.51164 0.689233 1.20467e-07 3.00461 5.25299e-07L7.54666 1.31946e-06C8.61367 1.50602e-06 9.60037 0.566735 10.138 1.48839L22.388 22.4884Z"/>
    </mask>
    <path d="M22.388 22.4884C22.9329 23.4225 22.9329 24.5775 22.388 25.5116L10.138 46.5116C9.60036 47.4333 8.61366 48 7.54666 48L3.0046 48C0.689224 48 -0.753389 45.4884 0.413261 43.4884L10.8997 25.5116C11.4446 24.5775 11.4446 23.4225 10.8997 22.4884L0.413266 4.51161C-0.753383 2.51164 0.689233 1.20467e-07 3.00461 5.25299e-07L7.54666 1.31946e-06C8.61367 1.50602e-06 9.60037 0.566735 10.138 1.48839L22.388 22.4884Z" fill="black" fill-opacity="0.5"/>
    <path d="M10.8997 25.5116L12.6273 26.5194L10.8997 25.5116ZM10.8997 22.4884L12.6273 21.4806L10.8997 22.4884ZM3.0046 48L3.0046 50L3.0046 48ZM10.138 46.5116L8.41043 45.5039L10.138 46.5116ZM7.54666 48L7.54666 46L7.54666 48ZM22.388 25.5116L20.6604 24.5039L22.388 25.5116ZM22.388 22.4884L20.6604 23.4961L22.388 22.4884ZM22.388 25.5116L20.6604 24.5039L8.41043 45.5039L10.138 46.5116L11.8655 47.5194L24.1156 26.5194L22.388 25.5116ZM7.54666 48L7.54666 46L3.0046 46L3.0046 48L3.0046 50L7.54666 50L7.54666 48ZM0.413261 43.4884L2.14082 44.4961L12.6273 26.5194L10.8997 25.5116L9.17216 24.5039L-1.3143 42.4806L0.413261 43.4884ZM10.8997 22.4884L12.6273 21.4806L2.14082 3.50387L0.413266 4.51161L-1.31429 5.51935L9.17216 23.4961L10.8997 22.4884ZM3.00461 5.25299e-07L3.00461 2L7.54666 2L7.54666 1.31946e-06L7.54666 -2L3.00461 -2L3.00461 5.25299e-07ZM10.138 1.48839L8.41044 2.49613L20.6604 23.4961L22.388 22.4884L24.1156 21.4807L11.8656 0.480647L10.138 1.48839ZM7.54666 1.31946e-06L7.54666 2C7.90233 2 8.23123 2.18891 8.41044 2.49613L10.138 1.48839L11.8656 0.480647C10.9695 -1.05544 9.325 -2 7.54666 -2L7.54666 1.31946e-06ZM0.413266 4.51161L2.14082 3.50387C1.75194 2.83722 2.23281 2 3.00461 2L3.00461 5.25299e-07L3.00461 -2C-0.854344 -2 -3.25871 2.18606 -1.31429 5.51935L0.413266 4.51161ZM10.8997 25.5116L12.6273 26.5194C13.5354 24.9625 13.5354 23.0375 12.6273 21.4806L10.8997 22.4884L9.17216 23.4961C9.35379 23.8075 9.35379 24.1925 9.17216 24.5039L10.8997 25.5116ZM3.0046 48L3.0046 46C2.23281 46 1.75194 45.1628 2.14082 44.4961L0.413261 43.4884L-1.3143 42.4806C-3.25871 45.8139 -0.854357 50 3.0046 50L3.0046 48ZM10.138 46.5116L8.41043 45.5039C8.23122 45.8111 7.90233 46 7.54666 46L7.54666 48L7.54666 50C9.32499 50 10.9695 49.0554 11.8655 47.5194L10.138 46.5116ZM22.388 25.5116L24.1156 26.5194C25.0237 24.9625 25.0237 23.0375 24.1156 21.4807L22.388 22.4884L20.6604 23.4961C20.8421 23.8075 20.8421 24.1925 20.6604 24.5039L22.388 25.5116Z" fill="currentColor" mask="url(#path-1-inside-1_109_221)"/>
</svg>
