<svg width="33" height="48" viewBox="0 0 33 48" fill="none" xmlns="http://www.w3.org/2000/svg">
    <mask id="path-1-inside-1_109_215" fill="white">
        <path d="M32.3871 22.4884C32.932 23.4225 32.932 24.5775 32.3871 25.5116L20.1371 46.5116C19.5995 47.4333 18.6128 48 17.5458 48L3.00374 48C0.688369 48 -0.754243 45.4884 0.412406 43.4884L10.8989 25.5116C11.4437 24.5775 11.4437 23.4225 10.8989 22.4884L0.412411 4.51161C-0.754237 2.51164 0.688378 1.20467e-07 3.00375 5.25299e-07L17.5458 3.06791e-06C18.6128 3.25447e-06 19.5995 0.566737 20.1371 1.48839L32.3871 22.4884Z"/>
    </mask>
    <path d="M32.3871 22.4884C32.932 23.4225 32.932 24.5775 32.3871 25.5116L20.1371 46.5116C19.5995 47.4333 18.6128 48 17.5458 48L3.00374 48C0.688369 48 -0.754243 45.4884 0.412406 43.4884L10.8989 25.5116C11.4437 24.5775 11.4437 23.4225 10.8989 22.4884L0.412411 4.51161C-0.754237 2.51164 0.688378 1.20467e-07 3.00375 5.25299e-07L17.5458 3.06791e-06C18.6128 3.25447e-06 19.5995 0.566737 20.1371 1.48839L32.3871 22.4884Z" fill="black" fill-opacity="0.5"/>
    <path d="M10.8989 22.4884L9.1713 23.4961L10.8989 22.4884ZM3.00374 48L3.00374 50L3.00374 48ZM20.1371 46.5116L21.8647 47.5194L20.1371 46.5116ZM17.5458 48L17.5458 50L17.5458 48ZM32.3871 25.5116L34.1147 26.5194L32.3871 25.5116ZM32.3871 22.4884L34.1147 21.4807L32.3871 22.4884ZM32.3871 25.5116L30.6596 24.5039L18.4096 45.5039L20.1371 46.5116L21.8647 47.5194L34.1147 26.5194L32.3871 25.5116ZM17.5458 48L17.5458 46L3.00374 46L3.00374 48L3.00374 50L17.5458 50L17.5458 48ZM0.412406 43.4884L2.13996 44.4961L12.6264 26.5194L10.8989 25.5116L9.1713 24.5039L-1.31515 42.4806L0.412406 43.4884ZM10.8989 22.4884L12.6264 21.4806L2.13997 3.50387L0.412411 4.51161L-1.31515 5.51935L9.1713 23.4961L10.8989 22.4884ZM3.00375 5.25299e-07L3.00375 2L17.5458 2L17.5458 3.06791e-06L17.5458 -2L3.00375 -2L3.00375 5.25299e-07ZM20.1371 1.48839L18.4096 2.49613L30.6596 23.4961L32.3871 22.4884L34.1147 21.4807L21.8647 0.480649L20.1371 1.48839ZM17.5458 3.06791e-06L17.5458 2C17.9015 2 18.2304 2.18891 18.4096 2.49613L20.1371 1.48839L21.8647 0.480649C20.9687 -1.05544 19.3241 -2 17.5458 -2L17.5458 3.06791e-06ZM0.412411 4.51161L2.13997 3.50387C1.75109 2.83722 2.23196 2 3.00375 2L3.00375 5.25299e-07L3.00375 -2C-0.855199 -2 -3.25956 2.18606 -1.31515 5.51935L0.412411 4.51161ZM10.8989 25.5116L12.6264 26.5194C13.5346 24.9625 13.5346 23.0375 12.6264 21.4806L10.8989 22.4884L9.1713 23.4961C9.35293 23.8075 9.35293 24.1925 9.1713 24.5039L10.8989 25.5116ZM3.00374 48L3.00374 46C2.23195 46 1.75108 45.1628 2.13996 44.4961L0.412406 43.4884L-1.31515 42.4806C-3.25957 45.8139 -0.855213 50 3.00374 50L3.00374 48ZM20.1371 46.5116L18.4096 45.5039C18.2304 45.8111 17.9015 46 17.5458 46L17.5458 48L17.5458 50C19.3241 50 20.9686 49.0555 21.8647 47.5194L20.1371 46.5116ZM32.3871 25.5116L34.1147 26.5194C35.0228 24.9625 35.0228 23.0375 34.1147 21.4807L32.3871 22.4884L30.6596 23.4961C30.8412 23.8075 30.8412 24.1925 30.6596 24.5039L32.3871 25.5116Z" fill="currentColor" mask="url(#path-1-inside-1_109_215)"/>
</svg>
