<?xml version="1.0" encoding="UTF-8" standalone="no"?>
<!DOCTYPE svg PUBLIC "-//W3C//DTD SVG 20010904//EN" "http://www.w3.org/TR/2001/REC-SVG-20010904/DTD/svg10.dtd"[]>
<svg version="1.1" id="Frosty Editor v1.0.6.3" xmlns="http://www.w3.org/2000/svg" d1p1:xlink="http://www.w3.org/1999/xlink" viewBox="0 0 64 64" xmlns:d1p1="xmlns">
  <path stroke="none" fill="#ffffffff" d="M 14.500,49.400 C 12.867,48.467 11.233,47.533 9.600,46.600 8.700,46.100 8.100,45.100 8.100,44.000 8.100,42.133 8.100,40.267 8.100,38.400 8.767,38.233 9.433,38.067 10.100,37.900 10.100,39.967 10.100,42.033 10.100,44.100 10.100,44.500 10.300,44.800 10.600,45.000 12.400,46.000 14.200,47.000 16.000,48.000 15.500,48.467 15.000,48.933 14.500,49.400 14.500,49.400 14.500,49.400 14.500,49.400 Z " />
  <path stroke="none" fill="#ffffffff" d="M 25.700,8.300 C 27.333,7.367 28.967,6.433 30.600,5.500 31.500,5.000 32.700,5.000 33.600,5.500 35.233,6.433 36.867,7.367 38.500,8.300 38.333,8.967 38.167,9.633 38.000,10.300 36.233,9.267 34.467,8.233 32.700,7.200 32.400,7.000 32.000,7.000 31.700,7.200 29.933,8.233 28.167,9.267 26.400,10.300 26.167,9.633 25.933,8.967 25.700,8.300 25.700,8.300 25.700,8.300 25.700,8.300 Z " />
  <path stroke="none" fill="#ffffffff" d="M 49.500,14.700 C 51.133,15.633 52.767,16.567 54.400,17.500 55.300,18.000 55.900,19.000 55.900,20.100 55.900,21.967 55.900,23.833 55.900,25.700 55.233,25.867 54.567,26.033 53.900,26.200 53.900,24.133 53.900,22.067 53.900,20.000 53.900,19.600 53.700,19.300 53.400,19.100 51.600,18.133 49.800,17.167 48.000,16.200 48.500,15.700 49.000,15.200 49.500,14.700 49.500,14.700 49.500,14.700 49.500,14.700 Z " />
  <path stroke="none" fill="#ffffffff" d="M 48.000,48.000 C 49.767,46.967 51.533,45.933 53.300,44.900 53.600,44.700 53.800,44.400 53.800,44.000 53.800,41.933 53.800,39.867 53.800,37.800 54.467,37.967 55.133,38.133 55.800,38.300 55.800,40.167 55.800,42.033 55.800,43.900 55.800,45.000 55.200,46.000 54.300,46.500 52.667,47.433 51.033,48.367 49.400,49.300 48.933,48.867 48.467,48.433 48.000,48.000 48.000,48.000 48.000,48.000 48.000,48.000 Z " />
  <path stroke="none" fill="#ffffffff" d="M 16.000,16.200 C 14.233,17.233 12.467,18.267 10.700,19.300 10.400,19.500 10.200,19.800 10.200,20.200 10.200,22.267 10.200,24.333 10.200,26.400 9.533,26.233 8.867,26.067 8.200,25.900 8.200,24.033 8.200,22.167 8.200,20.300 8.200,19.200 8.800,18.200 9.700,17.700 11.333,16.767 12.967,15.833 14.600,14.900 15.067,15.333 15.533,15.767 16.000,16.200 16.000,16.200 16.000,16.200 16.000,16.200 Z " />
  <path stroke="none" fill="#ffffffff" d="M 38.300,55.900 C 36.667,56.833 35.033,57.767 33.400,58.700 32.500,59.200 31.300,59.200 30.400,58.700 28.767,57.767 27.133,56.833 25.500,55.900 25.667,55.233 25.833,54.567 26.000,53.900 27.767,54.933 29.533,55.967 31.300,57.000 31.600,57.200 32.000,57.200 32.300,57.000 34.067,55.967 35.833,54.933 37.600,53.900 37.833,54.567 38.067,55.233 38.300,55.900 38.300,55.900 38.300,55.900 38.300,55.900 Z " />
</svg>