<?xml version="1.0" encoding="UTF-8" standalone="no"?>
<!DOCTYPE svg PUBLIC "-//W3C//DTD SVG 20010904//EN" "http://www.w3.org/TR/2001/REC-SVG-20010904/DTD/svg10.dtd"[]>
<svg version="1.1" id="Frosty Editor v1.0.6.3" xmlns="http://www.w3.org/2000/svg" d1p1:xlink="http://www.w3.org/1999/xlink" viewBox="0 0 64 64" xmlns:d1p1="xmlns">
  <path stroke="none" fill="none" d="M 58.000,44.880 C 58.000,36.293 58.000,27.707 58.000,19.120 57.993,17.809 57.293,16.599 56.160,15.940 48.717,11.647 41.273,7.353 33.830,3.060 32.698,2.406 31.302,2.406 30.170,3.060 22.733,7.353 15.297,11.647 7.860,15.940 6.719,16.594 6.011,17.805 6.000,19.120 6.000,27.707 6.000,36.293 6.000,44.880 6.007,46.191 6.707,47.401 7.840,48.060 15.283,52.353 22.727,56.647 30.170,60.940 31.304,61.590 32.697,61.590 33.830,60.940 41.267,56.647 48.703,52.353 56.140,48.060 57.281,47.406 57.989,46.195 58.000,44.880 58.000,44.880 58.000,44.880 58.000,44.880 Z " />
  <path stroke="none" fill="#ffffffff" d="M 30.170,60.940 C 22.733,56.647 15.297,52.353 7.860,48.060 6.719,47.406 6.011,46.195 6.000,44.880 6.000,36.293 6.000,27.707 6.000,19.120 6.007,17.809 6.707,16.599 7.840,15.940 15.283,11.647 22.727,7.353 30.170,3.060 31.302,2.406 32.698,2.406 33.830,3.060 41.267,7.353 48.703,11.647 56.140,15.940 57.281,16.594 57.989,17.805 58.000,19.120 58.000,27.707 58.000,36.293 58.000,44.880 57.993,46.191 57.293,47.401 56.160,48.060 48.717,52.353 41.273,56.647 33.830,60.940 32.697,61.590 31.304,61.590 30.170,60.940 30.170,60.940 30.170,60.940 30.170,60.940 Z M 57.430,13.710 C 49.993,9.417 42.557,5.123 35.120,0.830 33.188,-0.281 30.812,-0.281 28.880,0.830 21.443,5.123 14.007,9.417 6.570,13.710 4.640,14.829 3.452,16.890 3.450,19.120 3.450,27.707 3.450,36.293 3.450,44.880 3.452,47.110 4.640,49.171 6.570,50.290 14.007,54.583 21.443,58.877 28.880,63.170 30.813,64.276 33.187,64.276 35.120,63.170 42.557,58.877 49.993,54.583 57.430,50.290 59.360,49.171 60.548,47.110 60.550,44.880 60.550,36.293 60.550,27.707 60.550,19.120 60.548,16.890 59.360,14.829 57.430,13.710 57.430,13.710 57.430,13.710 57.430,13.710 Z " />
</svg>