<?xml version="1.0" encoding="UTF-8" standalone="no"?>
<!DOCTYPE svg PUBLIC "-//W3C//DTD SVG 20010904//EN" "http://www.w3.org/TR/2001/REC-SVG-20010904/DTD/svg10.dtd"[]>
<svg version="1.1" id="Frosty Editor v1.0.6.3" xmlns="http://www.w3.org/2000/svg" d1p1:xlink="http://www.w3.org/1999/xlink" viewBox="0 0 64 64" xmlns:d1p1="xmlns">
  <path stroke="none" fill="#ffffffff" d="M 60.900,33.800 C 59.933,35.533 58.967,37.267 58.000,39.000 58.000,40.967 58.000,42.933 58.000,44.900 58.000,46.200 57.300,47.400 56.200,48.100 54.467,49.067 52.733,50.033 51.000,51.000 50.000,52.700 49.000,54.400 48.000,56.100 47.300,57.200 46.100,57.900 44.800,57.900 42.867,57.900 40.933,57.900 39.000,57.900 37.300,58.900 35.600,59.900 33.900,60.900 33.300,61.200 32.700,61.400 32.100,61.400 31.500,61.400 30.800,61.200 30.300,60.900 28.533,59.933 26.767,58.967 25.000,58.000 23.033,58.000 21.067,58.000 19.100,58.000 17.800,58.000 16.600,57.300 15.900,56.200 14.933,54.467 13.967,52.733 13.000,51.000 11.300,50.000 9.600,49.000 7.900,48.000 6.700,47.400 6.000,46.200 6.000,44.900 6.000,42.933 6.000,40.967 6.000,39.000 5.000,37.300 4.000,35.600 3.000,33.900 2.300,32.800 2.300,31.400 3.000,30.200 4.000,28.467 5.000,26.733 6.000,25.000 6.000,23.033 6.000,21.067 6.000,19.100 6.000,17.800 6.700,16.600 7.800,15.900 9.500,14.900 11.200,13.900 12.900,12.900 13.900,11.200 14.900,9.500 15.900,7.800 16.600,6.700 17.800,6.000 19.100,6.000 21.067,6.000 23.033,6.000 25.000,6.000 26.700,5.000 28.400,4.000 30.100,3.000 30.700,2.700 31.300,2.500 31.900,2.500 32.500,2.500 33.200,2.700 33.700,3.000 35.467,4.000 37.233,5.000 39.000,6.000 40.967,6.000 42.933,6.000 44.900,6.000 46.200,6.000 47.400,6.700 48.100,7.800 49.100,9.500 50.100,11.200 51.100,12.900 52.800,13.900 54.500,14.900 56.200,15.900 57.300,16.600 58.000,17.800 58.000,19.100 58.000,21.067 58.000,23.033 58.000,25.000 59.000,26.700 60.000,28.400 61.000,30.100 61.600,31.300 61.600,32.700 60.900,33.800 60.900,33.800 60.900,33.800 60.900,33.800 Z M 63.200,28.900 C 62.333,27.400 61.467,25.900 60.600,24.400 60.600,22.667 60.600,20.933 60.600,19.200 60.600,17.000 59.400,14.900 57.500,13.800 56.000,12.933 54.500,12.067 53.000,11.200 52.133,9.700 51.267,8.200 50.400,6.700 49.300,4.800 47.200,3.600 45.000,3.600 43.267,3.600 41.533,3.600 39.800,3.600 38.300,2.733 36.800,1.867 35.300,1.000 33.400,-0.100 31.000,-0.100 29.100,1.000 27.600,1.867 26.100,2.733 24.600,3.600 22.867,3.600 21.133,3.600 19.400,3.600 17.200,3.600 15.100,4.800 14.000,6.700 13.133,8.200 12.267,9.700 11.400,11.200 9.900,12.067 8.400,12.933 6.900,13.800 5.000,14.900 3.800,17.000 3.800,19.200 3.800,20.933 3.800,22.667 3.800,24.400 2.933,25.900 2.067,27.400 1.200,28.900 0.100,30.800 0.100,33.200 1.200,35.100 2.067,36.600 2.933,38.100 3.800,39.600 3.800,41.333 3.800,43.067 3.800,44.800 3.800,47.000 5.000,49.100 6.900,50.200 8.400,51.067 9.900,51.933 11.400,52.800 12.267,54.300 13.133,55.800 14.000,57.300 15.100,59.200 17.200,60.400 19.400,60.400 21.133,60.400 22.867,60.400 24.600,60.400 26.100,61.267 27.600,62.133 29.100,63.000 31.000,64.100 33.400,64.100 35.300,63.000 36.800,62.133 38.300,61.267 39.800,60.400 41.533,60.400 43.267,60.400 45.000,60.400 47.200,60.400 49.300,59.200 50.400,57.300 51.267,55.800 52.133,54.300 53.000,52.800 54.500,51.933 56.000,51.067 57.500,50.200 59.400,49.100 60.600,47.000 60.600,44.800 60.600,43.067 60.600,41.333 60.600,39.600 61.467,38.100 62.333,36.600 63.200,35.100 64.300,33.200 64.300,30.800 63.200,28.900 63.200,28.900 63.200,28.900 63.200,28.900 Z " />
</svg>