<?xml version="1.0" encoding="UTF-8" standalone="no"?>
<!DOCTYPE svg PUBLIC "-//W3C//DTD SVG 20010904//EN" "http://www.w3.org/TR/2001/REC-SVG-20010904/DTD/svg10.dtd"[]>
<svg version="1.1" id="Frosty Editor v1.0.6.3" xmlns="http://www.w3.org/2000/svg" d1p1:xlink="http://www.w3.org/1999/xlink" viewBox="0 0 64 64" xmlns:d1p1="xmlns">
  <path stroke="none" fill="#ffffffff" d="M 25.500,55.800 C 23.633,55.800 21.767,55.800 19.900,55.800 18.900,55.800 17.900,55.300 17.300,54.300 16.367,52.700 15.433,51.100 14.500,49.500 15.000,49.033 15.500,48.567 16.000,48.100 17.033,49.900 18.067,51.700 19.100,53.500 19.300,53.800 19.600,54.000 20.000,54.000 22.067,53.967 24.133,53.933 26.200,53.900 25.967,54.533 25.733,55.167 25.500,55.800 25.500,55.800 25.500,55.800 25.500,55.800 Z " />
  <path stroke="none" fill="#ffffffff" d="M 14.600,14.600 C 15.533,12.967 16.467,11.333 17.400,9.700 17.900,8.800 19.000,8.200 20.000,8.200 21.867,8.200 23.733,8.200 25.600,8.200 25.800,8.867 26.000,9.533 26.200,10.200 24.167,10.200 22.133,10.200 20.100,10.200 19.700,10.200 19.400,10.400 19.200,10.700 18.200,12.467 17.200,14.233 16.200,16.000 15.667,15.533 15.133,15.067 14.600,14.600 14.600,14.600 14.600,14.600 14.600,14.600 Z " />
  <path stroke="none" fill="#ffffffff" d="M 38.500,8.300 C 40.367,8.300 42.233,8.300 44.100,8.300 45.100,8.300 46.100,8.800 46.700,9.800 47.633,11.400 48.567,13.000 49.500,14.600 49.000,15.067 48.500,15.533 48.000,16.000 46.967,14.200 45.933,12.400 44.900,10.600 44.700,10.300 44.400,10.100 44.000,10.100 41.967,10.167 39.933,10.233 37.900,10.300 38.100,9.633 38.300,8.967 38.500,8.300 38.500,8.300 38.500,8.300 38.500,8.300 Z " />
  <path stroke="none" fill="#ffffffff" d="M 53.800,37.900 C 54.800,36.133 55.800,34.367 56.800,32.600 57.000,32.300 57.000,31.900 56.800,31.600 55.767,29.800 54.733,28.000 53.700,26.200 54.367,26.000 55.033,25.800 55.700,25.600 56.633,27.200 57.567,28.800 58.500,30.400 59.000,31.400 59.000,32.500 58.500,33.400 57.567,35.033 56.633,36.667 55.700,38.300 55.067,38.167 54.433,38.033 53.800,37.900 53.800,37.900 53.800,37.900 53.800,37.900 Z " />
  <path stroke="none" fill="#ffffffff" d="M 10.200,26.300 C 9.200,28.067 8.200,29.833 7.200,31.600 7.000,31.900 7.000,32.300 7.200,32.600 8.233,34.400 9.267,36.200 10.300,38.000 9.633,38.200 8.967,38.400 8.300,38.600 7.367,37.000 6.433,35.400 5.500,33.800 4.900,32.800 5.000,31.700 5.500,30.800 6.433,29.167 7.367,27.533 8.300,25.900 8.933,26.033 9.567,26.167 10.200,26.300 10.200,26.300 10.200,26.300 10.200,26.300 Z " />
  <path stroke="none" fill="#ffffffff" d="M 49.400,49.600 C 48.467,51.233 47.533,52.867 46.600,54.500 46.100,55.400 45.000,56.000 44.000,56.000 42.133,56.000 40.267,56.000 38.400,56.000 38.200,55.333 38.000,54.667 37.800,54.000 39.833,54.000 41.867,54.000 43.900,54.000 44.300,54.000 44.600,53.800 44.800,53.500 45.800,51.733 46.800,49.967 47.800,48.200 48.333,48.667 48.867,49.133 49.400,49.600 49.400,49.600 49.400,49.600 49.400,49.600 Z " />
</svg>