<?xml version="1.0" encoding="UTF-8" standalone="no"?>
<!DOCTYPE svg PUBLIC "-//W3C//DTD SVG 20010904//EN" "http://www.w3.org/TR/2001/REC-SVG-20010904/DTD/svg10.dtd"[]>
<svg version="1.1" id="Frosty Editor v1.0.6.3" xmlns="http://www.w3.org/2000/svg" d1p1:xlink="http://www.w3.org/1999/xlink" viewBox="0 0 69 69" xmlns:d1p1="xmlns">
  <path stroke="none" fill="#ffffffff" d="M 34.800,69.700 C 33.200,69.700 31.600,69.300 30.200,68.500 28.933,67.767 27.667,67.033 26.400,66.300 24.933,66.300 23.467,66.300 22.000,66.300 18.700,66.300 15.600,64.500 14.000,61.700 13.267,60.433 12.533,59.167 11.800,57.900 10.533,57.133 9.267,56.367 8.000,55.600 5.200,54.000 3.400,50.900 3.400,47.600 3.400,46.133 3.400,44.667 3.400,43.200 2.667,41.933 1.933,40.667 1.200,39.400 -0.400,36.600 -0.400,33.000 1.200,30.200 1.933,28.933 2.667,27.667 3.400,26.400 3.400,24.933 3.400,23.467 3.400,22.000 3.400,18.700 5.200,15.600 8.000,14.000 9.267,13.267 10.533,12.533 11.800,11.800 12.533,10.533 13.267,9.267 14.000,8.000 15.600,5.200 18.700,3.400 22.000,3.400 23.467,3.400 24.933,3.400 26.400,3.400 27.667,2.667 28.933,1.933 30.200,1.200 31.600,0.400 33.200,0.000 34.800,0.000 36.400,0.000 38.000,0.400 39.400,1.200 40.667,1.933 41.933,2.667 43.200,3.400 44.667,3.400 46.133,3.400 47.600,3.400 50.900,3.400 54.000,5.200 55.600,8.000 56.333,9.267 57.067,10.533 57.800,11.800 59.067,12.533 60.333,13.267 61.600,14.000 64.400,15.600 66.200,18.700 66.200,22.000 66.200,23.467 66.200,24.933 66.200,26.400 66.933,27.667 67.667,28.933 68.400,30.200 70.000,33.000 70.000,36.600 68.400,39.400 67.667,40.667 66.933,41.933 66.200,43.200 66.200,44.667 66.200,46.133 66.200,47.600 66.200,50.900 64.400,54.000 61.600,55.600 60.333,56.333 59.067,57.067 57.800,57.800 57.067,59.067 56.333,60.333 55.600,61.600 54.000,64.400 50.900,66.200 47.600,66.200 46.133,66.200 44.667,66.200 43.200,66.200 41.933,66.933 40.667,67.667 39.400,68.400 38.000,69.200 36.500,69.700 34.800,69.700 34.800,69.700 34.800,69.700 34.800,69.700 Z " />
</svg>