<svg width="79" height="80" viewBox="0 0 79 80" fill="none" xmlns="http://www.w3.org/2000/svg">
    <g clip-path="url(#clip0_1893_1567)">
        <path d="M77.6926 44.1101L33.6061 78.2468L33.6029 78.2493L32.7914 78.8829L8.53335 78.9964L1.0357 22.2358L13.0753 1.26804L65.0905 22.8646L65.0969 22.8673L65.4475 23.0158L77.6926 44.1101ZM68.5271 42.9218L69.2151 42.3889L68.8306 41.7181L73.6001 43.4347L76.1812 44.3636L74.8035 41.9915L64.6249 24.4665L64.4553 24.1745L64.1434 24.0451L36.7627 12.6826L34.0489 11.5565L35.5123 14.1043L38.2335 18.8422L16.8034 9.93902L15.9921 9.60197L15.6159 10.2547L14.6591 4.92937L14.1739 2.22863L12.8077 4.60829L2.68483 22.2396L2.51641 22.5329L2.56065 22.8683L6.52906 52.9495L6.91609 55.8833L8.38799 53.3162L11.2207 48.3756L14.2794 71.4998L14.3944 72.3687H15.1568L11.1747 75.7709L9.09746 77.5456L11.8295 77.5312L31.9569 77.425L32.2958 77.4232L32.5638 77.2157L56.1747 58.9345L58.4875 57.1438H55.5625H50.1651L68.5271 42.9218Z"
              stroke="#D9D9D9" stroke-width="2"/>
        <path d="M42.8442 58.6438H45.778L29.9612 70.8872L19.218 70.8708L33.5804 58.5862L34.6092 57.7063H33.2554H23.9006L14.7803 41.8157L14.7791 41.8136L14.4573 41.2469L14.0213 40.479L13.5871 41.2479L13.4341 41.519L13.4319 41.5229L12.1273 43.7856L9.50995 23.9146L14.8679 14.5628L18.1069 32.4293L18.1075 32.4329L18.2621 33.323L18.4909 34.64L19.1826 33.4962L19.4434 33.065L19.4435 33.0651L19.4495 33.0546L23.901 25.275H42.7944H43.6641L43.2266 24.5235L42.868 23.9076L42.8663 23.9046L41.7279 21.9178L60.138 29.5589L65.5017 38.9264L48.1455 32.6867L48.1428 32.6858L47.6673 32.5117L46.3663 32.0356L47.0634 33.2328L47.4221 33.849L47.4236 33.8516L51.8126 41.494L42.4104 57.8951L41.9812 58.6438H42.8442ZM37.9379 50.2125H38.2273L38.3715 49.9615L43.0913 41.7428L43.2341 41.494L43.0915 41.2452L38.3717 33.0077L38.2276 32.7562H37.9379H28.4861H28.1969L28.0527 33.0069L23.3144 41.2445L23.1708 41.494L23.3146 41.7435L28.0529 49.9623L28.1972 50.2125H28.4861H37.9379Z"
              stroke="#D9D9D9"/>
    </g>
    <defs>
        <clipPath id="clip0_1893_1567">
            <rect width="79" height="80" fill="white"/>
        </clipPath>
    </defs>
</svg>
