<svg width="198" height="80" viewBox="0 0 198 80" fill="none" xmlns="http://www.w3.org/2000/svg">
    <path d="M67.6881 6.96895L67.5431 6.72222H67.257H28.7432H28.457L28.3121 6.96895L9.05494 39.7467L8.90614 40L9.05494 40.2533L28.3121 73.0311L28.457 73.2778H28.7432H67.257H67.5431L67.6881 73.0311L86.9451 40.2533L87.0939 40L86.9451 39.7467L67.6881 6.96895ZM1.57991 40L24.7862 0.5H71.2139L94.4201 40L71.2139 79.5H24.7862L1.57991 40Z"
          stroke="#D9D9D9"/>
    <path d="M19.2615 40.0025L29.3107 22.8948L37.0019 64.4525H33.6266L19.2615 40.0025Z" stroke="#D9D9D9"/>
    <path d="M62.3713 15.547L63.6477 17.7229L39.7384 33.3889L36.4398 15.547H62.3713Z" stroke="#D9D9D9"/>
    <path d="M45.4867 64.4525L42.1808 46.5787L66.7879 56.9416L62.3719 64.4525H45.4867Z" stroke="#D9D9D9"/>
    <path d="M76.7365 40.0025L70.9959 49.7718L45.9207 39.2117L67.8348 24.8529L76.7365 40.0025Z" stroke="#D9D9D9"/>
    <g clip-path="url(#clip0_1893_1513)">
        <path d="M180.065 2.90165C189.251 5.87446 197.009 14.0911 197.022 24.034C197.038 35.5498 189.545 44.2478 178.492 46.9835C171.942 48.6045 166.458 50.2006 162.21 55.8974C160.723 57.8924 159.498 60.4086 158.311 63.0165C158.073 63.5387 157.837 64.0645 157.6 64.5914C156.646 66.7134 155.685 68.8525 154.589 70.8361C151.855 75.7822 148.383 79.5746 142.39 79.4986C138.339 79.4474 135.232 77.6223 132.829 74.7007C130.414 71.7638 128.716 67.7227 127.535 63.2882C125.174 54.4215 124.922 44.148 124.986 38.4731C125.142 24.7128 129.332 11.1 142.485 4.89294C153.428 -0.270249 168.583 -0.813893 180.065 2.90165Z"
              stroke="#D9D9D9"/>
    </g>
    <defs>
        <clipPath id="clip0_1893_1513">
            <rect width="74" height="80" fill="white" transform="translate(124)"/>
        </clipPath>
    </defs>
</svg>
