<svg width="211" height="97" viewBox="0 0 211 97" fill="none" xmlns="http://www.w3.org/2000/svg">
    <path d="M18.6777 30.8906L32.3354 39.8142L33.1089 40.3195V39.3956V22.2433H36.283V43.3173L31.3443 43.3173L16.7822 33.8021L18.6777 30.8906Z" stroke="#D9D9D9"/>
    <path d="M61.4209 30.1932H41.564V22.2433H44.7381V26.5191V27.0191H45.2381H60.4838H60.6093L60.7199 26.9598L69.5246 22.2433H76.3133L61.4209 30.1932ZM44.7381 39.076V43.3173H41.564V35.4019H61.4213L76.3065 43.3173H69.5238L60.7186 38.6346L60.6085 38.576H60.4838H45.2381H44.7381V39.076Z"
          stroke="#D9D9D9"/>
    <path d="M23.9966 53.6827H20.3484C19.6885 54.4394 19.0831 55.3289 18.5296 56.3547C18.0361 57.2867 17.5842 58.4162 17.1827 59.748C16.7907 61.0483 16.5908 62.537 16.5908 64.2197C16.5908 65.9026 16.7907 67.385 17.1824 68.673C17.5839 69.9935 18.0358 71.1177 18.5296 72.0487C19.0837 73.0769 19.6902 73.9782 20.3524 74.7567H26.2142L34.3534 58.1273L34.8024 57.2099L35.2516 58.1273L43.3936 74.7567H47.3721L37.0385 53.6827H32.5701L23.2965 72.6808L22.9116 73.4693L22.4295 72.7363C21.77 71.7336 21.165 70.5282 20.6144 69.1253L23.9966 53.6827ZM23.9966 53.6827C23.3916 54.3334 22.8328 55.0554 22.3207 55.8476L22.3207 55.8476L22.3184 55.8513C21.6835 56.8528 21.1024 58.0457 20.5752 59.4252C20.0316 60.8476 19.765 62.4483 19.765 64.2197C19.765 66.0391 20.0433 67.6761 20.6143 69.1249L23.9966 53.6827Z"
          stroke="#D9D9D9"/>
    <path d="M62.2464 57.3568V58.5193H59.0377V53.6827H81.0761L69.492 74.7567H49.8057V53.6827H52.9798V71.0826V71.5826H53.4798H67.3466H67.6425L67.7849 71.3232L75.3185 57.5974L75.725 56.8568H74.8802H62.7464H62.2464V57.3568Z"
          stroke="#D9D9D9"/>
    <path d="M15.5272 87.0656V88.6065H8.90186V81.9498H10.4427V87.0656H15.5272Z" fill="#D9D9D9"/>
    <path d="M15.5582 87.0656H15.5273V88.6064H15.5582V87.0656Z" fill="#D9D9D9"/>
    <path d="M15.5272 8.38916V9.93002H10.4427V15.0456H8.90186V8.38916H15.5272Z" fill="#D9D9D9"/>
    <path d="M15.5582 8.38916H15.5273V9.93002H15.5582V8.38916Z" fill="#D9D9D9"/>
    <path d="M89.1184 8.38916V15.0456H87.5776V9.93002H82.4927V8.38916H89.1184Z" fill="#D9D9D9"/>
    <path d="M82.4928 8.38916H82.4619V9.93002H82.4928V8.38916Z" fill="#D9D9D9"/>
    <path d="M89.1184 81.9498V88.6065H82.4927V87.0656H87.5776V81.9498H89.1184Z" fill="#D9D9D9"/>
    <path d="M82.4928 87.0656H82.4619V88.6064H82.4928V87.0656Z" fill="#D9D9D9"/>
    <path d="M78.9653 9.94354H77.2018V8.40268H78.9653V9.94354ZM73.6777 9.94354H71.9171V8.40268H73.6777V9.94354ZM68.39 9.94354H66.6294V8.40268H68.39V9.94354ZM63.1053 9.94354H61.3418V8.40268H63.1053V9.94354ZM57.8177 9.94354H56.0541V8.40268H57.8177V9.94354ZM52.53 9.94354H50.7664V8.40268H52.53V9.94354ZM47.2423 9.94354H45.4818V8.40268H47.2423V9.94354ZM41.9546 9.94354H40.1941V8.40268H41.9546V9.94354ZM36.67 9.94354H34.9064V8.40268H36.67V9.94354ZM31.3823 9.94354H29.6187V8.40268H31.3823V9.94354ZM26.0946 9.94354H24.331V8.40268H26.0946V9.94354ZM20.8069 9.94354H19.0464V8.40268H20.8069V9.94354Z"
          fill="#D9D9D9"/>
    <path d="M78.9653 88.5981H77.2018V87.0573H78.9653V88.5981ZM73.6777 88.5981H71.9171V87.0573H73.6777V88.5981ZM68.39 88.5981H66.6294V87.0573H68.39V88.5981ZM63.1053 88.5981H61.3418V87.0573H63.1053V88.5981ZM57.8177 88.5981H56.0541V87.0573H57.8177V88.5981ZM52.53 88.5981H50.7664V87.0573H52.53V88.5981ZM47.2423 88.5981H45.4818V87.0573H47.2423V88.5981ZM41.9546 88.5981H40.1941V87.0573H41.9546V88.5981ZM36.67 88.5981H34.9064V87.0573H36.67V88.5981ZM31.3823 88.5981H29.6187V87.0573H31.3823V88.5981ZM26.0946 88.5981H24.331V87.0573H26.0946V88.5981ZM20.8069 88.5981H19.0464V87.0573H20.8069V88.5981Z"
          fill="#D9D9D9"/>
    <path d="M135.574 68.9056C127.352 64.0571 120.511 57.2489 115.682 49.1139C120.511 40.979 127.352 34.1708 135.574 29.3223C143.876 24.4263 153.31 21.6905 162.988 21.3737C172.665 21.6905 182.1 24.4263 190.402 29.3223C198.623 34.1708 205.464 40.979 210.293 49.1139C205.464 57.2489 198.623 64.0571 190.402 68.9056C182.1 73.8015 172.665 76.5373 162.988 76.8542C153.31 76.5373 143.876 73.8015 135.574 68.9056Z"
          stroke="white" stroke-linecap="square" stroke-linejoin="round"/>
    <path d="M140.96 49.1139C140.96 54.8562 143.281 60.3632 147.412 64.4235C151.543 68.4839 157.145 70.765 162.988 70.765C168.683 70.3325 174.034 67.9125 178.074 63.942C182.113 59.9716 184.575 54.7123 185.015 49.1139C185.015 43.3717 182.694 37.8647 178.563 33.8043C174.432 29.744 168.83 27.4629 162.988 27.4629C157.145 27.4629 151.543 29.744 147.412 33.8043C143.281 37.8647 140.96 43.3717 140.96 49.1139Z"
          stroke="white" stroke-linecap="square"/>
    <path d="M145.749 39.7004C145.749 42.197 146.758 44.5914 148.554 46.3568C150.35 48.1222 152.786 49.1139 155.326 49.1139C157.866 49.1139 160.302 48.1222 162.098 46.3568C163.894 44.5914 164.903 42.197 164.903 39.7004C164.903 37.2038 163.894 34.8095 162.098 33.0441C160.302 31.2787 157.866 30.2869 155.326 30.2869C152.786 30.2869 150.35 31.2787 148.554 33.0441C146.758 34.8095 145.749 37.2038 145.749 39.7004Z"
          stroke="white" stroke-linecap="square"/>
    <circle cx="118" cy="11" r="3" fill="#025FBF"/>
    <circle cx="130" cy="11" r="3" fill="#841E0E"/>
    <circle cx="142" cy="11" r="3" fill="#0A7A00"/>
</svg>
