<svg width="103" height="67" viewBox="0 0 103 67" fill="none" xmlns="http://www.w3.org/2000/svg">
    <g clip-path="url(#clip0_1893_1553)">
        <path d="M41.4923 24.8262L35.024 37.7956H18.0273H17.5273V38.2956V66.5H3.48916C1.8351 66.5 0.5 65.1645 0.5 63.508V3.49201C0.5 1.83549 1.8351 0.5 3.48916 0.5H17.5273V28.7042V29.2042H18.0273H29.4253H29.7344L29.8726 28.9277L36.8987 14.8638H46.9807L60.6129 42.1739L61.0605 43.0706L61.5077 42.1738L67.976 29.2043H84.9727H85.4727V28.7043V0.5H99.5108C101.165 0.5 102.5 1.83546 102.5 3.49201V63.508C102.5 65.1645 101.165 66.5 99.5108 66.5H85.4727V38.2956V37.7956H84.9727H73.5747H73.2656L73.1274 38.0722L66.1013 52.1362H56.0193L42.3871 24.8261L41.9396 23.9294L41.4923 24.8262Z"
              stroke="#D9D9D9"/>
    </g>
    <defs>
        <clipPath id="clip0_1893_1553">
            <rect width="103" height="67" fill="white"/>
        </clipPath>
    </defs>
</svg>
