<svg width="179" height="81" viewBox="0 0 179 81" fill="none" xmlns="http://www.w3.org/2000/svg">
    <g clip-path="url(#clip0_1893_1420)">
        <path d="M6.69204 79.4441V81H0V74.2784H1.55636V79.4441H6.69204Z" fill="#D9D9D9"/>
        <path d="M6.72354 79.4441H6.69238V81H6.72354V79.4441Z" fill="#D9D9D9"/>
        <path d="M6.69204 0V1.5559H1.55636V6.72137H0V0H6.69204Z" fill="#D9D9D9"/>
        <path d="M6.72354 0H6.69238V1.5559H6.72354V0Z" fill="#D9D9D9"/>
        <path d="M81.0235 0V6.72137H79.4671V1.5559H74.3311V0H81.0235Z" fill="#D9D9D9"/>
        <path d="M74.331 0H74.2998V1.5559H74.331V0Z" fill="#D9D9D9"/>
        <path d="M81.0235 74.2784V81H74.3311V79.4441H79.4671V74.2784H81.0235Z" fill="#D9D9D9"/>
        <path d="M74.331 79.4441H74.2998V81H74.331V79.4441Z" fill="#D9D9D9"/>
        <path d="M70.7678 1.56957H68.9865V0.0136719H70.7678V1.56957ZM65.427 1.56957H63.6487V0.0136719H65.427V1.56957ZM60.0861 1.56957H58.3078V0.0136719H60.0861V1.56957ZM54.7483 1.56957H52.9669V0.0136719H54.7483V1.56957ZM49.4074 1.56957H47.6261V0.0136719H49.4074V1.56957ZM44.0665 1.56957H42.2852V0.0136719H44.0665V1.56957ZM38.7257 1.56957H36.9474V0.0136719H38.7257V1.56957ZM33.3848 1.56957H31.6065V0.0136719H33.3848V1.56957ZM28.047 1.56957H26.2656V0.0136719H28.047V1.56957ZM22.7061 1.56957H20.9248V0.0136719H22.7061V1.56957ZM17.3652 1.56957H15.5839V0.0136719H17.3652V1.56957ZM12.0244 1.56957H10.2461V0.0136719H12.0244V1.56957Z"
              fill="#D9D9D9"/>
        <path d="M70.7678 80.9916H68.9865V79.4357H70.7678V80.9916ZM65.427 80.9916H63.6487V79.4357H65.427V80.9916ZM60.0861 80.9916H58.3078V79.4357H60.0861V80.9916ZM54.7483 80.9916H52.9669V79.4357H54.7483V80.9916ZM49.4074 80.9916H47.6261V79.4357H49.4074V80.9916ZM44.0665 80.9916H42.2852V79.4357H44.0665V80.9916ZM38.7257 80.9916H36.9474V79.4357H38.7257V80.9916ZM33.3848 80.9916H31.6065V79.4357H33.3848V80.9916ZM28.047 80.9916H26.2656V79.4357H28.047V80.9916ZM22.7061 80.9916H20.9248V79.4357H22.7061V80.9916ZM17.3652 80.9916H15.5839V79.4357H17.3652V80.9916ZM12.0244 80.9916H10.2461V79.4357H12.0244V80.9916Z"
              fill="#D9D9D9"/>
        <path d="M44.8209 26.1303L49.8716 23.5043L50.1782 29.8448L50.2163 30.6331L50.1825 30.6312L49.9581 30.6183L49.7995 30.7776L41.6767 38.9378L40.4255 40.1948L42.149 39.7765L53.4751 37.0274L54.4427 37.5997L59.3721 40.5153L54.3134 43.7527L53.6367 44.1858L53.5784 44.1695L42.2883 41.0021L40.5078 40.5027L41.794 41.8313L50.2824 50.6003L50.3867 50.7081L50.4075 51.7632L50.507 56.8132L44.9184 54.1719L44.0097 53.7425L44.2153 54.7263L45.7715 62.1728L40.4104 68.163L34.8 63.2812L36.4636 55.1852L36.6796 54.1338L35.7358 54.6448L30.921 57.2517L30.6158 51.0405L30.5724 50.1578L30.6941 50.0319L38.8169 41.6274L39.8873 40.5199L40.1938 40.6071L39.9983 40.4051L40.0464 40.3553L39.9692 40.3751L38.8981 39.2686L30.6709 30.7688L30.6157 29.6818L30.316 23.7842L35.8571 26.704L36.6912 27.1435L39.585 38.3904L40.045 40.1785L40.5501 38.4026L43.7688 27.0858L43.8289 26.8746L43.714 26.6874L40.5312 21.5016L40.0889 20.781L39.6705 21.5158L36.7214 26.6958L36.7192 26.6997L36.5744 26.137L34.577 18.3754L40.1297 12.8243L45.8739 17.9392L44.1032 25.5737L43.858 26.631L44.8209 26.1303ZM56.5588 30.9967L50.5528 30.6524L51.0311 30.1742L56.672 24.5341L64.6651 27.1633L62.7858 34.4659L54.5669 36.6867L53.7586 36.9051L53.8274 36.7943L56.9549 31.7597L57.399 31.0449L56.5588 30.9967ZM25.8896 43.4004L20.9467 40.4754L26.1431 37.0124L26.7044 36.6383L26.7904 36.7927L26.9897 36.8495L38.402 40.0972L39.6588 40.4549L38.3329 40.7957L26.7984 43.7604L26.5959 43.8124L26.5934 43.8168L25.8896 43.4004ZM23.4816 30.8461L26.4739 36.224L25.9786 36.1093L18.3517 34.3423L16.3623 26.2801L23.7701 24.4027L29.7731 30.0707L30.0219 30.3057L23.9351 30.1032L23.0519 30.0739L23.4816 30.8461ZM25.7742 44.3109L26.4136 44.1256L23.3235 49.4329L22.8858 50.1845H23.7555H30.258L29.7521 50.7225L24.5648 56.2389L16.464 53.8203L18.1318 46.5257L25.7742 44.3109ZM57.2795 49.8671L53.9451 44.5108L54.4447 44.6544L62.5494 46.9847L64.4369 54.9519L57.2457 56.8281L51.2434 51.383L50.5505 50.7544L50.6515 50.7525L56.8648 50.6313L57.7445 50.6141L57.2795 49.8671ZM40.6443 42.3216L40.1605 40.6136L39.6818 42.3231L36.5552 53.4887L36.4998 53.6867L36.5997 53.8664L39.6457 59.3469L40.0597 60.0918L40.508 59.367L43.7975 54.0484L43.9134 53.8611L43.8533 53.6491L40.6443 42.3216Z"
              stroke="#D9D9D9"/>
        <path d="M104.669 79.4441V81H97.9766V74.2784H99.5329V79.4441H104.669Z" fill="#D9D9D9"/>
        <path d="M104.7 79.4441H104.669V81H104.7V79.4441Z" fill="#D9D9D9"/>
        <path d="M104.669 0V1.5559H99.5329V6.72137H97.9766V0H104.669Z" fill="#D9D9D9"/>
        <path d="M104.7 0H104.669V1.5559H104.7V0Z" fill="#D9D9D9"/>
        <path d="M179 0V6.72137H177.444V1.5559H172.308V0H179Z" fill="#D9D9D9"/>
        <path d="M172.308 0H172.276V1.5559H172.308V0Z" fill="#D9D9D9"/>
        <path d="M179 74.2784V81H172.308V79.4441H177.444V74.2784H179Z" fill="#D9D9D9"/>
        <path d="M172.308 79.4441H172.276V81H172.308V79.4441Z" fill="#D9D9D9"/>
        <path d="M168.744 1.56957H166.963V0.0136719H168.744V1.56957ZM163.404 1.56957H161.625V0.0136719H163.404V1.56957ZM158.063 1.56957H156.284V0.0136719H158.063V1.56957ZM152.725 1.56957H150.944V0.0136719H152.725V1.56957ZM147.384 1.56957H145.603V0.0136719H147.384V1.56957ZM142.043 1.56957H140.262V0.0136719H142.043V1.56957ZM136.702 1.56957H134.924V0.0136719H136.702V1.56957ZM131.361 1.56957H129.583V0.0136719H131.361V1.56957ZM126.024 1.56957H124.242V0.0136719H126.024V1.56957ZM120.683 1.56957H118.901V0.0136719H120.683V1.56957ZM115.342 1.56957H113.56V0.0136719H115.342V1.56957ZM110.001 1.56957H108.223V0.0136719H110.001V1.56957Z"
              fill="#D9D9D9"/>
        <path d="M168.744 80.9916H166.963V79.4357H168.744V80.9916ZM163.404 80.9916H161.625V79.4357H163.404V80.9916ZM158.063 80.9916H156.284V79.4357H158.063V80.9916ZM152.725 80.9916H150.944V79.4357H152.725V80.9916ZM147.384 80.9916H145.603V79.4357H147.384V80.9916ZM142.043 80.9916H140.262V79.4357H142.043V80.9916ZM136.702 80.9916H134.924V79.4357H136.702V80.9916ZM131.361 80.9916H129.583V79.4357H131.361V80.9916ZM126.024 80.9916H124.242V79.4357H126.024V80.9916ZM120.683 80.9916H118.901V79.4357H120.683V80.9916ZM115.342 80.9916H113.56V79.4357H115.342V80.9916ZM110.001 80.9916H108.223V79.4357H110.001V80.9916Z"
              fill="#D9D9D9"/>
        <mask id="path-22-inside-1_1893_1420" fill="white">
            <path d="M162.15 49.5617C161.861 48.6182 161.44 47.712 160.945 46.8245C160.655 46.292 160.3 45.7689 159.917 45.2083C160.562 42.331 160.627 39.3323 160.095 36.4175C159.833 35.0349 159.45 33.6803 158.917 32.3631C159.179 31.6531 159.412 30.9525 159.627 30.2425C159.889 29.299 160.038 28.2713 160.095 27.1877C160.123 26.6832 160.123 26.1881 160.095 25.721C160.067 24.3664 159.655 23.3948 159.123 22.7222C158.973 22.4887 158.768 22.2832 158.562 22.1057L158.151 21.6946C157.656 21.2275 157.123 20.7511 156.59 20.312C155.385 19.3124 154.235 18.5184 153.123 17.8738C152.619 17.5842 151.918 17.2012 151.096 16.9303C150.628 16.7808 150.217 16.6967 149.769 16.6406C149.591 16.6126 149.385 16.6126 149.208 16.6126C148.358 16.6126 147.703 16.8181 147.414 16.9396H147.386C146.059 17.3506 144.797 18.0232 143.414 18.9668C143.003 18.8827 142.592 18.7893 142.181 18.7332C140.443 18.4436 138.62 18.3502 136.826 18.4997C135.116 18.6211 133.415 18.9668 131.827 19.4993C131.154 19.7328 130.5 19.9664 129.883 20.2373C128.939 19.8823 127.883 19.5647 126.706 19.3872C125.939 19.2658 125.145 19.2097 124.416 19.2097H124.388C124.005 19.2097 123.622 19.2377 123.267 19.2658C122.146 19.2938 121.323 19.6768 120.734 20.1159C120.473 20.2934 120.239 20.4989 120.024 20.7324L119.613 21.1435C119.146 21.6106 118.697 22.1431 118.258 22.6756C117.286 23.8807 116.492 25.0017 115.847 26.1134C115.557 26.6179 115.174 27.2905 114.903 28.1126C114.754 28.5516 114.67 28.9627 114.614 29.3738C114.436 30.4948 114.735 31.3729 114.847 31.7279V31.756C115.408 33.4655 116.286 34.9322 116.997 35.9598C116.912 36.3148 116.847 36.6978 116.791 37.0808C116.529 38.8745 116.464 40.6962 116.641 42.4899C116.819 44.1994 117.174 45.8997 117.697 47.4318C117.819 47.7214 117.903 48.0203 118.024 48.2819C117.996 48.3659 117.968 48.4594 117.94 48.5434C117.557 49.571 117.062 50.9256 116.856 52.4577C116.735 53.1958 116.707 53.9618 116.707 54.6624C116.707 55.0174 116.735 55.335 116.763 55.662C116.791 56.6616 117.118 57.4277 117.501 58.0162C117.707 58.3431 117.968 58.6328 118.267 58.8943L118.679 59.3054C119.174 59.7725 119.706 60.2489 120.239 60.688C121.445 61.6876 122.594 62.4816 123.706 63.1262C124.201 63.4158 124.912 63.7988 125.734 64.0697C126.201 64.2192 126.612 64.3033 127.061 64.3594C127.238 64.3874 127.444 64.3874 127.622 64.3874C128.472 64.3874 129.126 64.1539 129.416 64.1819H129.444C130.855 63.7148 132.21 63.0048 133.733 61.9211C133.939 61.9492 134.172 62.0052 134.378 62.0426C136.144 62.3695 137.966 62.5097 139.76 62.3976C141.498 62.3135 143.227 61.9865 144.881 61.482C145.442 61.3046 146.031 61.099 146.591 60.8655C147.647 61.2765 148.825 61.6876 150.152 61.8931C150.974 62.0425 151.768 62.0986 152.563 62.0986H152.591C152.974 62.0986 153.357 62.0706 153.712 62.0426C154.833 61.9865 155.656 61.6315 156.245 61.1925C156.506 60.9869 156.749 60.7814 156.955 60.5479L157.31 60.1929C158.254 59.1933 159.16 58.1096 159.954 56.9886C160.693 55.9609 161.515 54.7278 162.038 53.2238C162.188 52.7847 162.3 52.4017 162.365 51.9906C162.534 50.7948 162.263 49.9167 162.15 49.5617ZM155.338 46.2079C154.086 44.9188 151.955 43.3306 147.956 41.5837L149.04 39.5284L140.713 41.7612L143.722 49.459L144.928 47.1702C145.956 47.6373 146.722 48.1137 147.488 48.6742C148.666 49.4963 149.75 50.4118 150.666 51.3834C152.89 53.6348 154.058 55.9423 153.759 57.8481L153.721 57.8667L153.572 57.8948C152.544 58.0162 151.423 57.9508 150.283 57.6892H150.254C149.021 57.3623 147.797 56.9045 146.563 56.3346C144.143 57.5678 141.396 58.2778 138.489 58.2778C136.49 58.2778 134.574 57.9415 132.78 57.3342C134.041 56.0637 135.574 53.9431 137.256 50.1036L139.312 51.1872L137.078 42.8635L129.341 45.8156L131.668 47.0768C131.2 48.1044 130.724 48.8705 130.163 49.6365C129.341 50.8136 128.425 51.8972 127.453 52.8128C125.201 55.0361 122.893 56.2039 120.987 55.9049L120.949 55.8676L120.921 55.7181C120.8 54.6905 120.865 53.5694 121.127 52.4297V52.4017C121.473 51.0938 121.968 49.7953 122.585 48.4874C121.37 46.0865 120.688 43.368 120.688 40.4907C120.688 38.6316 120.977 36.8379 121.51 35.1564C122.753 36.4549 124.893 38.0711 128.958 39.8461L127.874 41.9013L136.2 39.6686L133.228 31.8774L131.985 34.2315C130.958 33.7644 130.191 33.288 129.425 32.7275C128.248 31.9054 127.164 30.9899 126.248 30.0183C124.042 27.7762 122.865 25.4874 123.155 23.591L123.22 23.5256L123.37 23.4976C124.397 23.3761 125.519 23.4415 126.659 23.7031H126.687C127.78 23.9927 128.874 24.3851 129.967 24.8709C132.509 23.4883 135.406 22.7035 138.489 22.7035C140.517 22.7035 142.461 23.0492 144.274 23.6658C142.966 24.8989 141.34 27.0382 139.545 31.1393L137.489 30.0557L139.723 38.3794L147.488 35.4366L145.134 34.1755C145.601 33.1479 146.077 32.3818 146.638 31.6158C147.46 30.4387 148.376 29.355 149.348 28.4395C151.6 26.2161 153.908 25.0484 155.815 25.3473L155.852 25.3847L155.88 25.5341C156.002 26.5618 155.936 27.6828 155.674 28.8225V28.8506C155.357 30.0463 154.908 31.2515 154.366 32.4472C155.6 34.8668 156.291 37.5947 156.291 40.5C156.282 42.4899 155.945 44.4143 155.338 46.2079Z"/>
        </mask>
        <path d="M162.15 49.5617C161.861 48.6182 161.44 47.712 160.945 46.8245C160.655 46.292 160.3 45.7689 159.917 45.2083C160.562 42.331 160.627 39.3323 160.095 36.4175C159.833 35.0349 159.45 33.6803 158.917 32.3631C159.179 31.6531 159.412 30.9525 159.627 30.2425C159.889 29.299 160.038 28.2713 160.095 27.1877C160.123 26.6832 160.123 26.1881 160.095 25.721C160.067 24.3664 159.655 23.3948 159.123 22.7222C158.973 22.4887 158.768 22.2832 158.562 22.1057L158.151 21.6946C157.656 21.2275 157.123 20.7511 156.59 20.312C155.385 19.3124 154.235 18.5184 153.123 17.8738C152.619 17.5842 151.918 17.2012 151.096 16.9303C150.628 16.7808 150.217 16.6967 149.769 16.6406C149.591 16.6126 149.385 16.6126 149.208 16.6126C148.358 16.6126 147.703 16.8181 147.414 16.9396H147.386C146.059 17.3506 144.797 18.0232 143.414 18.9668C143.003 18.8827 142.592 18.7893 142.181 18.7332C140.443 18.4436 138.62 18.3502 136.826 18.4997C135.116 18.6211 133.415 18.9668 131.827 19.4993C131.154 19.7328 130.5 19.9664 129.883 20.2373C128.939 19.8823 127.883 19.5647 126.706 19.3872C125.939 19.2658 125.145 19.2097 124.416 19.2097H124.388C124.005 19.2097 123.622 19.2377 123.267 19.2658C122.146 19.2938 121.323 19.6768 120.734 20.1159C120.473 20.2934 120.239 20.4989 120.024 20.7324L119.613 21.1435C119.146 21.6106 118.697 22.1431 118.258 22.6756C117.286 23.8807 116.492 25.0017 115.847 26.1134C115.557 26.6179 115.174 27.2905 114.903 28.1126C114.754 28.5516 114.67 28.9627 114.614 29.3738C114.436 30.4948 114.735 31.3729 114.847 31.7279V31.756C115.408 33.4655 116.286 34.9322 116.997 35.9598C116.912 36.3148 116.847 36.6978 116.791 37.0808C116.529 38.8745 116.464 40.6962 116.641 42.4899C116.819 44.1994 117.174 45.8997 117.697 47.4318C117.819 47.7214 117.903 48.0203 118.024 48.2819C117.996 48.3659 117.968 48.4594 117.94 48.5434C117.557 49.571 117.062 50.9256 116.856 52.4577C116.735 53.1958 116.707 53.9618 116.707 54.6624C116.707 55.0174 116.735 55.335 116.763 55.662C116.791 56.6616 117.118 57.4277 117.501 58.0162C117.707 58.3431 117.968 58.6328 118.267 58.8943L118.679 59.3054C119.174 59.7725 119.706 60.2489 120.239 60.688C121.445 61.6876 122.594 62.4816 123.706 63.1262C124.201 63.4158 124.912 63.7988 125.734 64.0697C126.201 64.2192 126.612 64.3033 127.061 64.3594C127.238 64.3874 127.444 64.3874 127.622 64.3874C128.472 64.3874 129.126 64.1539 129.416 64.1819H129.444C130.855 63.7148 132.21 63.0048 133.733 61.9211C133.939 61.9492 134.172 62.0052 134.378 62.0426C136.144 62.3695 137.966 62.5097 139.76 62.3976C141.498 62.3135 143.227 61.9865 144.881 61.482C145.442 61.3046 146.031 61.099 146.591 60.8655C147.647 61.2765 148.825 61.6876 150.152 61.8931C150.974 62.0425 151.768 62.0986 152.563 62.0986H152.591C152.974 62.0986 153.357 62.0706 153.712 62.0426C154.833 61.9865 155.656 61.6315 156.245 61.1925C156.506 60.9869 156.749 60.7814 156.955 60.5479L157.31 60.1929C158.254 59.1933 159.16 58.1096 159.954 56.9886C160.693 55.9609 161.515 54.7278 162.038 53.2238C162.188 52.7847 162.3 52.4017 162.365 51.9906C162.534 50.7948 162.263 49.9167 162.15 49.5617ZM155.338 46.2079C154.086 44.9188 151.955 43.3306 147.956 41.5837L149.04 39.5284L140.713 41.7612L143.722 49.459L144.928 47.1702C145.956 47.6373 146.722 48.1137 147.488 48.6742C148.666 49.4963 149.75 50.4118 150.666 51.3834C152.89 53.6348 154.058 55.9423 153.759 57.8481L153.721 57.8667L153.572 57.8948C152.544 58.0162 151.423 57.9508 150.283 57.6892H150.254C149.021 57.3623 147.797 56.9045 146.563 56.3346C144.143 57.5678 141.396 58.2778 138.489 58.2778C136.49 58.2778 134.574 57.9415 132.78 57.3342C134.041 56.0637 135.574 53.9431 137.256 50.1036L139.312 51.1872L137.078 42.8635L129.341 45.8156L131.668 47.0768C131.2 48.1044 130.724 48.8705 130.163 49.6365C129.341 50.8136 128.425 51.8972 127.453 52.8128C125.201 55.0361 122.893 56.2039 120.987 55.9049L120.949 55.8676L120.921 55.7181C120.8 54.6905 120.865 53.5694 121.127 52.4297V52.4017C121.473 51.0938 121.968 49.7953 122.585 48.4874C121.37 46.0865 120.688 43.368 120.688 40.4907C120.688 38.6316 120.977 36.8379 121.51 35.1564C122.753 36.4549 124.893 38.0711 128.958 39.8461L127.874 41.9013L136.2 39.6686L133.228 31.8774L131.985 34.2315C130.958 33.7644 130.191 33.288 129.425 32.7275C128.248 31.9054 127.164 30.9899 126.248 30.0183C124.042 27.7762 122.865 25.4874 123.155 23.591L123.22 23.5256L123.37 23.4976C124.397 23.3761 125.519 23.4415 126.659 23.7031H126.687C127.78 23.9927 128.874 24.3851 129.967 24.8709C132.509 23.4883 135.406 22.7035 138.489 22.7035C140.517 22.7035 142.461 23.0492 144.274 23.6658C142.966 24.8989 141.34 27.0382 139.545 31.1393L137.489 30.0557L139.723 38.3794L147.488 35.4366L145.134 34.1755C145.601 33.1479 146.077 32.3818 146.638 31.6158C147.46 30.4387 148.376 29.355 149.348 28.4395C151.6 26.2161 153.908 25.0484 155.815 25.3473L155.852 25.3847L155.88 25.5341C156.002 26.5618 155.936 27.6828 155.674 28.8225V28.8506C155.357 30.0463 154.908 31.2515 154.366 32.4472C155.6 34.8668 156.291 37.5947 156.291 40.5C156.282 42.4899 155.945 44.4143 155.338 46.2079Z"
              stroke="#D9D9D9" stroke-width="2" mask="url(#path-22-inside-1_1893_1420)"/>
    </g>
    <defs>
        <clipPath id="clip0_1893_1420">
            <rect width="179" height="81" fill="white"/>
        </clipPath>
    </defs>
</svg>
