<svg width="73" height="66" viewBox="0 0 73 66" fill="none" xmlns="http://www.w3.org/2000/svg">
    <g clip-path="url(#clip0_1893_1520)">
        <path d="M31.6826 1.35698L31.7024 1.34075L31.7204 1.32259C32.5177 0.519795 33.7401 0.277535 34.7951 0.716001C35.7095 1.23798 36.2006 2.25072 36.0424 3.26752L36.0365 3.30571V3.34436V62.2315C36.0365 62.9879 35.9444 63.6555 35.6981 64.1865C35.4609 64.6979 35.0727 65.1021 34.4185 65.3408C33.1447 65.8056 32.1321 65.1913 31.1827 64.1799L31.1816 64.1787C29.79 62.706 28.4428 61.1956 27.09 59.679C26.5081 59.0267 25.9252 58.3733 25.3374 57.7212L25.3352 57.7188C22.2134 54.3003 19.1882 50.9051 16.1369 47.4721C15.5072 46.7005 14.5367 46.2812 13.5379 46.3416C12.5419 46.3415 11.5397 46.3297 10.5341 46.3179C8.49901 46.294 6.45009 46.27 4.41103 46.3419L4.38446 46.3429L4.35815 46.3466C2.93306 46.5496 1.50147 46.0736 0.5 45.0773V20.8587C1.51509 19.8646 2.95863 19.4005 4.38863 19.622L4.42667 19.6279H4.46517H13.5744C14.5726 19.6884 15.5425 19.2696 16.1721 18.499C21.085 13.0532 25.9735 7.61581 30.8377 2.18674L30.8378 2.18684L30.8459 2.17744C31.099 1.88043 31.3795 1.60542 31.6826 1.35698Z"
              stroke="#D9D9D9"/>
        <path d="M64.7167 12.8253L64.7219 12.8312L64.7272 12.8368C69.1822 17.5872 71.9135 23.6435 72.5002 30.0667V32.9478C72.1626 44.7012 66.9286 53.5793 56.4545 59.3843C55.633 59.8391 54.8848 59.9713 54.2771 59.8567C53.6821 59.7445 53.1661 59.3863 52.8007 58.7403C52.4376 58.0985 52.399 57.4598 52.6188 56.8788C52.8426 56.287 53.3545 55.7063 54.1782 55.2479L54.1789 55.2475C58.8224 52.6534 62.3589 49.3739 64.6719 45.4147C66.9861 41.4536 68.059 36.8404 67.8178 31.6077L67.8178 31.6077C67.3953 22.4556 62.6462 15.5343 54.5478 10.9152L54.5361 10.9085L54.5242 10.9025C54.1264 10.7031 53.7438 10.4749 53.3819 10.2205C52.4605 9.49299 52.209 8.22643 52.777 7.21618L52.7771 7.2162L52.7804 7.21011C53.3123 6.23264 54.5247 5.80548 55.579 6.23928C59.0917 7.73498 62.2146 9.98591 64.7167 12.8253Z"
              stroke="#D9D9D9"/>
        <path d="M58.2864 29.8306L58.2869 29.8327C58.4353 30.5688 58.4949 31.3033 58.5521 32.0091C58.5761 32.3049 58.5996 32.5957 58.6292 32.8795C58.4619 39.4071 54.8657 45.3919 49.1109 48.6987L49.0886 48.7115L49.0678 48.7265C48.538 49.1079 47.8689 49.2577 47.2201 49.137L47.2193 49.1368C46.5729 49.0175 46.0098 48.6426 45.6595 48.1037C45.3308 47.5564 45.2778 47.0003 45.4543 46.4342C45.6356 45.8525 46.0698 45.2326 46.7669 44.6179C48.6339 43.2287 50.2987 41.595 51.7145 39.7626L51.7272 39.7461L51.7386 39.7286C55.4881 33.9355 53.9774 26.282 48.3057 22.2802C48.0511 22.0853 47.8035 21.9073 47.563 21.7346C47.1263 21.4207 46.7132 21.1239 46.325 20.7731L46.3174 20.7662L46.3095 20.7597C45.3799 19.9868 45.2337 18.6414 45.9694 17.695C46.7219 16.7467 48.088 16.5009 49.1383 17.1343L49.1382 17.1344L49.1465 17.1391C53.9108 19.8896 57.238 24.5139 58.2864 29.8306Z"
              stroke="#D9D9D9"/>
    </g>
    <defs>
        <clipPath id="clip0_1893_1520">
            <rect width="73" height="66" fill="white"/>
        </clipPath>
    </defs>
</svg>
