<svg width="383" height="90" viewBox="0 0 383 90" fill="none" xmlns="http://www.w3.org/2000/svg">
    <path d="M14.9924 22.4617H28.7022C33.9036 22.4617 37.2676 23.2333 38.7999 24.7817C40.3389 26.3378 40.6279 29.277 39.6509 33.6369L39.8454 32.7686C38.8439 37.2377 37.1167 40.285 34.6653 41.8722C33.1889 42.8281 31.0597 43.4883 28.279 43.8507C31.0619 44.235 33.0362 44.9301 34.201 45.9374C36.0327 47.5513 36.4482 50.6174 35.4311 55.1737L35.6449 54.2158C34.4726 59.4674 32.5987 63.0525 30.0262 64.9184C27.44 66.7944 23.0306 67.7361 16.8086 67.7361H2.98047L14.9924 22.4617ZM19.7299 40.5385H21.6432C24.4581 40.5385 26.4409 40.0901 27.5904 39.1942C28.7364 38.301 29.6246 36.5268 30.2533 33.8854L30.0459 34.7566C30.5879 32.4797 30.5051 30.9361 29.8027 30.1157C29.1014 29.2977 27.5198 28.8889 25.0558 28.8889H22.6567L19.7299 40.5385ZM14.7047 60.5407H17.7952C20.4443 60.5407 22.3314 60.0372 23.4542 59.0323C24.5737 58.0302 25.4898 56.0239 26.2001 53.0303L25.9736 53.9849C26.6281 51.2269 26.6136 49.433 25.9357 48.5882C25.259 47.7455 23.4777 47.3249 20.5905 47.3249H18.0249L14.7047 60.5407Z"
          fill="#D9D9D9"/>
    <path d="M53.6638 22.4617H64.5482L66.8756 67.7361H57.3055L57.3658 57.4304H46.9715L42.8533 67.7361H33.2832L53.6638 22.4617ZM49.6884 50.5082H57.4427L57.5953 30.4846H57.5841L49.6884 50.5082Z" fill="#D9D9D9"/>
    <path d="M77.1675 28.8277H70.6322L71.2115 25.6294L71.7853 22.4617H94.01L93.543 25.6294L93.0715 28.8277H86.5362L80.4184 67.7361H70.502L77.1675 28.8277Z" fill="#D9D9D9"/>
    <path d="M102.976 28.8277H96.4404L96.9005 25.6294L97.3561 22.4617H119.581L119.232 25.6294L118.88 28.8277H112.344L107.678 67.7361H97.7617L102.976 28.8277Z" fill="#D9D9D9"/>
    <path d="M300.926 28.8277H294.391L293.918 25.6294L293.45 22.4617H315.675L316.25 25.6294L316.83 28.8277H310.295L316.972 67.7361H307.056L300.926 28.8277Z" fill="#D9D9D9"/>
    <path d="M117.613 67.7361L122.426 22.4617H131.705L128.187 60.6079H140.652L140.389 64.1539L140.123 67.7361H117.613Z" fill="#D9D9D9"/>
    <path d="M143.745 67.7361L146.92 22.4617H169.556L169.442 25.6294L169.328 28.8277H155.842L155.191 40.4434H168.45L168.329 43.7868L168.205 47.1633H154.815L154.061 60.6079H168.463L168.337 64.1539L168.21 67.7361H143.745Z"
          fill="#D9D9D9"/>
    <path d="M172.079 67.7361L173.475 22.4617H195.179L195.186 25.6294L195.193 28.8277H182.647L182.447 40.7921H194.525L194.529 44.1389L194.532 47.519H182.334L181.996 67.7361L172.079 67.7361Z" fill="#D9D9D9"/>
    <path d="M198.933 22.4617H212.546C217.405 22.4617 220.906 23.3034 223.057 24.9934C225.219 26.692 226.4 29.5631 226.594 33.6369C226.815 38.3065 225.887 41.4906 223.8 43.1474C222.752 43.9788 221.109 44.6308 218.869 45.1012H219.4C222.012 45.1012 224.024 45.9325 225.44 47.5998C226.863 49.2759 227.573 51.6851 227.567 54.8431C227.585 56.6545 227.652 58.5533 227.769 60.5407C227.912 62.6076 228.055 64.1826 228.197 65.2588C228.34 66.3388 228.516 67.1537 228.726 67.7019H218.843C218.665 67.1766 218.524 66.379 218.42 65.3099C218.316 64.2445 218.228 62.6524 218.157 60.5407L217.966 54.8431C217.933 52.516 217.431 50.8837 216.464 49.9376C215.499 48.9941 213.86 48.5233 211.547 48.5233H208.743L209.135 67.7361H199.218L198.933 22.4617ZM208.601 41.586H211.245C213.711 41.586 215.345 41.1466 216.142 40.2692C216.938 39.3945 217.292 37.6562 217.205 35.0683C217.125 32.6655 216.642 31.0387 215.759 30.1771C214.877 29.3177 213.271 28.8889 210.936 28.8889H208.343L208.601 41.586Z"
          fill="#D9D9D9"/>
    <path d="M234.992 64.7654C232.606 62.3258 231.266 58.1752 230.964 52.3734L229.999 33.8233C229.788 29.7677 230.811 26.7634 233.056 24.7817C235.288 22.8123 238.752 21.8318 243.456 21.8318C248.161 21.8318 251.773 22.8123 254.306 24.7817C256.853 26.7634 258.323 29.7677 258.708 33.8233L260.467 52.3734C261.018 58.1752 260.288 62.3258 258.26 64.7654C256.219 67.2222 252.421 68.457 246.88 68.457C241.361 68.457 237.394 67.2222 234.992 64.7654ZM250.213 59.3669C250.859 58.1193 251.053 55.9137 250.799 52.7674L249.299 34.1963C249.14 32.2323 248.603 30.7514 247.69 29.7472C246.779 28.7464 245.525 28.2467 243.927 28.2467C242.329 28.2467 241.155 28.7464 240.402 29.7472C239.646 30.7514 239.333 32.2323 239.462 34.1963L240.69 52.7674C240.898 55.9137 241.417 58.1193 242.246 59.3669C243.078 60.6195 244.447 61.2469 246.351 61.2469C248.277 61.2469 249.565 60.6195 250.213 59.3669Z"
          fill="#D9D9D9"/>
    <path d="M273.769 67.7361H265.637L261.124 22.4617H274.77L287.605 60.2721L282.604 22.4617H290.213L296.724 67.7361H282.21L269.441 28.8277L273.769 67.7361Z" fill="#D9D9D9"/>
    <path d="M341.656 22.4617L352.016 67.7361H339.896L330.314 22.4617H341.656Z" fill="#D9D9D9"/>
    <path d="M360.59 22.4617L372.252 67.7361H360.131L349.249 22.4617H360.59Z" fill="#D9D9D9"/>
    <path d="M367.976 24.8663H324.059L323.568 22.4617H367.338L367.976 24.8663Z" fill="#D9D9D9"/>
    <path d="M379.35 67.7361H332.799L332.243 65.0103H378.627L379.35 67.7361Z" fill="#D9D9D9"/>
    <path d="M145.616 15.6377L150.758 0.000915527H158.519L163.748 15.6377H157.837L156.852 12.8223H152.208L151.223 15.6377H145.616ZM154.655 3.46604L152.414 9.66008H156.722L154.655 3.46604Z" fill="#D9D9D9"/>
    <path d="M164.846 15.6376V0.000793457H175.021C176.277 0.116397 177.309 0.448387 178.117 0.996943C178.925 1.54569 179.517 2.2821 179.892 3.206C180.181 4.59213 180.195 5.66071 179.935 6.4114C179.676 7.16227 179.221 7.79039 178.571 8.2956C177.922 8.80118 176.991 9.19829 175.779 9.48692L176.948 10.9811H185.304V15.6376H175.454L170.496 10.4722V15.6376H164.846ZM170.496 3.89906V6.7796H174.436C174.646 6.7796 174.873 6.70209 175.118 6.5467C175.364 6.39169 175.494 5.99983 175.508 5.37189C175.472 4.77266 175.326 4.37743 175.07 4.18601C174.813 3.99496 174.599 3.89906 174.426 3.89906H170.496Z"
          fill="#D9D9D9"/>
    <path d="M252.4 4.6561H257.314V0H247.68C245.686 0 244.504 0.969409 244.129 2.90148C243.755 4.83693 244.822 6.95961 247.332 9.26953C248.738 10.3769 248.626 10.9454 246.997 10.9815C246.859 10.9848 246.711 10.9848 246.553 10.9815H239.235L238.066 9.48645C239.281 9.19733 240.211 8.79958 240.861 8.29691C241.508 7.79087 241.965 7.16337 242.224 6.41088C242.484 5.66161 242.471 4.59369 242.182 3.20713C241.807 2.28377 241.213 1.54444 240.405 0.995559C239.597 0.446839 238.565 0.115041 237.31 0H227.135V15.6376H232.784V10.4722L237.744 15.6376H251.576C253.829 15.2631 254.975 14.1065 255.018 12.171C255.061 10.2389 253.914 8.24429 251.576 6.19396C250.272 5.11289 250.544 4.60027 252.4 4.6561ZM237.406 6.5455C237.163 6.70322 236.933 6.77879 236.726 6.77879H232.784V3.90041H236.713C236.887 3.90041 237.104 3.99572 237.36 4.18633C237.616 4.37678 237.76 4.77115 237.797 5.37249C237.784 6.00015 237.652 6.39115 237.406 6.5455Z"
          fill="#D9D9D9"/>
    <path d="M148.194 0V4.6561H143.234V15.6376H138.146V4.6561H131.751C129.896 4.60027 129.619 5.11289 130.927 6.19397C133.265 8.24429 134.412 10.2389 134.369 12.171C134.326 14.1065 133.18 15.2631 130.927 15.6376H16.8018L18.0367 10.9815H125.905C127.948 11.0373 128.207 10.4689 126.683 9.26953C124.174 6.95961 123.106 4.83693 123.481 2.90149C123.855 0.969415 125.038 5.46953e-06 127.031 5.46953e-06L148.194 0Z"
          fill="#D9D9D9"/>
    <path d="M255.153 15.6384C256.277 14.5541 256.533 13.1642 256.556 12.2047C256.566 11.7972 256.533 11.3865 256.461 10.979H364.289L365.527 15.6384H255.153Z" fill="#D9D9D9"/>
    <path d="M1.23495 74.3082H177.7L174.776 78.9643H0L1.23495 74.3082Z" fill="#D9D9D9"/>
    <path d="M382.327 78.9643H204.358L201.671 74.3082H381.092L382.327 78.9643Z" fill="#D9D9D9"/>
    <path fill-rule="evenodd" clip-rule="evenodd"
          d="M188.299 0.000793457H194.056L195.515 5.21347L196.869 0.000793457H202.913L204.476 5.21347L206.04 0.000793457H211.041L206.456 15.6376H201.871L199.862 8.23594L197.599 15.6376H192.91L188.299 0.000793457Z"
          fill="#D9D9D9"/>
    <path fill-rule="evenodd" clip-rule="evenodd"
          d="M221.443 0.000793457H213.208L208.592 15.6384H213.729L214.563 13.4497H219.984L220.788 15.6384H225.822L221.443 0.000793457ZM215.71 9.69494L217.482 3.95908L219.15 9.69494H215.71Z" fill="#D9D9D9"/>
    <path fill-rule="evenodd" clip-rule="evenodd"
          d="M197.361 74.3082L189.445 86.8255H180.77L182.77 83.7463H188.166L190.125 80.6273H178.092L176.133 83.7463H179.012L175.094 89.945H191.245L197.361 80.1874L199.6 83.7463H197.681L195.722 86.8255H201.559L203.518 89.945H207.236L197.361 74.3082Z"
          fill="#D9D9D9"/>
    <path fill-rule="evenodd" clip-rule="evenodd" d="M194.762 74.428H182.01L180.051 77.5475L192.803 77.5078L194.762 74.428Z" fill="#D9D9D9"/>
</svg>
