<svg width="20" height="20" viewBox="0 0 20 20" fill="none" xmlns="http://www.w3.org/2000/svg">
    <g clip-path="url(#clip0_266_1231)">
        <path fill-rule="evenodd" clip-rule="evenodd"
              d="M9.99999 20.0002C4.48595 20.0002 0 15.5143 0 10.0003C0 4.4862 4.48595 0.000244141 9.99999 0.000244141C15.514 0.000244141 20 4.48622 20 10.0003C20 15.5142 15.514 20.0002 9.99999 20.0002ZM11.6926 6.13234H6.04108L5.18359 7.51035H10.8286L11.6926 6.13234ZM12.8475 6.14548L9.39263 11.6467H5.56036L6.44451 10.2675H8.7414L9.6188 8.88902H4.30877L3.43156 10.2675H4.68948L2.94416 13.0211H10.2279L12.9183 8.77843L13.8992 10.2675H13.0147L12.1771 11.6467H14.7963L15.7058 13.0211H17.3766L12.8475 6.14548Z"
              fill="white"/>
    </g>
    <defs>
        <clipPath id="clip0_266_1231">
            <rect width="20" height="20" fill="white"/>
        </clipPath>
    </defs>
</svg>
