<svg width="381" height="153" viewBox="0 0 381 153" fill="none" xmlns="http://www.w3.org/2000/svg">
    <g clip-path="url(#clip0_2111_1050)">
        <path d="M14.94 22.39H28.6023C33.7856 22.39 37.1379 23.1592 38.6649 24.7026C40.1985 26.2538 40.4865 29.1836 39.5129 33.5296L39.7068 32.664C38.7087 37.1189 36.9875 40.1565 34.5446 41.7386C33.0733 42.6915 30.9515 43.3496 28.1805 43.7108C30.9538 44.0939 32.9212 44.7867 34.0819 45.7909C35.9073 47.3996 36.3213 50.4559 35.3078 54.9977L35.5208 54.0428C34.3526 59.2776 32.4852 62.8513 29.9216 64.7113C27.3444 66.5812 22.9502 67.52 16.7499 67.52H2.96973L14.94 22.39ZM19.6611 40.4091H21.5677C24.3728 40.4091 26.3487 39.9622 27.4943 39.0691C28.6362 38.1788 29.5214 36.4103 30.1479 33.7773L29.9413 34.6457C30.4814 32.3761 30.3988 30.8374 29.6989 30.0196C29.0001 29.2042 27.4239 28.7967 24.9685 28.7967H22.5777L19.6611 40.4091ZM14.6532 60.3475H17.7331C20.373 60.3475 22.2536 59.8456 23.3724 58.8439C24.4881 57.8451 25.4009 55.8451 26.1088 52.8611L25.8831 53.8127C26.5353 51.0635 26.5209 49.2753 25.8454 48.4332C25.171 47.5931 23.3958 47.1739 20.5186 47.1739H17.962L14.6532 60.3475Z"
              fill="#D9D9D9"/>
        <path d="M53.4779 22.39H64.3245L66.6438 67.52H57.1069L57.167 57.2472H46.8088L42.7048 67.52H33.168L53.4779 22.39ZM49.5162 50.3471H57.2436L57.3958 30.3873H57.3846L49.5162 50.3471Z" fill="#D9D9D9"/>
        <path d="M76.8993 28.7357H70.3866L70.9639 25.5476L71.5357 22.39H93.6833L93.2179 25.5476L92.7481 28.7357H86.2354L80.1389 67.52H70.2568L76.8993 28.7357Z" fill="#D9D9D9"/>
        <path d="M102.618 28.7357H96.1055L96.5639 25.5476L97.0179 22.39H119.166L118.818 25.5476L118.467 28.7357H111.954L107.304 67.52H97.4221L102.618 28.7357Z" fill="#D9D9D9"/>
        <path d="M299.881 28.7357H293.369L292.898 25.5476L292.432 22.39H314.579L315.152 25.5476L315.73 28.7357H309.218L315.872 67.52H305.99L299.881 28.7357Z" fill="#D9D9D9"/>
        <path d="M117.205 67.52L122.001 22.39H131.247L127.742 60.4145H140.164L139.902 63.9492L139.636 67.52H117.205Z" fill="#D9D9D9"/>
        <path d="M143.245 67.52L146.409 22.39H168.966L168.853 25.5476L168.739 28.7357H155.3L154.651 40.3144H167.865L167.743 43.647L167.621 47.0128H154.276L153.525 60.4145H167.877L167.752 63.9492L167.625 67.52H143.245Z"
              fill="#D9D9D9"/>
        <path d="M171.481 67.52L172.872 22.39H194.502L194.508 25.5476L194.515 28.7357H182.013L181.813 40.662H193.849L193.853 43.9981L193.857 47.3673H181.701L181.363 67.52L171.481 67.52Z" fill="#D9D9D9"/>
        <path d="M198.242 22.39H211.808C216.65 22.39 220.139 23.2291 222.283 24.9137C224.437 26.6069 225.615 29.4687 225.807 33.5296C226.028 38.1843 225.103 41.3582 223.023 43.0097C221.979 43.8385 220.341 44.4884 218.109 44.9573H218.639C221.242 44.9573 223.246 45.7859 224.658 47.448C226.075 49.1187 226.783 51.5201 226.777 54.6681C226.795 56.4737 226.862 58.3664 226.979 60.3475C227.121 62.4079 227.264 63.9778 227.406 65.0505C227.547 66.1271 227.723 66.9394 227.932 67.4858H218.084C217.906 66.9623 217.766 66.1671 217.662 65.1015C217.558 64.0395 217.471 62.4525 217.4 60.3475L217.21 54.6681C217.176 52.3484 216.677 50.7214 215.712 49.7783C214.751 48.8378 213.118 48.3685 210.812 48.3685H208.018L208.409 67.52H198.527L198.242 22.39ZM207.877 41.4533H210.511C212.969 41.4533 214.597 41.0153 215.392 40.1407C216.185 39.2688 216.538 37.536 216.451 34.9564C216.371 32.5612 215.89 30.9397 215.01 30.0808C214.131 29.2242 212.53 28.7967 210.204 28.7967H207.62L207.877 41.4533Z"
              fill="#D9D9D9"/>
        <path d="M234.176 64.5588C231.798 62.1269 230.463 57.9896 230.162 52.2063L229.2 33.7154C228.989 29.6728 230.009 26.678 232.247 24.7026C234.471 22.7395 237.922 21.7621 242.611 21.7621C247.299 21.7621 250.899 22.7395 253.422 24.7026C255.961 26.678 257.426 29.6728 257.809 33.7154L259.563 52.2063C260.111 57.9896 259.384 62.1269 257.363 64.5588C255.329 67.0077 251.545 68.2386 246.023 68.2386C240.523 68.2386 236.57 67.0077 234.176 64.5588ZM249.344 59.1775C249.988 57.9339 250.181 55.7353 249.928 52.599L248.433 34.0872C248.275 32.1295 247.739 30.6533 246.829 29.6523C245.921 28.6547 244.672 28.1566 243.08 28.1566C241.487 28.1566 240.317 28.6547 239.567 29.6523C238.814 30.6533 238.501 32.1295 238.631 34.0872L239.854 52.599C240.062 55.7353 240.578 57.9339 241.404 59.1775C242.233 60.4261 243.598 61.0515 245.495 61.0515C247.414 61.0515 248.698 60.4261 249.344 59.1775Z"
              fill="#D9D9D9"/>
        <path d="M272.819 67.52H264.715L260.218 22.39H273.816L286.607 60.0797L281.623 22.39H289.206L295.694 67.52H281.23L268.506 28.7357L272.819 67.52Z" fill="#D9D9D9"/>
        <path d="M340.47 22.39L350.794 67.52H338.716L329.168 22.39H340.47Z" fill="#D9D9D9"/>
        <path d="M359.339 22.39L370.96 67.52H358.882L348.037 22.39H359.339Z" fill="#D9D9D9"/>
        <path d="M366.698 24.787H322.933L322.444 22.39H366.062L366.698 24.787Z" fill="#D9D9D9"/>
        <path d="M378.032 67.52H331.643L331.089 64.8029H377.312L378.032 67.52Z" fill="#D9D9D9"/>
        <path d="M145.111 15.5878L150.235 0.000915527H157.97L163.18 15.5878H157.29L156.308 12.7814H151.681L150.699 15.5878H145.111ZM154.119 3.45499L151.886 9.62925H156.179L154.119 3.45499Z" fill="#D9D9D9"/>
        <path d="M164.273 15.5877V0.000793457H174.413C175.665 0.116029 176.693 0.446959 177.498 0.993764C178.304 1.54076 178.894 2.27482 179.268 3.19577C179.555 4.57747 179.57 5.64265 179.311 6.39094C179.052 7.13941 178.599 7.76553 177.952 8.26913C177.304 8.77309 176.377 9.16894 175.169 9.45665L176.334 10.9461H184.661V15.5877H174.845L169.904 10.4388V15.5877H164.273ZM169.904 3.88662V6.75797H173.831C174.039 6.75797 174.266 6.68071 174.51 6.52581C174.755 6.37129 174.884 5.98069 174.899 5.35475C174.863 4.75743 174.717 4.36346 174.462 4.17265C174.206 3.98222 173.993 3.88662 173.82 3.88662H169.904Z"
              fill="#D9D9D9"/>
        <path d="M251.525 4.64124H256.421V0H246.821C244.834 0 243.656 0.966315 243.282 2.89222C242.909 4.82149 243.973 6.9374 246.474 9.23995C247.875 10.3438 247.763 10.9104 246.14 10.9464C246.002 10.9498 245.855 10.9498 245.698 10.9464H238.405L237.24 9.45617C238.451 9.16797 239.377 8.7715 240.026 8.27043C240.67 7.76601 241.125 7.14051 241.384 6.39042C241.642 5.64354 241.629 4.57903 241.341 3.19689C240.968 2.27648 240.376 1.53951 239.571 0.992382C238.765 0.445413 237.738 0.114674 236.487 0H226.347V15.5877H231.977V10.4388L236.919 15.5877H250.703C252.948 15.2144 254.091 14.0614 254.133 12.1322C254.176 10.2063 253.033 8.21798 250.703 6.17419C249.403 5.09657 249.675 4.58559 251.525 4.64124ZM236.582 6.52461C236.34 6.68183 236.111 6.75715 235.904 6.75715H231.977V3.88796H235.891C236.065 3.88796 236.281 3.98297 236.536 4.17297C236.792 4.36281 236.936 4.75592 236.972 5.35535C236.959 5.98101 236.827 6.37075 236.582 6.52461Z"
              fill="#D9D9D9"/>
        <path d="M147.68 0V4.64124H142.737V15.5877H137.667V4.64124H131.294C129.445 4.58559 129.169 5.09658 130.472 6.1742C132.803 8.21798 133.945 10.2063 133.903 12.1322C133.86 14.0614 132.718 15.2144 130.472 15.5877H16.7432L17.9738 10.9464H125.467C127.503 11.0021 127.762 10.4354 126.243 9.23995C123.743 6.9374 122.679 4.8215 123.052 2.89223C123.425 0.966321 124.603 5.45208e-06 126.59 5.45208e-06L147.68 0Z"
              fill="#D9D9D9"/>
        <path d="M254.268 15.5885C255.387 14.5077 255.642 13.1222 255.665 12.1658C255.675 11.7595 255.642 11.3501 255.57 10.944H363.025L364.259 15.5885H254.268Z" fill="#D9D9D9"/>
        <path d="M1.23067 74.0712H177.083L174.17 78.7124H0L1.23067 74.0712Z" fill="#D9D9D9"/>
        <path d="M381 78.7124H203.648L200.971 74.0712H379.769L381 78.7124Z" fill="#D9D9D9"/>
        <path fill-rule="evenodd" clip-rule="evenodd"
              d="M187.645 0.000793457H193.382L194.835 5.19684L196.185 0.000793457H202.208L203.766 5.19684L205.324 0.000793457H210.308L205.739 15.5877H201.17L199.168 8.20966L196.912 15.5877H192.24L187.645 0.000793457Z"
              fill="#D9D9D9"/>
        <path fill-rule="evenodd" clip-rule="evenodd"
              d="M220.673 0.000793457H212.466L207.866 15.5885H212.985L213.816 13.4068H219.219L220.02 15.5885H225.036L220.673 0.000793457ZM214.96 9.66401L216.726 3.94645L218.388 9.66401H214.96Z" fill="#D9D9D9"/>
        <path fill-rule="evenodd" clip-rule="evenodd"
              d="M196.676 74.0712L188.787 86.5485H180.142L182.135 83.4791H187.513L189.465 80.3701H177.474L175.521 83.4791H178.39L174.485 89.6581H190.581L196.676 79.9315L198.907 83.4791H196.994L195.042 86.5485H200.859L202.811 89.6581H206.516L196.676 74.0712Z"
              fill="#D9D9D9"/>
        <path fill-rule="evenodd" clip-rule="evenodd" d="M194.086 74.1906H181.378L179.426 77.3001L192.134 77.2605L194.086 74.1906Z" fill="#D9D9D9"/>
        <path d="M248.679 135.686L242.872 125.739L242.571 125.612L218.682 115.751L218.637 115.728L212.906 125.652L216.375 151.764H216.42L227.919 151.71L228.408 151.33L248.696 135.711L248.679 135.686ZM243.674 134.706L234.308 141.919H238.078L227.381 150.153L218.263 150.201L221 147.876H219.825L218.263 136.139L216.313 139.52L214.516 125.97L219.101 118.028L219.754 121.64L220.345 120.621L231.284 125.14L229.387 121.857L241.792 126.975L246.403 134.869L243.083 133.681L243.674 134.706Z"
              fill="#D9D9D9"/>
        <path d="M234.587 130.863L234.424 130.584L234.64 130.663L243.083 133.681L240.309 128.864L231.284 125.14L232.131 126.609L232.294 126.888H223.603L221.521 130.505L221.403 130.7L221.333 130.297L219.754 121.64L216.98 126.454L218.263 136.139L219.189 134.543L219.259 134.419L219.406 134.675L223.603 141.947H227.972L221.001 147.876L226.557 147.884L234.308 141.919H232.316L236.641 134.419L234.587 130.863ZM230.094 138.121H225.812L223.665 134.419L225.812 130.708H230.094L232.232 134.419L230.094 138.121Z"
              fill="#D9D9D9"/>
        <path d="M264.776 133.377L264.095 130.986H261.243L260.562 133.377H259.098L261.718 124.405H263.684L266.304 133.377H264.776ZM262.72 125.857H262.618L261.513 129.791H263.825L262.72 125.857Z" fill="#D9D9D9"/>
        <path d="M269.054 133.377H267.628V124.405H270.981C272.676 124.405 273.614 125.433 273.614 127.104C273.614 128.467 272.92 129.418 271.674 129.624L273.743 133.377H272.15L270.248 129.752H269.054V133.377ZM270.775 128.596C271.674 128.596 272.111 128.197 272.111 127.374V126.822C272.111 125.999 271.674 125.6 270.775 125.6H269.054V128.596H270.775Z"
              fill="#D9D9D9"/>
        <path d="M279.974 129.084L280.012 126.384H279.909L278.111 130.999L276.313 126.384H276.21L276.248 129.084V133.377H274.977V124.405H276.736L278.111 127.966H278.201L279.588 124.405H281.245V133.377H279.974V129.084Z"
              fill="#D9D9D9"/>
        <path d="M282.71 128.891C282.71 125.922 283.802 124.251 286.076 124.251C287.81 124.251 288.606 125.253 289.017 126.474L287.72 126.911C287.45 126.089 287.078 125.446 286.063 125.446C284.791 125.446 284.239 126.487 284.239 128.133V129.649C284.239 131.295 284.791 132.336 286.063 132.336C287.078 132.336 287.45 131.693 287.72 130.871L289.017 131.308C288.606 132.529 287.81 133.532 286.076 133.532C283.802 133.532 282.71 131.861 282.71 128.891Z"
              fill="#D9D9D9"/>
        <path d="M295.017 129.431H292.036V133.377H290.598V124.405H292.036V128.223H295.017V124.405H296.455V133.377H295.017V129.431Z" fill="#D9D9D9"/>
        <path d="M303.316 133.377L302.635 130.986H299.783L299.102 133.377H297.638L300.258 124.405H302.224L304.844 133.377H303.316ZM301.26 125.857H301.157L300.053 129.791H302.365L301.26 125.857Z" fill="#D9D9D9"/>
        <path d="M306.116 133.377V132.285H308.223V125.497H306.116V124.405H311.769V125.497H309.662V132.285H311.769V133.377H306.116Z" fill="#D9D9D9"/>
        <path d="M315.302 133.377H313.876V124.405H317.229C318.924 124.405 319.862 125.433 319.862 127.104C319.862 128.467 319.169 129.418 317.922 129.624L319.991 133.377H318.398L316.497 129.752H315.302V133.377ZM317.023 128.596C317.922 128.596 318.359 128.197 318.359 127.374V126.822C318.359 125.999 317.922 125.6 317.023 125.6H315.302V128.596H317.023Z"
              fill="#D9D9D9"/>
        <path d="M259.098 136.147H261.77C264.043 136.147 265.148 137.715 265.148 140.633C265.148 143.551 264.043 145.119 261.77 145.119H259.098V136.147ZM261.68 143.936C262.99 143.936 263.632 143.011 263.632 141.378V139.887C263.632 138.255 262.99 137.329 261.68 137.329H260.523V143.936H261.68Z"
              fill="#D9D9D9"/>
        <path d="M266.857 145.119V136.147H272.471V137.355H268.296V139.965H272.317V141.173H268.296V143.911H272.471V145.119H266.857Z" fill="#D9D9D9"/>
        <path d="M276.312 145.119L273.781 136.147H275.336L276.518 140.671L277.301 143.718H277.378L278.162 140.671L279.357 136.147H280.847L278.316 145.119H276.312Z" fill="#D9D9D9"/>
        <path d="M282.273 145.119V136.147H287.887V137.355H283.712V139.965H287.733V141.173H283.712V143.911H287.887V145.119H282.273Z" fill="#D9D9D9"/>
        <path d="M290.264 145.119V136.147H291.702V143.911H295.787V145.119H290.264Z" fill="#D9D9D9"/>
        <path d="M297.149 140.633C297.149 137.702 298.164 135.992 300.438 135.992C302.712 135.992 303.727 137.702 303.727 140.633C303.727 143.564 302.712 145.274 300.438 145.274C298.164 145.274 297.149 143.564 297.149 140.633ZM302.198 141.379V139.874C302.198 138.229 301.723 137.188 300.438 137.188C299.154 137.188 298.678 138.229 298.678 139.874V141.391C298.678 143.037 299.154 144.078 300.438 144.078C301.723 144.078 302.198 143.037 302.198 141.379Z"
              fill="#D9D9D9"/>
        <path d="M305.371 145.119V136.147H308.724C310.42 136.147 311.357 137.175 311.357 138.846C311.357 140.517 310.42 141.546 308.724 141.546H306.81V145.119H305.371ZM306.81 140.35H308.506C309.405 140.35 309.842 139.939 309.842 139.116V138.563C309.842 137.741 309.405 137.342 308.506 137.342H306.81V140.35Z"
              fill="#D9D9D9"/>
        <path d="M313.104 145.119V136.147H318.718V137.355H314.543V139.965H318.564V141.173H314.543V143.911H318.718V145.119H313.104Z" fill="#D9D9D9"/>
        <path d="M322.213 145.119H320.787V136.147H324.14C325.836 136.147 326.773 137.175 326.773 138.846C326.773 140.209 326.08 141.16 324.834 141.366L326.902 145.119H325.309L323.408 141.494H322.213V145.119ZM323.934 140.337C324.834 140.337 325.27 139.939 325.27 139.116V138.563C325.27 137.741 324.834 137.342 323.934 137.342H322.213V140.337H323.934Z"
              fill="#D9D9D9"/>
        <path d="M327.917 143.77L328.842 142.883C329.523 143.692 330.281 144.078 331.244 144.078C332.375 144.078 333.004 143.538 333.004 142.587C333.004 141.816 332.606 141.417 331.527 141.237L330.55 141.083C328.855 140.8 328.251 139.784 328.251 138.589C328.251 136.905 329.433 135.992 331.334 135.992C332.747 135.992 333.749 136.481 334.366 137.291L333.467 138.191C332.978 137.586 332.323 137.188 331.334 137.188C330.281 137.188 329.703 137.651 329.703 138.525C329.703 139.257 330.088 139.669 331.193 139.849L332.143 140.016C333.762 140.312 334.456 141.237 334.456 142.51C334.456 144.168 333.3 145.274 331.193 145.274C329.638 145.274 328.598 144.669 327.917 143.77Z"
              fill="#D9D9D9"/>
        <path d="M155.772 120.218L164.291 134.982L155.772 149.747H53.3694L44.8507 134.982L53.3694 120.218H155.772ZM157.649 116.964H51.4924L41.0967 134.982L51.4924 153H157.649L168.045 134.982L157.649 116.964Z"
              fill="#D9D9D9"/>
        <path d="M53.729 126.646L57.2876 146.221H55.4045L48.9199 134.982L53.729 126.646Z" fill="#D9D9D9"/>
        <path d="M69.1084 125.017L58.0748 132.377L56.5068 123.744H68.3732L69.1084 125.017Z" fill="#D9D9D9"/>
        <path d="M59.0176 137.572L70.5188 142.505L68.3731 146.221H60.5906L59.0176 137.572Z" fill="#D9D9D9"/>
        <path d="M74.8577 134.982L72.1543 139.669L60.498 134.669L70.7364 127.84L74.8577 134.982Z" fill="#D9D9D9"/>
        <path d="M81.707 124.599H84.9466V145.526H81.707V124.599ZM85.0624 134.209L90.7317 124.599H94.4051L88.3309 134.064L94.6654 145.526H90.9342L85.0624 134.209Z" fill="#D9D9D9"/>
        <path d="M103.458 145.526H100.218V137.537L94.7227 124.599H98.3093L102.07 134.585L105.916 124.599H109.243L103.458 137.537V145.526Z" fill="#D9D9D9"/>
        <path d="M121.854 144.426C120.793 145.159 119.135 145.526 116.879 145.526H111.47V124.599H117.631C119.54 124.599 120.948 124.976 121.854 125.728C122.818 126.577 123.3 127.938 123.3 129.809C123.3 131.16 123.059 132.193 122.577 132.906C122.056 133.678 121.198 134.228 120.003 134.556C121.372 134.846 122.346 135.434 122.924 136.322C123.425 137.113 123.676 138.261 123.676 139.766C123.676 141.966 123.069 143.519 121.854 144.426ZM119.193 127.639C118.672 127.233 117.853 127.031 116.734 127.031H114.68V133.485H116.734C117.949 133.485 118.821 133.239 119.352 132.747C119.882 132.255 120.147 131.401 120.147 130.186C120.147 128.989 119.829 128.14 119.193 127.639ZM119.569 136.713C118.99 136.143 118.055 135.859 116.763 135.859H114.68V143.095H116.589C117.881 143.095 118.797 142.882 119.337 142.458C120.07 141.898 120.437 140.914 120.437 139.506C120.437 138.213 120.147 137.282 119.569 136.713Z"
              fill="#D9D9D9"/>
        <path d="M127.175 124.599H137.53V127.089H130.386V133.456H137.067V135.888H130.386V143.037H137.732V145.526H127.175V124.599Z" fill="#D9D9D9"/>
        <path d="M149.49 144.195C149.461 143.732 149.437 143.239 149.418 142.718C149.398 142.178 149.384 141.691 149.374 141.257C149.365 140.823 149.35 140.422 149.331 140.056C149.254 138.493 149.051 137.489 148.724 137.045C148.338 136.486 147.451 136.206 146.062 136.206H144.124V145.526H140.885V124.599H146.988C148.974 124.599 150.42 124.937 151.327 125.613C152.407 126.423 152.946 127.851 152.946 129.896C152.946 132.713 151.799 134.402 149.504 134.962C150.681 135.058 151.491 135.463 151.934 136.177C152.281 136.717 152.503 137.769 152.599 139.332C152.619 139.93 152.648 140.895 152.686 142.226C152.744 143.365 152.86 144.465 153.033 145.526H149.649C149.572 145.102 149.519 144.658 149.49 144.195ZM148.839 127.769C148.318 127.296 147.499 127.06 146.381 127.06H144.124V133.746H145.86C147.268 133.746 148.241 133.505 148.781 133.022C149.341 132.521 149.62 131.565 149.62 130.157C149.62 129.038 149.36 128.242 148.839 127.769Z"
              fill="#D9D9D9"/>
        <path d="M189.012 137.892C188.609 138.165 187.988 138.307 187.138 138.307H185.1V130.421H187.421C188.14 130.421 188.674 130.563 189.012 130.847C189.372 131.163 189.557 131.676 189.557 132.384C189.557 132.897 189.47 133.279 189.285 133.552C189.089 133.846 188.762 134.053 188.315 134.173C188.827 134.282 189.198 134.5 189.416 134.838C189.601 135.133 189.699 135.569 189.699 136.136C189.699 136.965 189.47 137.554 189.012 137.892ZM188.01 131.566C187.813 131.414 187.508 131.337 187.083 131.337H186.309V133.77H187.083C187.541 133.77 187.868 133.671 188.075 133.486C188.271 133.301 188.369 132.984 188.369 132.526C188.369 132.079 188.249 131.752 188.01 131.566ZM188.151 134.98C187.933 134.773 187.584 134.664 187.094 134.664H186.309V137.391H187.029C187.519 137.391 187.857 137.314 188.064 137.15C188.336 136.943 188.478 136.573 188.478 136.038C188.478 135.547 188.369 135.198 188.151 134.98Z"
              fill="#D9D9D9"/>
        <path d="M193.491 135.297V138.307H192.27V135.297L190.199 130.421H191.551L192.968 134.184L194.417 130.421H195.671L193.491 135.297Z" fill="#D9D9D9"/>
    </g>
    <defs>
        <clipPath id="clip0_2111_1050">
            <rect width="381" height="153" fill="white"/>
        </clipPath>
    </defs>
</svg>
