<svg viewBox="0 0 507.63 144" xmlns="http://www.w3.org/2000/svg"><path d="m45.32 137.5-37.81-65.5 37.81-65.5h416.98l37.82 65.5-37.82 65.5z" fill="#010101"/><path d="m458.55 13 34.06 59-34.06 59h-409.48l-34.06-59 34.06-59zm7.51-13h-424.49l-41.57 72 41.57 72h424.49l41.57-72z" fill="#f8b333"/><path d="m109.07 27.09h-51.86l-25.93 44.91 25.93 44.91h51.86l25.93-44.91z" fill="#fff"/><path d="m55 27 18 99" fill="none" stroke="#010101" stroke-miterlimit="10" stroke-width="13"/><path d="m64 72 63 27" fill="none" stroke="#010101" stroke-miterlimit="10" stroke-width="13"/><path d="m118 36-54 36" fill="none" stroke="#010101" stroke-miterlimit="10" stroke-width="13"/><g fill="#fff"><path d="m162.39 30.51h12.95v83.62h-12.95zm13.42 38.4 22.67-38.4h14.69l-24.29 37.82 25.33 45.8h-14.92z"/><path d="m249.36 114.13h-12.95v-31.92l-21.98-51.7h14.34l15.04 39.9 15.38-39.9h13.3l-23.13 51.7z"/><path d="m322.92 109.74c-4.24 2.93-10.87 4.4-19.89 4.4h-21.63v-83.63h24.64c7.63 0 13.26 1.5 16.89 4.51 3.85 3.39 5.78 8.83 5.78 16.31 0 5.4-.96 9.52-2.89 12.38-2.08 3.08-5.51 5.28-10.29 6.59 5.47 1.16 9.37 3.51 11.68 7.06 2 3.16 3.01 7.75 3.01 13.76 0 8.79-2.43 15-7.29 18.62zm-10.64-67.09c-2.08-1.62-5.36-2.43-9.83-2.43h-8.21v25.79h8.21c4.86 0 8.35-.98 10.47-2.95s3.18-5.38 3.18-10.24-1.27-8.17-3.82-10.18zm1.51 36.27c-2.31-2.27-6.05-3.41-11.22-3.41h-8.33v28.92h7.63c5.17 0 8.83-.85 10.99-2.54 2.93-2.24 4.4-6.17 4.4-11.8 0-5.17-1.16-8.89-3.47-11.16z"/><path d="m344.2 30.51h41.41v9.95h-28.57v25.45h26.72v9.72h-26.72v28.57h29.38v9.95h-42.22z"/><path d="m433.43 108.81c-.12-1.85-.21-3.82-.29-5.9-.08-2.16-.14-4.11-.17-5.84s-.1-3.33-.17-4.8c-.31-6.25-1.12-10.26-2.43-12.03-1.54-2.24-5.09-3.35-10.64-3.35h-7.75v37.24h-12.95v-83.62h24.4c7.94 0 13.73 1.35 17.35 4.05 4.32 3.24 6.48 8.94 6.48 17.12 0 11.26-4.59 18-13.76 20.24 4.7.39 7.94 2 9.72 4.86 1.39 2.16 2.27 6.36 2.66 12.61.08 2.39.19 6.25.35 11.57.23 4.55.69 8.94 1.39 13.19h-13.53c-.31-1.7-.52-3.47-.64-5.32zm-2.6-65.63c-2.08-1.89-5.36-2.83-9.83-2.83h-9.02v26.72h6.94c5.63 0 9.52-.96 11.68-2.89 2.24-2 3.35-5.82 3.35-11.45 0-4.47-1.04-7.65-3.12-9.54z"/></g></svg>