<svg viewBox="0 0 867.79 253.23" xmlns="http://www.w3.org/2000/svg"><path d="m858.9 126.61-68.65 118.91h-712.7l-68.65-118.91 68.65-118.91h712.7z"/><path d="m858.9 126.61-68.65 118.91h-712.7l-68.65-118.91 68.65-118.91h712.7z" fill="none" stroke="#f8b133" stroke-miterlimit="10" stroke-width="15.41"/><path d="m201.5 30.82h-110.61l-55.31 95.8 55.31 95.8h110.61l55.31-95.8z" fill="#fff"/><path d="m99.3 25.41h23.11v204.76h-23.11z" transform="matrix(.98394739 -.17845876 .17845876 .98394739 -21.02 21.83)"/><path d="m160.42 21.68h23.11v134.43h-23.11z" transform="matrix(.5245804 .85136092 -.85136092 .5245804 157.45 -104.16)"/><path d="m167.17 86.93h23.11v126.05h-23.11z" transform="matrix(-.25409557 .96717912 -.96717912 -.25409557 369.18 15.21)"/><g fill="#fff"><path d="m292.55 200.16v-147.08h22.78v147.08zm64.89 0-41.3-79.54 39.87-67.54h25.83l-42.72 66.52 44.55 80.56h-26.24z"/><path d="m445.52 144.01v56.15h-22.78v-56.15l-38.65-90.93h25.22l26.45 70.18 27.06-70.18h23.39z"/><path d="m564.73 192.43c-7.53 5.09-19.12 7.73-34.99 7.73h-38.04v-147.08h43.33c13.43 0 23.39 2.64 29.7 7.93 6.71 5.9 10.17 15.46 10.17 28.68 0 9.56-1.63 16.68-5.09 21.77-3.66 5.49-9.76 9.36-18.1 11.6 9.56 2.03 16.48 6.1 20.55 12.41 3.46 5.49 5.29 13.63 5.29 24.21 0 15.46-4.27 26.45-12.82 32.75zm-18.72-117.99c-3.66-2.85-9.36-4.27-17.29-4.27h-14.44v45.36h14.44c8.54 0 14.65-1.83 18.51-5.29 3.66-3.46 5.49-9.36 5.49-17.9s-2.24-14.44-6.71-17.9zm2.65 63.67c-4.07-3.87-10.58-5.9-19.73-5.9h-14.65v50.86h13.43c9.15 0 15.46-1.42 19.33-4.48 5.09-3.87 7.73-10.78 7.73-20.75 0-9.15-2.03-15.66-6.1-19.73z"/><path d="m588.14 200.16v-147.08h72.83v17.49h-50.25v44.75h46.99v17.09h-46.99v50.25h51.67v17.49h-74.25z"/><path d="m734.68 200.16c-.61-3.05-.81-6.1-1.02-9.36-.2-3.25-.41-6.71-.61-10.37-.2-3.87-.2-7.32-.2-10.37-.2-3.05-.2-5.7-.41-8.34-.61-10.98-2.03-18.1-4.27-21.16-2.64-3.87-8.95-5.9-18.71-5.9h-13.63v65.5h-22.78v-147.08h42.92c14.04 0 24.21 2.44 30.51 7.12 7.53 5.7 11.39 15.66 11.39 30.11 0 19.73-8.14 31.73-24.21 35.6 8.34.61 14.04 3.46 17.09 8.54 2.44 3.86 4.07 11.19 4.68 22.17.2 4.27.41 10.98.61 20.34.41 7.93 1.22 15.66 2.44 23.19h-23.8zm-5.7-124.91c-3.66-3.25-9.36-4.88-17.29-4.88h-15.87v46.99h12.21c9.97 0 16.68-1.63 20.55-5.09s5.9-10.17 5.9-20.14c0-7.93-1.83-13.43-5.49-16.88z"/></g></svg>