<svg viewBox="0 0 20 20" fill="none" xmlns="http://www.w3.org/2000/svg">
    <g clip-path="url(#clip0_266_1254)">
        <path d="M19.8878 13.7935C19.7667 13.3985 19.591 13.0192 19.384 12.6476C19.263 12.4247 19.1146 12.2057 18.9545 11.9711C19.2239 10.7665 19.2513 9.51115 19.0287 8.29097C18.9193 7.71216 18.7592 7.14509 18.5366 6.59367C18.646 6.29644 18.7436 6.00313 18.8334 5.70591C18.9428 5.31091 19.0052 4.88072 19.0287 4.42706C19.0404 4.21588 19.0404 4.00861 19.0287 3.81306C19.017 3.24599 18.8451 2.83927 18.6226 2.55769C18.5601 2.45991 18.4742 2.37388 18.3883 2.29957L18.2164 2.12749C18.0095 1.93195 17.7869 1.7325 17.5643 1.54869C17.0605 1.13023 16.5802 0.79781 16.1155 0.527963C15.9047 0.406727 15.6118 0.246383 15.2681 0.132968C15.0729 0.0703946 14.9011 0.0351975 14.7136 0.0117321C14.6394 0 14.5535 0 14.4793 0C14.124 0 13.8506 0.0860387 13.7296 0.136879H13.7179C13.1633 0.308955 12.6362 0.590536 12.0582 0.98553C11.8864 0.950333 11.7146 0.911225 11.5428 0.887759C10.8164 0.766523 10.055 0.727415 9.3052 0.789989C8.59059 0.840829 7.87988 0.98553 7.21603 1.20845C6.93486 1.30622 6.66151 1.40399 6.40378 1.5174C6.00938 1.36879 5.56811 1.23582 5.07608 1.16152C4.75587 1.11068 4.42395 1.08721 4.11936 1.08721H4.10764C3.94754 1.08721 3.78743 1.09894 3.63904 1.11068C3.17044 1.12241 2.8268 1.28275 2.58078 1.46656C2.47144 1.54087 2.37382 1.62691 2.284 1.72468L2.11218 1.89676C1.91693 2.0923 1.72949 2.31522 1.54596 2.53813C1.13984 3.04263 0.807911 3.51193 0.538465 3.97732C0.41741 4.1885 0.257304 4.47008 0.144059 4.81424C0.0815786 4.99805 0.046434 5.17012 0.0230035 5.3422C-0.0511912 5.8115 0.0737682 6.17912 0.120629 6.32773V6.33946C0.354929 7.05514 0.721999 7.66914 1.01878 8.09934C0.983635 8.24795 0.9563 8.40829 0.93287 8.56863C0.82353 9.31952 0.796194 10.0821 0.870389 10.833C0.944584 11.5487 1.09297 12.2605 1.31165 12.9018C1.36242 13.0231 1.39757 13.1482 1.44833 13.2577C1.43661 13.2929 1.4249 13.332 1.41319 13.3672C1.25308 13.7974 1.04611 14.3645 0.960204 15.0059C0.909439 15.3148 0.897723 15.6355 0.897723 15.9288C0.897723 16.0774 0.909438 16.2104 0.921154 16.3473C0.932868 16.7657 1.06954 17.0864 1.22965 17.3328C1.31556 17.4697 1.4249 17.5909 1.54986 17.7004L1.72168 17.8725C1.92864 18.0681 2.15123 18.2675 2.37382 18.4513C2.87756 18.8698 3.35788 19.2022 3.82257 19.472C4.02954 19.5933 4.32632 19.7536 4.66996 19.867C4.86521 19.9296 5.03703 19.9648 5.22447 19.9883C5.29867 20 5.38458 20 5.45877 20C5.81413 20 6.08748 19.9022 6.20853 19.914H6.22025C6.80991 19.7184 7.37613 19.4212 8.01265 18.9675C8.09856 18.9793 8.19618 19.0027 8.28209 19.0184C9.02014 19.1553 9.78161 19.2139 10.5314 19.167C11.2577 19.1318 11.9801 18.9949 12.6713 18.7837C12.9056 18.7094 13.1516 18.6234 13.3859 18.5256C13.8272 18.6977 14.3192 18.8698 14.8737 18.9558C15.2174 19.0184 15.5493 19.0418 15.8812 19.0418H15.8929C16.0531 19.0418 16.2132 19.0301 16.3615 19.0184C16.8301 18.9949 17.1738 18.8463 17.4198 18.6625C17.5291 18.5765 17.6307 18.4904 17.7166 18.3926L17.865 18.244C18.2594 17.8256 18.6382 17.3719 18.9701 16.9026C19.2786 16.4724 19.6222 15.9562 19.8409 15.3266C19.9034 15.1427 19.9502 14.9824 19.9776 14.8103C20.0479 14.3097 19.9346 13.9421 19.8878 13.7935ZM17.041 12.3895C16.5178 11.8498 15.6274 11.185 13.9561 10.4537L14.409 9.59327L10.9297 10.528L12.1871 13.7505L12.6908 12.7923C13.1204 12.9879 13.4406 13.1873 13.7608 13.422C14.2528 13.7661 14.7058 14.1494 15.0885 14.5561C16.0179 15.4986 16.506 16.4646 16.3811 17.2624L16.3655 17.2702L16.303 17.282C15.8734 17.3328 15.4048 17.3054 14.9284 17.1959H14.9167C14.4012 17.0591 13.8897 16.8674 13.3742 16.6289C12.3628 17.1451 11.2148 17.4423 10.0003 17.4423C9.16463 17.4423 8.3641 17.3015 7.61434 17.0473C8.14151 16.5155 8.78193 15.6277 9.48483 14.0203L10.3439 14.474L9.41064 10.9894L6.17729 12.2253L7.14964 12.7532C6.95439 13.1834 6.75523 13.5041 6.52093 13.8248C6.17729 14.3176 5.7946 14.7712 5.38848 15.1545C4.44738 16.0853 3.48284 16.5741 2.68622 16.449L2.6706 16.4333L2.65888 16.3707C2.60812 15.9406 2.63545 15.4713 2.74479 14.9941V14.9824C2.88928 14.4349 3.09624 13.8913 3.35397 13.3438C2.84632 12.3387 2.56126 11.2006 2.56126 9.99609C2.56126 9.21783 2.68231 8.46695 2.9049 7.763C3.42426 8.30661 4.31851 8.98318 6.01719 9.72624L5.56421 10.5866L9.04357 9.65194L7.80178 6.3903L7.28241 7.37583C6.85286 7.18029 6.53265 6.98084 6.21244 6.74619C5.72041 6.40203 5.26743 6.01877 4.88474 5.61205C3.96316 4.67345 3.47113 3.71529 3.59218 2.92139L3.61952 2.89402L3.682 2.88228C4.11155 2.83144 4.58015 2.85882 5.05656 2.96832H5.06827C5.52516 3.08956 5.98205 3.25381 6.43893 3.45718C7.50109 2.87837 8.71165 2.54986 10.0003 2.54986C10.8477 2.54986 11.6599 2.69456 12.4175 2.95268C11.8708 3.46891 11.1913 4.36449 10.4416 6.08134L9.58247 5.62769L10.5158 9.11224L13.7608 7.88033L12.7768 7.35236C12.972 6.92217 13.1712 6.60148 13.4055 6.2808C13.7491 5.78803 14.1318 5.33438 14.5379 4.95111C15.479 4.02034 16.4436 3.53148 17.2402 3.65663L17.2558 3.67227L17.2675 3.73484C17.3183 4.16504 17.2909 4.63434 17.1816 5.11146V5.12319C17.0488 5.62378 16.8614 6.12827 16.6349 6.62886C17.1504 7.64177 17.4393 8.78373 17.4393 10C17.4354 10.833 17.2948 11.6386 17.041 12.3895Z"
              fill="white"/>
    </g>
    <defs>
        <clipPath id="clip0_266_1254">
            <rect width="20" height="20" fill="white"/>
        </clipPath>
    </defs>
</svg>
