<?xml version="1.0" encoding="UTF-8" standalone="no"?>
<!DOCTYPE svg PUBLIC "-//W3C//DTD SVG 20010904//EN" "http://www.w3.org/TR/2001/REC-SVG-20010904/DTD/svg10.dtd"[]>
<svg version="1.1" id="Frosty Editor v1.0.6.3" xmlns="http://www.w3.org/2000/svg" d1p1:xlink="http://www.w3.org/1999/xlink" viewBox="0 0 96 96" xmlns:d1p1="xmlns">
    <path stroke="none" fill="#ffffffff"
          d="M 61.000,66.000 C 59.000,66.000 57.000,66.000 55.000,66.000 55.000,55.700 55.000,45.400 55.000,35.100 57.000,35.100 59.000,35.100 61.000,35.100 61.000,45.400 61.000,55.700 61.000,66.000 61.000,66.000 61.000,66.000 61.000,66.000 Z M 51.000,66.000 C 49.000,66.000 47.000,66.000 45.000,66.000 45.000,55.700 45.000,45.400 45.000,35.100 47.000,35.100 49.000,35.100 51.000,35.100 51.000,45.400 51.000,55.700 51.000,66.000 51.000,66.000 51.000,66.000 51.000,66.000 Z M 41.000,66.000 C 39.000,66.000 37.000,66.000 35.000,66.000 35.000,55.700 35.000,45.400 35.000,35.100 37.000,35.100 39.000,35.100 41.000,35.100 41.000,45.400 41.000,55.700 41.000,66.000 41.000,66.000 41.000,66.000 41.000,66.000 Z M 60.000,20.000 C 52.000,20.000 44.000,20.000 36.000,20.000 29.800,26.200 26.200,29.800 20.000,36.000 20.000,48.000 20.000,60.000 20.000,72.000 21.600,73.600 22.400,74.400 24.000,76.000 40.000,76.000 56.000,76.000 72.000,76.000 73.600,74.400 74.400,73.600 76.000,72.000 76.000,60.000 76.000,48.000 76.000,36.000 69.800,29.800 66.200,26.200 60.000,20.000 60.000,20.000 60.000,20.000 60.000,20.000 Z "/>
</svg>