<?xml version="1.0" encoding="UTF-8" standalone="no"?>
<!DOCTYPE svg PUBLIC "-//W3C//DTD SVG 20010904//EN" "http://www.w3.org/TR/2001/REC-SVG-20010904/DTD/svg10.dtd"[]>
<svg version="1.1" id="Frosty Editor v1.0.6.3" xmlns="http://www.w3.org/2000/svg" d1p1:xlink="http://www.w3.org/1999/xlink" viewBox="0 0 96 96" xmlns:d1p1="xmlns">
    <path stroke="none" fill="#ffffffff"
          d="M 48.000,65.500 C 41.400,65.500 36.100,57.700 36.100,48.000 40.067,49.067 44.033,50.133 48.000,51.200 51.967,50.133 55.933,49.067 59.900,48.000 59.900,57.700 54.600,65.500 48.000,65.500 48.000,65.500 48.000,65.500 48.000,65.500 Z M 48.000,30.500 C 53.400,30.500 57.900,35.700 59.500,43.000 55.667,44.033 51.833,45.067 48.000,46.100 44.167,45.067 40.333,44.033 36.500,43.000 38.100,35.700 42.600,30.500 48.000,30.500 48.000,30.500 48.000,30.500 48.000,30.500 Z M 48.000,20.000 C 32.500,20.000 20.000,32.500 20.000,48.000 20.000,63.500 32.500,76.000 48.000,76.000 63.500,76.000 76.000,63.500 76.000,48.000 76.000,32.500 63.500,20.000 48.000,20.000 48.000,20.000 48.000,20.000 48.000,20.000 Z "/>
</svg>