<?xml version="1.0" encoding="UTF-8" standalone="no"?>
<!DOCTYPE svg PUBLIC "-//W3C//DTD SVG 20010904//EN" "http://www.w3.org/TR/2001/REC-SVG-20010904/DTD/svg10.dtd"[]>
<svg version="1.1" id="Frosty Editor v1.0.6.3" xmlns="http://www.w3.org/2000/svg" d1p1:xlink="http://www.w3.org/1999/xlink" viewBox="0 0 96 96" xmlns:d1p1="xmlns">
    <path stroke="none" fill="#ffffffff"
          d="M 61.000,47.000 C 59.000,47.000 57.000,47.000 55.000,47.000 55.000,43.333 55.000,39.667 55.000,36.000 57.000,36.000 59.000,36.000 61.000,36.000 61.000,39.667 61.000,43.333 61.000,47.000 61.000,47.000 61.000,47.000 61.000,47.000 Z M 61.000,61.000 C 59.000,61.000 57.000,61.000 55.000,61.000 55.000,57.667 55.000,54.333 55.000,51.000 57.000,51.000 59.000,51.000 61.000,51.000 61.000,54.333 61.000,57.667 61.000,61.000 61.000,61.000 61.000,61.000 61.000,61.000 Z M 51.000,47.000 C 49.000,47.000 47.000,47.000 45.000,47.000 45.000,43.333 45.000,39.667 45.000,36.000 47.000,36.000 49.000,36.000 51.000,36.000 51.000,39.667 51.000,43.333 51.000,47.000 51.000,47.000 51.000,47.000 51.000,47.000 Z M 51.000,61.000 C 49.000,61.000 47.000,61.000 45.000,61.000 45.000,57.667 45.000,54.333 45.000,51.000 47.000,51.000 49.000,51.000 51.000,51.000 51.000,54.333 51.000,57.667 51.000,61.000 51.000,61.000 51.000,61.000 51.000,61.000 Z M 41.000,47.000 C 39.000,47.000 37.000,47.000 35.000,47.000 35.000,43.333 35.000,39.667 35.000,36.000 37.000,36.000 39.000,36.000 41.000,36.000 41.000,39.667 41.000,43.333 41.000,47.000 41.000,47.000 41.000,47.000 41.000,47.000 Z M 41.000,61.000 C 39.000,61.000 37.000,61.000 35.000,61.000 35.000,57.667 35.000,54.333 35.000,51.000 37.000,51.000 39.000,51.000 41.000,51.000 41.000,54.333 41.000,57.667 41.000,61.000 41.000,61.000 41.000,61.000 41.000,61.000 Z M 72.000,20.000 C 56.000,20.000 40.000,20.000 24.000,20.000 22.400,21.600 21.600,22.400 20.000,24.000 20.000,40.000 20.000,56.000 20.000,72.000 21.600,73.600 22.400,74.400 24.000,76.000 40.000,76.000 56.000,76.000 72.000,76.000 73.600,74.400 74.400,73.600 76.000,72.000 76.000,56.000 76.000,40.000 76.000,24.000 74.400,22.400 73.600,21.600 72.000,20.000 72.000,20.000 72.000,20.000 72.000,20.000 Z "/>
</svg>