<?xml version="1.0" encoding="UTF-8" standalone="no"?>
<!DOCTYPE svg PUBLIC "-//W3C//DTD SVG 20010904//EN" "http://www.w3.org/TR/2001/REC-SVG-20010904/DTD/svg10.dtd"[]>
<svg version="1.1" id="Frosty Editor v1.0.6.3" xmlns="http://www.w3.org/2000/svg" d1p1:xlink="http://www.w3.org/1999/xlink" viewBox="0 0 96 96" xmlns:d1p1="xmlns">
    <path stroke="none" fill="#ffffffff"
          d="M 58.000,50.000 C 58.000,51.100 57.100,52.000 56.000,52.000 56.000,54.667 56.000,57.333 56.000,60.000 56.667,60.000 57.333,60.000 58.000,60.000 58.000,62.000 58.000,64.000 58.000,66.000 55.333,66.000 52.667,66.000 50.000,66.000 50.000,61.333 50.000,56.667 50.000,52.000 48.667,52.000 47.333,52.000 46.000,52.000 46.000,56.667 46.000,61.333 46.000,66.000 43.333,66.000 40.667,66.000 38.000,66.000 38.000,64.000 38.000,62.000 38.000,60.000 38.667,60.000 39.333,60.000 40.000,60.000 40.000,57.333 40.000,54.667 40.000,52.000 38.900,52.000 38.000,51.100 38.000,50.000 38.000,44.667 38.000,39.333 38.000,34.000 38.000,32.900 38.900,32.000 40.000,32.000 45.333,32.000 50.667,32.000 56.000,32.000 57.100,32.000 58.000,32.900 58.000,34.000 58.000,39.333 58.000,44.667 58.000,50.000 58.000,50.000 58.000,50.000 58.000,50.000 Z M 72.000,20.000 C 56.000,20.000 40.000,20.000 24.000,20.000 22.400,21.600 21.600,22.400 20.000,24.000 20.000,40.000 20.000,56.000 20.000,72.000 21.600,73.600 22.400,74.400 24.000,76.000 40.000,76.000 56.000,76.000 72.000,76.000 73.600,74.400 74.400,73.600 76.000,72.000 76.000,56.000 76.000,40.000 76.000,24.000 74.400,22.400 73.600,21.600 72.000,20.000 72.000,20.000 72.000,20.000 72.000,20.000 Z "/>
</svg>