<?xml version="1.0" encoding="UTF-8" standalone="no"?>
<!DOCTYPE svg PUBLIC "-//W3C//DTD SVG 20010904//EN" "http://www.w3.org/TR/2001/REC-SVG-20010904/DTD/svg10.dtd"[]>
<svg version="1.1" id="Frosty Editor v1.0.6.3" xmlns="http://www.w3.org/2000/svg" d1p1:xlink="http://www.w3.org/1999/xlink" viewBox="0 0 96 96" xmlns:d1p1="xmlns">
    <path stroke="none" fill="#ffffffff"
          d="M 50.000,63.000 C 50.000,55.500 50.000,48.000 50.000,40.500 53.333,48.000 56.667,55.500 60.000,63.000 56.667,63.000 53.333,63.000 50.000,63.000 50.000,63.000 50.000,63.000 50.000,63.000 Z M 46.000,63.000 C 42.667,63.000 39.333,63.000 36.000,63.000 39.333,55.500 42.667,48.000 46.000,40.500 46.000,48.000 46.000,55.500 46.000,63.000 46.000,63.000 46.000,63.000 46.000,63.000 Z M 72.000,48.000 C 68.733,48.000 65.467,48.000 62.200,48.000 57.467,37.333 52.733,26.667 48.000,16.000 43.267,26.667 38.533,37.333 33.800,48.000 30.533,48.000 27.267,48.000 24.000,48.000 26.033,50.733 28.067,53.467 30.100,56.200 28.067,60.800 26.033,65.400 24.000,70.000 29.500,70.000 35.000,70.000 40.500,70.000 43.000,73.333 45.500,76.667 48.000,80.000 50.500,76.667 53.000,73.333 55.500,70.000 61.000,70.000 66.500,70.000 72.000,70.000 69.967,65.400 67.933,60.800 65.900,56.200 67.933,53.467 69.967,50.733 72.000,48.000 72.000,48.000 72.000,48.000 72.000,48.000 Z "/>
</svg>