<?xml version="1.0" encoding="UTF-8" standalone="no"?>
<!DOCTYPE svg PUBLIC "-//W3C//DTD SVG 20010904//EN" "http://www.w3.org/TR/2001/REC-SVG-20010904/DTD/svg10.dtd"[]>
<svg version="1.1" id="Frosty Editor v1.0.6.3" xmlns="http://www.w3.org/2000/svg" d1p1:xlink="http://www.w3.org/1999/xlink" viewBox="0 0 96 96" xmlns:d1p1="xmlns">
    <path stroke="none" fill="#ffffffff"
          d="M 44.000,64.000 C 44.000,58.667 44.000,53.333 44.000,48.000 41.333,48.000 38.667,48.000 36.000,48.000 41.333,42.667 46.667,37.333 52.000,32.000 52.000,37.333 52.000,42.667 52.000,48.000 54.667,48.000 57.333,48.000 60.000,48.000 54.667,53.333 49.333,58.667 44.000,64.000 44.000,64.000 44.000,64.000 44.000,64.000 Z M 48.000,20.000 C 32.500,20.000 20.000,32.500 20.000,48.000 20.000,63.500 32.500,76.000 48.000,76.000 63.500,76.000 76.000,63.500 76.000,48.000 76.000,32.500 63.500,20.000 48.000,20.000 48.000,20.000 48.000,20.000 48.000,20.000 Z "/>
</svg>