<?xml version="1.0" encoding="UTF-8" standalone="no"?>
<!DOCTYPE svg PUBLIC "-//W3C//DTD SVG 20010904//EN" "http://www.w3.org/TR/2001/REC-SVG-20010904/DTD/svg10.dtd"[]>
<svg version="1.1" id="Frosty Editor v1.0.6.3" xmlns="http://www.w3.org/2000/svg" d1p1:xlink="http://www.w3.org/1999/xlink" viewBox="0 0 96 96" xmlns:d1p1="xmlns">
    <path stroke="none" fill="#ffffffff"
          d="M 51.000,44.000 C 51.000,46.000 51.000,48.000 51.000,50.000 49.000,50.000 47.000,50.000 45.000,50.000 45.000,48.000 45.000,46.000 45.000,44.000 43.333,44.000 41.667,44.000 40.000,44.000 42.667,40.000 45.333,36.000 48.000,32.000 50.667,36.000 53.333,40.000 56.000,44.000 54.333,44.000 52.667,44.000 51.000,44.000 51.000,44.000 51.000,44.000 51.000,44.000 Z M 51.000,62.000 C 49.000,62.000 47.000,62.000 45.000,62.000 45.000,60.000 45.000,58.000 45.000,56.000 47.000,56.000 49.000,56.000 51.000,56.000 51.000,58.000 51.000,60.000 51.000,62.000 51.000,62.000 51.000,62.000 51.000,62.000 Z M 48.000,20.000 C 32.500,20.000 20.000,32.500 20.000,48.000 20.000,63.500 32.500,76.000 48.000,76.000 63.500,76.000 76.000,63.500 76.000,48.000 76.000,32.500 63.500,20.000 48.000,20.000 48.000,20.000 48.000,20.000 48.000,20.000 Z "/>
</svg>