<?xml version="1.0" encoding="UTF-8" standalone="no"?>
<!DOCTYPE svg PUBLIC "-//W3C//DTD SVG 20010904//EN" "http://www.w3.org/TR/2001/REC-SVG-20010904/DTD/svg10.dtd"[]>
<svg version="1.1" id="Frosty Editor v1.0.6.3" xmlns="http://www.w3.org/2000/svg" d1p1:xlink="http://www.w3.org/1999/xlink" viewBox="0 0 96 96" xmlns:d1p1="xmlns">
    <path stroke="none" fill="#ffffffff"
          d="M 63.000,67.000 C 61.000,67.000 59.000,67.000 57.000,67.000 57.000,60.333 57.000,53.667 57.000,47.000 59.000,47.000 61.000,47.000 63.000,47.000 63.000,53.667 63.000,60.333 63.000,67.000 63.000,67.000 63.000,67.000 63.000,67.000 Z M 51.000,61.000 C 49.000,61.000 47.000,61.000 45.000,61.000 45.000,51.000 45.000,41.000 45.000,31.000 47.000,31.000 49.000,31.000 51.000,31.000 51.000,41.000 51.000,51.000 51.000,61.000 51.000,61.000 51.000,61.000 51.000,61.000 Z M 39.000,67.000 C 37.000,67.000 35.000,67.000 33.000,67.000 33.000,60.333 33.000,53.667 33.000,47.000 35.000,47.000 37.000,47.000 39.000,47.000 39.000,53.667 39.000,60.333 39.000,67.000 39.000,67.000 39.000,67.000 39.000,67.000 Z M 48.000,16.000 C 38.667,27.333 29.333,38.667 20.000,50.000 20.000,58.667 20.000,67.333 20.000,76.000 38.667,76.000 57.333,76.000 76.000,76.000 76.000,67.333 76.000,58.667 76.000,50.000 66.667,38.667 57.333,27.333 48.000,16.000 48.000,16.000 48.000,16.000 48.000,16.000 Z "/>
</svg>