<?xml version="1.0" encoding="UTF-8" standalone="no"?>
<!DOCTYPE svg PUBLIC "-//W3C//DTD SVG 20010904//EN" "http://www.w3.org/TR/2001/REC-SVG-20010904/DTD/svg10.dtd"[]>
<svg version="1.1" id="Frosty Editor v1.0.6.3" xmlns="http://www.w3.org/2000/svg" d1p1:xlink="http://www.w3.org/1999/xlink" viewBox="0 0 96 96" xmlns:d1p1="xmlns">
    <path stroke="none" fill="#ffffffff"
          d="M 19.998,26.154 C 19.998,27.189 19.998,28.223 19.998,29.258 21.209,29.258 22.421,29.258 23.632,29.258 23.682,43.221 23.732,57.184 23.783,71.148 22.521,71.148 21.260,71.148 19.998,71.148 19.998,72.766 19.998,74.384 19.998,76.002 33.575,76.002 47.152,76.002 60.729,76.002 60.729,74.321 60.729,72.640 60.729,70.959 59.565,70.959 58.402,70.959 57.238,70.959 57.238,59.774 57.238,48.589 57.238,37.404 63.380,37.404 69.522,37.404 75.664,37.404 75.664,35.853 75.664,34.301 75.664,32.750 69.587,32.750 63.509,32.750 57.432,32.750 57.408,31.555 57.384,30.359 57.360,29.164 58.483,29.140 59.606,29.116 60.729,29.092 60.729,28.113 60.729,27.133 60.729,26.154 47.152,26.154 33.575,26.154 19.998,26.154 Z "/>
</svg>