<?xml version="1.0" encoding="UTF-8" standalone="no"?>
<!DOCTYPE svg PUBLIC "-//W3C//DTD SVG 20010904//EN" "http://www.w3.org/TR/2001/REC-SVG-20010904/DTD/svg10.dtd"[]>
<svg version="1.1" id="Frosty Editor v1.0.6.3" xmlns="http://www.w3.org/2000/svg" d1p1:xlink="http://www.w3.org/1999/xlink" viewBox="0 0 96 96" xmlns:d1p1="xmlns">
  <path stroke="none" fill="#ffffffff" d="M 37.700,65.900 C 37.700,53.233 37.700,40.567 37.700,27.900 30.900,31.200 26.100,37.800 25.100,45.600 25.000,46.600 24.900,47.500 24.900,48.600 24.900,59.500 32.400,68.600 42.600,71.100 42.600,72.767 42.600,74.433 42.600,76.100 29.600,73.600 19.900,62.100 19.900,48.500 19.900,47.500 20.000,46.500 20.100,45.500 21.400,33.200 30.600,23.300 42.600,20.900 42.600,36.533 42.600,52.167 42.600,67.800 40.900,67.400 39.200,66.700 37.700,65.900 37.700,65.900 37.700,65.900 37.700,65.900 Z " />
  <path stroke="none" fill="#ffffffff" d="M 76.000,48.500 C 76.000,62.100 66.300,73.400 53.400,76.000 53.400,74.333 53.400,72.667 53.400,71.000 63.600,68.500 71.100,59.400 71.100,48.500 71.100,47.500 71.000,46.500 70.900,45.500 69.900,37.800 65.000,31.200 58.300,27.800 58.300,40.433 58.300,53.067 58.300,65.700 56.800,66.600 55.100,67.300 53.400,67.800 53.400,52.200 53.400,36.600 53.400,21.000 65.300,23.400 74.600,33.300 75.900,45.600 76.000,46.600 76.000,47.500 76.000,48.500 76.000,48.500 76.000,48.500 76.000,48.500 Z " />
  <path stroke="none" fill="#ffffffff" d="M 50.500,19.500 C 50.500,38.467 50.500,57.433 50.500,76.400 49.700,76.500 48.800,76.500 48.000,76.500 47.200,76.500 46.300,76.500 45.500,76.400 45.500,57.433 45.500,38.467 45.500,19.500 47.167,19.500 48.833,19.500 50.500,19.500 50.500,19.500 50.500,19.500 50.500,19.500 Z " />
</svg>