<svg xmlns="http://www.w3.org/2000/svg" width="96" height="58" fill="none" viewBox="0 0 96 58">
  <path stroke="#D9D9D9" stroke-linecap="square" stroke-linejoin="round" stroke-width="3" d="M21.082 48.044c-7.905-4.662-14.51-11.166-19.233-18.93 4.723-7.764 11.328-14.268 19.233-18.93a56.698 56.698 0 0 1 26.906-7.81 56.698 56.698 0 0 1 26.906 7.81c7.905 4.662 14.509 11.166 19.232 18.93-4.723 7.763-11.327 14.268-19.232 18.93a56.698 56.698 0 0 1-26.906 7.81 56.698 56.698 0 0 1-26.906-7.81Z"/>
  <path stroke="#D9D9D9" stroke-linecap="square" d="M25.96 29.114c0 5.742 2.32 11.25 6.452 15.31 4.13 4.06 9.733 6.341 15.576 6.341 5.695-.432 11.046-2.852 15.086-6.823 4.039-3.97 6.501-9.23 6.941-14.828 0-5.742-2.32-11.25-6.452-15.31-4.13-4.06-9.733-6.341-15.575-6.341-5.843 0-11.445 2.281-15.576 6.341-4.131 4.06-6.452 9.568-6.452 15.31Z"/>
  <path fill="#D9D9D9" d="M30.748 19.7a9.333 9.333 0 0 0 2.805 6.657 9.662 9.662 0 0 0 6.772 2.757c2.54 0 4.976-.992 6.772-2.757a9.333 9.333 0 0 0 2.806-6.657 9.333 9.333 0 0 0-2.806-6.656 9.662 9.662 0 0 0-6.772-2.757c-2.54 0-4.976.992-6.772 2.757a9.333 9.333 0 0 0-2.805 6.656Z"/>
</svg>
