<svg xmlns="http://www.w3.org/2000/svg" width="96" height="58" fill="none" viewBox="0 0 96 58">
  <path stroke="#fff" stroke-linecap="square" stroke-linejoin="round" d="M20.472 48.906C12.251 44.057 5.41 37.249.581 29.114 5.41 20.979 12.25 14.17 20.472 9.322a57.698 57.698 0 0 1 27.414-7.948A57.698 57.698 0 0 1 75.3 9.322c8.221 4.849 15.062 11.657 19.892 19.792-4.83 8.135-11.67 14.943-19.892 19.792a57.7 57.7 0 0 1-27.414 7.948 57.7 57.7 0 0 1-27.414-7.948Z"/>
  <path stroke="#fff" stroke-linecap="square" d="M25.858 29.114c0 5.742 2.321 11.25 6.452 15.31 4.131 4.06 9.734 6.341 15.576 6.341 5.696-.432 11.046-2.852 15.086-6.823 4.04-3.97 6.502-9.23 6.942-14.828 0-5.742-2.321-11.25-6.452-15.31-4.131-4.06-9.734-6.341-15.576-6.341-5.842 0-11.445 2.281-15.576 6.341-4.13 4.06-6.452 9.568-6.452 15.31Z"/>
  <path stroke="#fff" stroke-linecap="square" d="M30.646 19.7a9.333 9.333 0 0 0 2.806 6.657 9.662 9.662 0 0 0 6.772 2.757c2.54 0 4.976-.992 6.772-2.757A9.333 9.333 0 0 0 49.8 19.7a9.333 9.333 0 0 0-2.805-6.656 9.662 9.662 0 0 0-6.772-2.757c-2.54 0-4.976.992-6.772 2.757a9.333 9.333 0 0 0-2.805 6.656Z"/>
</svg>
